<svg width="505" height="434" viewBox="0 0 505 434" fill="none" xmlns="http://www.w3.org/2000/svg">
<g filter="url(#filter0_d_1_354)">
<path d="M46 65C46 45.67 61.67 30 81 30H427C429.209 30 431 31.7909 431 34V309C431 328.33 415.33 344 396 344H50C47.7909 344 46 342.209 46 340V65Z" fill="white"/>
</g>
<rect x="94" y="202" width="40" height="68" rx="6" fill="#FEE355"/>
<rect x="177" y="145" width="40" height="125" rx="6" fill="#FF8181"/>
<rect x="260" y="95" width="40" height="175" rx="6" fill="#81FF9C"/>
<rect x="343" y="56" width="40" height="214" rx="6" fill="#20CFC6"/>
<path d="M103.666 287.742V302H101.078V290.76L97.6504 291.893V289.803L103.373 287.742H103.666ZM117.865 293.67V296.062C117.865 297.156 117.755 298.09 117.533 298.865C117.312 299.64 116.993 300.275 116.576 300.77C116.16 301.258 115.661 301.619 115.082 301.854C114.503 302.081 113.858 302.195 113.148 302.195C112.582 302.195 112.055 302.124 111.566 301.98C111.078 301.831 110.639 301.603 110.248 301.297C109.864 300.984 109.532 300.587 109.252 300.105C108.979 299.624 108.767 299.048 108.617 298.377C108.474 297.706 108.402 296.935 108.402 296.062V293.67C108.402 292.576 108.513 291.645 108.734 290.877C108.962 290.109 109.285 289.48 109.701 288.992C110.118 288.504 110.616 288.149 111.195 287.928C111.775 287.7 112.419 287.586 113.129 287.586C113.702 287.586 114.229 287.658 114.711 287.801C115.199 287.944 115.635 288.169 116.02 288.475C116.41 288.774 116.742 289.165 117.016 289.646C117.289 290.122 117.497 290.695 117.641 291.365C117.79 292.029 117.865 292.798 117.865 293.67ZM115.287 296.414V293.309C115.287 292.762 115.255 292.286 115.189 291.883C115.131 291.473 115.043 291.124 114.926 290.838C114.809 290.551 114.662 290.32 114.486 290.145C114.311 289.962 114.109 289.829 113.881 289.744C113.653 289.66 113.402 289.617 113.129 289.617C112.79 289.617 112.488 289.686 112.221 289.822C111.954 289.952 111.729 290.161 111.547 290.447C111.365 290.734 111.225 291.115 111.127 291.59C111.036 292.059 110.99 292.632 110.99 293.309V296.414C110.99 296.961 111.02 297.439 111.078 297.85C111.143 298.26 111.234 298.611 111.352 298.904C111.475 299.197 111.622 299.438 111.791 299.627C111.967 299.809 112.169 299.946 112.396 300.037C112.624 300.122 112.875 300.164 113.148 300.164C113.493 300.164 113.796 300.096 114.057 299.959C114.324 299.822 114.548 299.607 114.73 299.314C114.913 299.015 115.049 298.628 115.141 298.152C115.238 297.671 115.287 297.091 115.287 296.414ZM129.291 293.67V296.062C129.291 297.156 129.18 298.09 128.959 298.865C128.738 299.64 128.419 300.275 128.002 300.77C127.585 301.258 127.087 301.619 126.508 301.854C125.928 302.081 125.284 302.195 124.574 302.195C124.008 302.195 123.48 302.124 122.992 301.98C122.504 301.831 122.064 301.603 121.674 301.297C121.29 300.984 120.958 300.587 120.678 300.105C120.404 299.624 120.193 299.048 120.043 298.377C119.9 297.706 119.828 296.935 119.828 296.062V293.67C119.828 292.576 119.939 291.645 120.16 290.877C120.388 290.109 120.71 289.48 121.127 288.992C121.544 288.504 122.042 288.149 122.621 287.928C123.201 287.7 123.845 287.586 124.555 287.586C125.128 287.586 125.655 287.658 126.137 287.801C126.625 287.944 127.061 288.169 127.445 288.475C127.836 288.774 128.168 289.165 128.441 289.646C128.715 290.122 128.923 290.695 129.066 291.365C129.216 292.029 129.291 292.798 129.291 293.67ZM126.713 296.414V293.309C126.713 292.762 126.68 292.286 126.615 291.883C126.557 291.473 126.469 291.124 126.352 290.838C126.234 290.551 126.088 290.32 125.912 290.145C125.736 289.962 125.535 289.829 125.307 289.744C125.079 289.66 124.828 289.617 124.555 289.617C124.216 289.617 123.913 289.686 123.646 289.822C123.38 289.952 123.155 290.161 122.973 290.447C122.79 290.734 122.65 291.115 122.553 291.59C122.462 292.059 122.416 292.632 122.416 293.309V296.414C122.416 296.961 122.445 297.439 122.504 297.85C122.569 298.26 122.66 298.611 122.777 298.904C122.901 299.197 123.048 299.438 123.217 299.627C123.393 299.809 123.594 299.946 123.822 300.037C124.05 300.122 124.301 300.164 124.574 300.164C124.919 300.164 125.222 300.096 125.482 299.959C125.749 299.822 125.974 299.607 126.156 299.314C126.339 299.015 126.475 298.628 126.566 298.152C126.664 297.671 126.713 297.091 126.713 296.414Z" fill="#A7A7A7"/>
<path d="M191.654 299.969V302H182.025V300.262L186.645 295.271C187.126 294.725 187.507 294.249 187.787 293.846C188.067 293.442 188.266 293.077 188.383 292.752C188.507 292.42 188.568 292.104 188.568 291.805C188.568 291.368 188.49 290.988 188.334 290.662C188.178 290.33 187.95 290.073 187.65 289.891C187.357 289.708 186.996 289.617 186.566 289.617C186.091 289.617 185.684 289.728 185.346 289.949C185.014 290.164 184.76 290.464 184.584 290.848C184.415 291.232 184.33 291.671 184.33 292.166H181.742C181.742 291.326 181.938 290.561 182.328 289.871C182.719 289.174 183.279 288.618 184.008 288.201C184.737 287.785 185.603 287.576 186.605 287.576C187.582 287.576 188.409 287.739 189.086 288.064C189.763 288.383 190.277 288.839 190.629 289.432C190.98 290.024 191.156 290.73 191.156 291.551C191.156 292.007 191.081 292.456 190.932 292.898C190.782 293.341 190.57 293.781 190.297 294.217C190.03 294.646 189.711 295.083 189.34 295.525C188.969 295.968 188.555 296.421 188.1 296.883L185.326 299.969H191.654ZM202.865 293.67V296.062C202.865 297.156 202.755 298.09 202.533 298.865C202.312 299.64 201.993 300.275 201.576 300.77C201.16 301.258 200.661 301.619 200.082 301.854C199.503 302.081 198.858 302.195 198.148 302.195C197.582 302.195 197.055 302.124 196.566 301.98C196.078 301.831 195.639 301.603 195.248 301.297C194.864 300.984 194.532 300.587 194.252 300.105C193.979 299.624 193.767 299.048 193.617 298.377C193.474 297.706 193.402 296.935 193.402 296.062V293.67C193.402 292.576 193.513 291.645 193.734 290.877C193.962 290.109 194.285 289.48 194.701 288.992C195.118 288.504 195.616 288.149 196.195 287.928C196.775 287.7 197.419 287.586 198.129 287.586C198.702 287.586 199.229 287.658 199.711 287.801C200.199 287.944 200.635 288.169 201.02 288.475C201.41 288.774 201.742 289.165 202.016 289.646C202.289 290.122 202.497 290.695 202.641 291.365C202.79 292.029 202.865 292.798 202.865 293.67ZM200.287 296.414V293.309C200.287 292.762 200.255 292.286 200.189 291.883C200.131 291.473 200.043 291.124 199.926 290.838C199.809 290.551 199.662 290.32 199.486 290.145C199.311 289.962 199.109 289.829 198.881 289.744C198.653 289.66 198.402 289.617 198.129 289.617C197.79 289.617 197.488 289.686 197.221 289.822C196.954 289.952 196.729 290.161 196.547 290.447C196.365 290.734 196.225 291.115 196.127 291.59C196.036 292.059 195.99 292.632 195.99 293.309V296.414C195.99 296.961 196.02 297.439 196.078 297.85C196.143 298.26 196.234 298.611 196.352 298.904C196.475 299.197 196.622 299.438 196.791 299.627C196.967 299.809 197.169 299.946 197.396 300.037C197.624 300.122 197.875 300.164 198.148 300.164C198.493 300.164 198.796 300.096 199.057 299.959C199.324 299.822 199.548 299.607 199.73 299.314C199.913 299.015 200.049 298.628 200.141 298.152C200.238 297.671 200.287 297.091 200.287 296.414ZM214.291 293.67V296.062C214.291 297.156 214.18 298.09 213.959 298.865C213.738 299.64 213.419 300.275 213.002 300.77C212.585 301.258 212.087 301.619 211.508 301.854C210.928 302.081 210.284 302.195 209.574 302.195C209.008 302.195 208.48 302.124 207.992 301.98C207.504 301.831 207.064 301.603 206.674 301.297C206.29 300.984 205.958 300.587 205.678 300.105C205.404 299.624 205.193 299.048 205.043 298.377C204.9 297.706 204.828 296.935 204.828 296.062V293.67C204.828 292.576 204.939 291.645 205.16 290.877C205.388 290.109 205.71 289.48 206.127 288.992C206.544 288.504 207.042 288.149 207.621 287.928C208.201 287.7 208.845 287.586 209.555 287.586C210.128 287.586 210.655 287.658 211.137 287.801C211.625 287.944 212.061 288.169 212.445 288.475C212.836 288.774 213.168 289.165 213.441 289.646C213.715 290.122 213.923 290.695 214.066 291.365C214.216 292.029 214.291 292.798 214.291 293.67ZM211.713 296.414V293.309C211.713 292.762 211.68 292.286 211.615 291.883C211.557 291.473 211.469 291.124 211.352 290.838C211.234 290.551 211.088 290.32 210.912 290.145C210.736 289.962 210.535 289.829 210.307 289.744C210.079 289.66 209.828 289.617 209.555 289.617C209.216 289.617 208.913 289.686 208.646 289.822C208.38 289.952 208.155 290.161 207.973 290.447C207.79 290.734 207.65 291.115 207.553 291.59C207.462 292.059 207.416 292.632 207.416 293.309V296.414C207.416 296.961 207.445 297.439 207.504 297.85C207.569 298.26 207.66 298.611 207.777 298.904C207.901 299.197 208.048 299.438 208.217 299.627C208.393 299.809 208.594 299.946 208.822 300.037C209.05 300.122 209.301 300.164 209.574 300.164C209.919 300.164 210.222 300.096 210.482 299.959C210.749 299.822 210.974 299.607 211.156 299.314C211.339 299.015 211.475 298.628 211.566 298.152C211.664 297.671 211.713 297.091 211.713 296.414Z" fill="#A7A7A7"/>
<path d="M265.848 293.748H267.303C267.817 293.748 268.24 293.66 268.572 293.484C268.911 293.302 269.161 293.055 269.324 292.742C269.493 292.423 269.578 292.055 269.578 291.639C269.578 291.229 269.503 290.874 269.354 290.574C269.204 290.268 268.976 290.034 268.67 289.871C268.37 289.702 267.986 289.617 267.518 289.617C267.14 289.617 266.792 289.692 266.473 289.842C266.16 289.992 265.91 290.206 265.721 290.486C265.538 290.76 265.447 291.089 265.447 291.473H262.859C262.859 290.704 263.061 290.031 263.465 289.451C263.875 288.865 264.428 288.406 265.125 288.074C265.822 287.742 266.6 287.576 267.459 287.576C268.396 287.576 269.217 287.732 269.92 288.045C270.63 288.351 271.18 288.803 271.57 289.402C271.967 290.001 272.166 290.743 272.166 291.629C272.166 292.052 272.065 292.475 271.863 292.898C271.668 293.315 271.378 293.693 270.994 294.031C270.617 294.363 270.151 294.633 269.598 294.842C269.051 295.044 268.423 295.145 267.713 295.145H265.848V293.748ZM265.848 295.74V294.363H267.713C268.514 294.363 269.207 294.458 269.793 294.646C270.385 294.829 270.874 295.089 271.258 295.428C271.642 295.76 271.925 296.147 272.107 296.59C272.296 297.033 272.391 297.508 272.391 298.016C272.391 298.68 272.267 299.272 272.02 299.793C271.772 300.307 271.424 300.743 270.975 301.102C270.532 301.46 270.011 301.733 269.412 301.922C268.813 302.104 268.165 302.195 267.469 302.195C266.863 302.195 266.274 302.114 265.701 301.951C265.135 301.782 264.624 301.531 264.168 301.199C263.712 300.861 263.351 300.438 263.084 299.93C262.817 299.415 262.684 298.82 262.684 298.143H265.271C265.271 298.533 265.366 298.882 265.555 299.188C265.75 299.493 266.017 299.734 266.355 299.91C266.701 300.079 267.088 300.164 267.518 300.164C267.993 300.164 268.4 300.079 268.738 299.91C269.083 299.734 269.347 299.487 269.529 299.168C269.712 298.842 269.803 298.455 269.803 298.006C269.803 297.472 269.702 297.039 269.5 296.707C269.298 296.375 269.008 296.131 268.631 295.975C268.26 295.818 267.817 295.74 267.303 295.74H265.848ZM283.865 293.67V296.062C283.865 297.156 283.755 298.09 283.533 298.865C283.312 299.64 282.993 300.275 282.576 300.77C282.16 301.258 281.661 301.619 281.082 301.854C280.503 302.081 279.858 302.195 279.148 302.195C278.582 302.195 278.055 302.124 277.566 301.98C277.078 301.831 276.639 301.603 276.248 301.297C275.864 300.984 275.532 300.587 275.252 300.105C274.979 299.624 274.767 299.048 274.617 298.377C274.474 297.706 274.402 296.935 274.402 296.062V293.67C274.402 292.576 274.513 291.645 274.734 290.877C274.962 290.109 275.285 289.48 275.701 288.992C276.118 288.504 276.616 288.149 277.195 287.928C277.775 287.7 278.419 287.586 279.129 287.586C279.702 287.586 280.229 287.658 280.711 287.801C281.199 287.944 281.635 288.169 282.02 288.475C282.41 288.774 282.742 289.165 283.016 289.646C283.289 290.122 283.497 290.695 283.641 291.365C283.79 292.029 283.865 292.798 283.865 293.67ZM281.287 296.414V293.309C281.287 292.762 281.255 292.286 281.189 291.883C281.131 291.473 281.043 291.124 280.926 290.838C280.809 290.551 280.662 290.32 280.486 290.145C280.311 289.962 280.109 289.829 279.881 289.744C279.653 289.66 279.402 289.617 279.129 289.617C278.79 289.617 278.488 289.686 278.221 289.822C277.954 289.952 277.729 290.161 277.547 290.447C277.365 290.734 277.225 291.115 277.127 291.59C277.036 292.059 276.99 292.632 276.99 293.309V296.414C276.99 296.961 277.02 297.439 277.078 297.85C277.143 298.26 277.234 298.611 277.352 298.904C277.475 299.197 277.622 299.438 277.791 299.627C277.967 299.809 278.169 299.946 278.396 300.037C278.624 300.122 278.875 300.164 279.148 300.164C279.493 300.164 279.796 300.096 280.057 299.959C280.324 299.822 280.548 299.607 280.73 299.314C280.913 299.015 281.049 298.628 281.141 298.152C281.238 297.671 281.287 297.091 281.287 296.414ZM295.291 293.67V296.062C295.291 297.156 295.18 298.09 294.959 298.865C294.738 299.64 294.419 300.275 294.002 300.77C293.585 301.258 293.087 301.619 292.508 301.854C291.928 302.081 291.284 302.195 290.574 302.195C290.008 302.195 289.48 302.124 288.992 301.98C288.504 301.831 288.064 301.603 287.674 301.297C287.29 300.984 286.958 300.587 286.678 300.105C286.404 299.624 286.193 299.048 286.043 298.377C285.9 297.706 285.828 296.935 285.828 296.062V293.67C285.828 292.576 285.939 291.645 286.16 290.877C286.388 290.109 286.71 289.48 287.127 288.992C287.544 288.504 288.042 288.149 288.621 287.928C289.201 287.7 289.845 287.586 290.555 287.586C291.128 287.586 291.655 287.658 292.137 287.801C292.625 287.944 293.061 288.169 293.445 288.475C293.836 288.774 294.168 289.165 294.441 289.646C294.715 290.122 294.923 290.695 295.066 291.365C295.216 292.029 295.291 292.798 295.291 293.67ZM292.713 296.414V293.309C292.713 292.762 292.68 292.286 292.615 291.883C292.557 291.473 292.469 291.124 292.352 290.838C292.234 290.551 292.088 290.32 291.912 290.145C291.736 289.962 291.535 289.829 291.307 289.744C291.079 289.66 290.828 289.617 290.555 289.617C290.216 289.617 289.913 289.686 289.646 289.822C289.38 289.952 289.155 290.161 288.973 290.447C288.79 290.734 288.65 291.115 288.553 291.59C288.462 292.059 288.416 292.632 288.416 293.309V296.414C288.416 296.961 288.445 297.439 288.504 297.85C288.569 298.26 288.66 298.611 288.777 298.904C288.901 299.197 289.048 299.438 289.217 299.627C289.393 299.809 289.594 299.946 289.822 300.037C290.05 300.122 290.301 300.164 290.574 300.164C290.919 300.164 291.222 300.096 291.482 299.959C291.749 299.822 291.974 299.607 292.156 299.314C292.339 299.015 292.475 298.628 292.566 298.152C292.664 297.671 292.713 297.091 292.713 296.414Z" fill="#A7A7A7"/>
<path d="M353.898 296.814V298.846H343.654L343.547 297.283L349.572 287.781H351.633L349.406 291.561L346.174 296.814H353.898ZM352.209 287.781V302H349.621V287.781H352.209ZM364.865 293.67V296.062C364.865 297.156 364.755 298.09 364.533 298.865C364.312 299.64 363.993 300.275 363.576 300.77C363.16 301.258 362.661 301.619 362.082 301.854C361.503 302.081 360.858 302.195 360.148 302.195C359.582 302.195 359.055 302.124 358.566 301.98C358.078 301.831 357.639 301.603 357.248 301.297C356.864 300.984 356.532 300.587 356.252 300.105C355.979 299.624 355.767 299.048 355.617 298.377C355.474 297.706 355.402 296.935 355.402 296.062V293.67C355.402 292.576 355.513 291.645 355.734 290.877C355.962 290.109 356.285 289.48 356.701 288.992C357.118 288.504 357.616 288.149 358.195 287.928C358.775 287.7 359.419 287.586 360.129 287.586C360.702 287.586 361.229 287.658 361.711 287.801C362.199 287.944 362.635 288.169 363.02 288.475C363.41 288.774 363.742 289.165 364.016 289.646C364.289 290.122 364.497 290.695 364.641 291.365C364.79 292.029 364.865 292.798 364.865 293.67ZM362.287 296.414V293.309C362.287 292.762 362.255 292.286 362.189 291.883C362.131 291.473 362.043 291.124 361.926 290.838C361.809 290.551 361.662 290.32 361.486 290.145C361.311 289.962 361.109 289.829 360.881 289.744C360.653 289.66 360.402 289.617 360.129 289.617C359.79 289.617 359.488 289.686 359.221 289.822C358.954 289.952 358.729 290.161 358.547 290.447C358.365 290.734 358.225 291.115 358.127 291.59C358.036 292.059 357.99 292.632 357.99 293.309V296.414C357.99 296.961 358.02 297.439 358.078 297.85C358.143 298.26 358.234 298.611 358.352 298.904C358.475 299.197 358.622 299.438 358.791 299.627C358.967 299.809 359.169 299.946 359.396 300.037C359.624 300.122 359.875 300.164 360.148 300.164C360.493 300.164 360.796 300.096 361.057 299.959C361.324 299.822 361.548 299.607 361.73 299.314C361.913 299.015 362.049 298.628 362.141 298.152C362.238 297.671 362.287 297.091 362.287 296.414ZM376.291 293.67V296.062C376.291 297.156 376.18 298.09 375.959 298.865C375.738 299.64 375.419 300.275 375.002 300.77C374.585 301.258 374.087 301.619 373.508 301.854C372.928 302.081 372.284 302.195 371.574 302.195C371.008 302.195 370.48 302.124 369.992 301.98C369.504 301.831 369.064 301.603 368.674 301.297C368.29 300.984 367.958 300.587 367.678 300.105C367.404 299.624 367.193 299.048 367.043 298.377C366.9 297.706 366.828 296.935 366.828 296.062V293.67C366.828 292.576 366.939 291.645 367.16 290.877C367.388 290.109 367.71 289.48 368.127 288.992C368.544 288.504 369.042 288.149 369.621 287.928C370.201 287.7 370.845 287.586 371.555 287.586C372.128 287.586 372.655 287.658 373.137 287.801C373.625 287.944 374.061 288.169 374.445 288.475C374.836 288.774 375.168 289.165 375.441 289.646C375.715 290.122 375.923 290.695 376.066 291.365C376.216 292.029 376.291 292.798 376.291 293.67ZM373.713 296.414V293.309C373.713 292.762 373.68 292.286 373.615 291.883C373.557 291.473 373.469 291.124 373.352 290.838C373.234 290.551 373.088 290.32 372.912 290.145C372.736 289.962 372.535 289.829 372.307 289.744C372.079 289.66 371.828 289.617 371.555 289.617C371.216 289.617 370.913 289.686 370.646 289.822C370.38 289.952 370.155 290.161 369.973 290.447C369.79 290.734 369.65 291.115 369.553 291.59C369.462 292.059 369.416 292.632 369.416 293.309V296.414C369.416 296.961 369.445 297.439 369.504 297.85C369.569 298.26 369.66 298.611 369.777 298.904C369.901 299.197 370.048 299.438 370.217 299.627C370.393 299.809 370.594 299.946 370.822 300.037C371.05 300.122 371.301 300.164 371.574 300.164C371.919 300.164 372.222 300.096 372.482 299.959C372.749 299.822 372.974 299.607 373.156 299.314C373.339 299.015 373.475 298.628 373.566 298.152C373.664 297.671 373.713 297.091 373.713 296.414Z" fill="#A7A7A7"/>
<path d="M95.1992 52.3594V68H91.4395V52.3594H95.1992ZM101.456 58.8584V68H97.8362V56.377H101.231L101.456 58.8584ZM101.027 61.791L100.178 61.8125C100.178 60.9245 100.285 60.1331 100.5 59.4385C100.715 58.7367 101.019 58.1423 101.413 57.6553C101.807 57.1683 102.276 56.7995 102.821 56.5488C103.372 56.291 103.984 56.1621 104.657 56.1621C105.195 56.1621 105.685 56.2409 106.129 56.3984C106.58 56.556 106.967 56.8102 107.289 57.1611C107.619 57.512 107.869 57.9775 108.041 58.5576C108.22 59.1305 108.31 59.8395 108.31 60.6846V68H104.668V60.6738C104.668 60.2083 104.604 59.8538 104.475 59.6104C104.346 59.3597 104.16 59.1878 103.916 59.0947C103.673 59.0016 103.376 58.9551 103.025 58.9551C102.652 58.9551 102.337 59.0267 102.079 59.1699C101.822 59.3132 101.614 59.5137 101.456 59.7715C101.306 60.0221 101.195 60.3193 101.123 60.6631C101.059 61.0068 101.027 61.3828 101.027 61.791ZM114.728 65.5186L117.016 56.377H120.83L117.027 68H114.771L114.728 65.5186ZM113.375 56.377L115.63 65.5186L115.609 68H113.342L109.55 56.377H113.375ZM127.602 68.2148C126.657 68.2148 125.812 68.068 125.067 67.7744C124.322 67.4736 123.692 67.0618 123.177 66.5391C122.668 66.0163 122.278 65.4147 122.006 64.7344C121.741 64.054 121.608 63.3343 121.608 62.5752V62.167C121.608 61.3148 121.726 60.527 121.963 59.8037C122.199 59.0732 122.55 58.4359 123.015 57.8916C123.481 57.3473 124.065 56.9248 124.766 56.624C125.468 56.3161 126.285 56.1621 127.216 56.1621C128.039 56.1621 128.777 56.2946 129.429 56.5596C130.08 56.8245 130.632 57.2041 131.083 57.6982C131.541 58.1924 131.889 58.7904 132.125 59.4922C132.368 60.194 132.49 60.9818 132.49 61.8555V63.3271H122.994V61.0605H128.956V60.7812C128.963 60.3945 128.895 60.0651 128.752 59.793C128.616 59.5208 128.415 59.3132 128.15 59.1699C127.885 59.0267 127.563 58.9551 127.183 58.9551C126.79 58.9551 126.464 59.041 126.206 59.2129C125.955 59.3848 125.758 59.6211 125.615 59.9219C125.479 60.2155 125.382 60.5557 125.325 60.9424C125.268 61.3291 125.239 61.7373 125.239 62.167V62.5752C125.239 63.0049 125.296 63.3952 125.411 63.7461C125.533 64.097 125.705 64.3978 125.927 64.6484C126.156 64.8919 126.428 65.0817 126.743 65.2178C127.065 65.3538 127.431 65.4219 127.839 65.4219C128.333 65.4219 128.82 65.3288 129.3 65.1426C129.779 64.9564 130.191 64.6484 130.535 64.2188L132.179 66.1738C131.942 66.5104 131.606 66.8363 131.169 67.1514C130.739 67.4665 130.223 67.7243 129.622 67.9248C129.02 68.1182 128.347 68.2148 127.602 68.2148ZM140.273 64.7344C140.273 64.5339 140.205 64.362 140.068 64.2188C139.94 64.0684 139.71 63.9323 139.381 63.8105C139.052 63.6816 138.59 63.5527 137.995 63.4238C137.429 63.3021 136.896 63.141 136.395 62.9404C135.901 62.7399 135.467 62.4964 135.095 62.21C134.722 61.9235 134.429 61.5833 134.214 61.1895C134.006 60.7956 133.902 60.3444 133.902 59.8359C133.902 59.3418 134.006 58.8763 134.214 58.4395C134.429 57.9954 134.74 57.6051 135.149 57.2686C135.564 56.9248 136.069 56.6562 136.663 56.4629C137.258 56.2624 137.934 56.1621 138.693 56.1621C139.739 56.1621 140.641 56.3232 141.401 56.6455C142.16 56.9606 142.743 57.4046 143.151 57.9775C143.567 58.5433 143.775 59.1986 143.775 59.9434H140.154C140.154 59.6497 140.104 59.3991 140.004 59.1914C139.911 58.9837 139.757 58.8262 139.542 58.7188C139.327 58.6042 139.041 58.5469 138.683 58.5469C138.432 58.5469 138.203 58.5934 137.995 58.6865C137.795 58.7796 137.634 58.9085 137.512 59.0732C137.39 59.238 137.329 59.4313 137.329 59.6533C137.329 59.8109 137.365 59.9541 137.437 60.083C137.515 60.2048 137.634 60.3193 137.791 60.4268C137.949 60.527 138.149 60.6201 138.393 60.7061C138.636 60.7848 138.93 60.8564 139.274 60.9209C140.054 61.0641 140.785 61.2682 141.465 61.5332C142.145 61.7982 142.697 62.1742 143.119 62.6611C143.549 63.1481 143.764 63.8034 143.764 64.627C143.764 65.1426 143.646 65.6188 143.409 66.0557C143.173 66.4854 142.833 66.8649 142.389 67.1943C141.945 67.5166 141.411 67.7673 140.788 67.9463C140.165 68.1253 139.463 68.2148 138.683 68.2148C137.573 68.2148 136.635 68.0179 135.868 67.624C135.102 67.223 134.522 66.7217 134.128 66.1201C133.741 65.5114 133.548 64.8955 133.548 64.2725H136.921C136.935 64.6305 137.021 64.9242 137.179 65.1533C137.344 65.3825 137.562 65.5508 137.834 65.6582C138.106 65.7656 138.421 65.8193 138.779 65.8193C139.109 65.8193 139.381 65.7728 139.596 65.6797C139.818 65.5866 139.986 65.4613 140.101 65.3037C140.215 65.139 140.273 64.9492 140.273 64.7344ZM151.804 56.377V58.8906H144.8V56.377H151.804ZM146.272 53.4873H149.892V64.208C149.892 64.516 149.928 64.7559 149.999 64.9277C150.071 65.0924 150.193 65.2106 150.365 65.2822C150.544 65.3467 150.78 65.3789 151.074 65.3789C151.281 65.3789 151.453 65.3753 151.589 65.3682C151.725 65.3538 151.854 65.3359 151.976 65.3145V67.9033C151.668 68.0036 151.346 68.0788 151.009 68.1289C150.673 68.1862 150.315 68.2148 149.935 68.2148C149.162 68.2148 148.499 68.0931 147.948 67.8496C147.403 67.6061 146.988 67.223 146.702 66.7002C146.415 66.1774 146.272 65.4971 146.272 64.6592V53.4873ZM157.116 58.8369V68H153.496V56.377H156.89L157.116 58.8369ZM156.675 61.791L155.848 61.8125C155.848 60.9961 155.945 60.2441 156.138 59.5566C156.332 58.8691 156.618 58.2712 156.998 57.7627C157.377 57.2542 157.843 56.8604 158.394 56.5811C158.953 56.3018 159.597 56.1621 160.328 56.1621C160.836 56.1621 161.298 56.2409 161.714 56.3984C162.129 56.5488 162.487 56.7887 162.788 57.1182C163.089 57.4404 163.318 57.863 163.475 58.3857C163.64 58.9014 163.722 59.5208 163.722 60.2441V68H160.102V60.7061C160.102 60.2119 160.045 59.8395 159.93 59.5889C159.823 59.3382 159.665 59.1699 159.458 59.084C159.25 58.998 158.996 58.9551 158.695 58.9551C158.38 58.9551 158.097 59.0267 157.846 59.1699C157.596 59.3132 157.381 59.5137 157.202 59.7715C157.03 60.0221 156.897 60.3193 156.804 60.6631C156.718 61.0068 156.675 61.3828 156.675 61.791ZM163.314 61.791L162.304 61.8125C162.304 60.9961 162.394 60.2441 162.573 59.5566C162.759 58.8691 163.035 58.2712 163.4 57.7627C163.772 57.2542 164.234 56.8604 164.786 56.5811C165.337 56.3018 165.978 56.1621 166.709 56.1621C167.239 56.1621 167.726 56.2409 168.17 56.3984C168.614 56.556 168.997 56.8102 169.319 57.1611C169.641 57.512 169.892 57.9775 170.071 58.5576C170.25 59.1305 170.34 59.8395 170.34 60.6846V68H166.709V60.6846C166.709 60.2048 166.651 59.8431 166.537 59.5996C166.429 59.349 166.272 59.1807 166.064 59.0947C165.856 59.0016 165.609 58.9551 165.323 58.9551C164.979 58.9551 164.682 59.0267 164.431 59.1699C164.181 59.3132 163.969 59.5137 163.798 59.7715C163.633 60.0221 163.511 60.3193 163.432 60.6631C163.354 61.0068 163.314 61.3828 163.314 61.791ZM178.262 68.2148C177.316 68.2148 176.471 68.068 175.727 67.7744C174.982 67.4736 174.352 67.0618 173.836 66.5391C173.327 66.0163 172.937 65.4147 172.665 64.7344C172.4 64.054 172.268 63.3343 172.268 62.5752V62.167C172.268 61.3148 172.386 60.527 172.622 59.8037C172.858 59.0732 173.209 58.4359 173.675 57.8916C174.14 57.3473 174.724 56.9248 175.426 56.624C176.128 56.3161 176.944 56.1621 177.875 56.1621C178.699 56.1621 179.436 56.2946 180.088 56.5596C180.74 56.8245 181.291 57.2041 181.742 57.6982C182.2 58.1924 182.548 58.7904 182.784 59.4922C183.028 60.194 183.149 60.9818 183.149 61.8555V63.3271H173.653V61.0605H179.615V60.7812C179.622 60.3945 179.554 60.0651 179.411 59.793C179.275 59.5208 179.075 59.3132 178.81 59.1699C178.545 59.0267 178.222 58.9551 177.843 58.9551C177.449 58.9551 177.123 59.041 176.865 59.2129C176.615 59.3848 176.418 59.6211 176.274 59.9219C176.138 60.2155 176.042 60.5557 175.984 60.9424C175.927 61.3291 175.898 61.7373 175.898 62.167V62.5752C175.898 63.0049 175.956 63.3952 176.07 63.7461C176.192 64.097 176.364 64.3978 176.586 64.6484C176.815 64.8919 177.087 65.0817 177.402 65.2178C177.725 65.3538 178.09 65.4219 178.498 65.4219C178.992 65.4219 179.479 65.3288 179.959 65.1426C180.439 64.9564 180.851 64.6484 181.194 64.2188L182.838 66.1738C182.602 66.5104 182.265 66.8363 181.828 67.1514C181.398 67.4665 180.883 67.7243 180.281 67.9248C179.68 68.1182 179.006 68.2148 178.262 68.2148ZM188.397 58.8584V68H184.777V56.377H188.171L188.397 58.8584ZM187.967 61.791L187.118 61.8125C187.118 60.9245 187.226 60.1331 187.441 59.4385C187.656 58.7367 187.96 58.1423 188.354 57.6553C188.748 57.1683 189.217 56.7995 189.761 56.5488C190.312 56.291 190.925 56.1621 191.598 56.1621C192.135 56.1621 192.626 56.2409 193.07 56.3984C193.521 56.556 193.907 56.8102 194.23 57.1611C194.559 57.512 194.81 57.9775 194.982 58.5576C195.161 59.1305 195.25 59.8395 195.25 60.6846V68H191.609V60.6738C191.609 60.2083 191.544 59.8538 191.415 59.6104C191.286 59.3597 191.1 59.1878 190.857 59.0947C190.613 59.0016 190.316 58.9551 189.965 58.9551C189.593 58.9551 189.278 59.0267 189.02 59.1699C188.762 59.3132 188.554 59.5137 188.397 59.7715C188.246 60.0221 188.135 60.3193 188.064 60.6631C187.999 61.0068 187.967 61.3828 187.967 61.791ZM203.602 56.377V58.8906H196.598V56.377H203.602ZM198.07 53.4873H201.69V64.208C201.69 64.516 201.726 64.7559 201.797 64.9277C201.869 65.0924 201.991 65.2106 202.163 65.2822C202.342 65.3467 202.578 65.3789 202.872 65.3789C203.079 65.3789 203.251 65.3753 203.387 65.3682C203.523 65.3538 203.652 65.3359 203.774 65.3145V67.9033C203.466 68.0036 203.144 68.0788 202.807 68.1289C202.471 68.1862 202.112 68.2148 201.733 68.2148C200.959 68.2148 200.297 68.0931 199.746 67.8496C199.201 67.6061 198.786 67.223 198.5 66.7002C198.213 66.1774 198.07 65.4971 198.07 64.6592V53.4873ZM211.352 64.7344C211.352 64.5339 211.284 64.362 211.148 64.2188C211.019 64.0684 210.79 63.9323 210.461 63.8105C210.131 63.6816 209.669 63.5527 209.075 63.4238C208.509 63.3021 207.976 63.141 207.474 62.9404C206.98 62.7399 206.547 62.4964 206.175 62.21C205.802 61.9235 205.509 61.5833 205.294 61.1895C205.086 60.7956 204.982 60.3444 204.982 59.8359C204.982 59.3418 205.086 58.8763 205.294 58.4395C205.509 57.9954 205.82 57.6051 206.228 57.2686C206.644 56.9248 207.149 56.6562 207.743 56.4629C208.337 56.2624 209.014 56.1621 209.773 56.1621C210.819 56.1621 211.721 56.3232 212.48 56.6455C213.239 56.9606 213.823 57.4046 214.231 57.9775C214.647 58.5433 214.854 59.1986 214.854 59.9434H211.234C211.234 59.6497 211.184 59.3991 211.084 59.1914C210.991 58.9837 210.837 58.8262 210.622 58.7188C210.407 58.6042 210.121 58.5469 209.762 58.5469C209.512 58.5469 209.283 58.5934 209.075 58.6865C208.874 58.7796 208.713 58.9085 208.592 59.0732C208.47 59.238 208.409 59.4313 208.409 59.6533C208.409 59.8109 208.445 59.9541 208.516 60.083C208.595 60.2048 208.713 60.3193 208.871 60.4268C209.028 60.527 209.229 60.6201 209.472 60.7061C209.716 60.7848 210.01 60.8564 210.353 60.9209C211.134 61.0641 211.864 61.2682 212.545 61.5332C213.225 61.7982 213.776 62.1742 214.199 62.6611C214.629 63.1481 214.844 63.8034 214.844 64.627C214.844 65.1426 214.725 65.6188 214.489 66.0557C214.253 66.4854 213.913 66.8649 213.469 67.1943C213.025 67.5166 212.491 67.7673 211.868 67.9463C211.245 68.1253 210.543 68.2148 209.762 68.2148C208.652 68.2148 207.714 68.0179 206.948 67.624C206.182 67.223 205.602 66.7217 205.208 66.1201C204.821 65.5114 204.628 64.8955 204.628 64.2725H208.001C208.015 64.6305 208.101 64.9242 208.259 65.1533C208.423 65.3825 208.642 65.5508 208.914 65.6582C209.186 65.7656 209.501 65.8193 209.859 65.8193C210.189 65.8193 210.461 65.7728 210.676 65.6797C210.898 65.5866 211.066 65.4613 211.18 65.3037C211.295 65.139 211.352 64.9492 211.352 64.7344Z" fill="#92BBB9" fill-opacity="0.8"/>
<defs>
<filter id="filter0_d_1_354" x="0" y="0" width="505" height="434" filterUnits="userSpaceOnUse" color-interpolation-filters="sRGB">
<feFlood flood-opacity="0" result="BackgroundImageFix"/>
<feColorMatrix in="SourceAlpha" type="matrix" values="0 0 0 0 0 0 0 0 0 0 0 0 0 0 0 0 0 0 127 0" result="hardAlpha"/>
<feOffset dx="14" dy="30"/>
<feGaussianBlur stdDeviation="30"/>
<feComposite in2="hardAlpha" operator="out"/>
<feColorMatrix type="matrix" values="0 0 0 0 0 0 0 0 0 0 0 0 0 0 0 0 0 0 0.12 0"/>
<feBlend mode="normal" in2="BackgroundImageFix" result="effect1_dropShadow_1_354"/>
<feBlend mode="normal" in="SourceGraphic" in2="effect1_dropShadow_1_354" result="shape"/>
</filter>
</defs>
</svg>
