<svg width="641" height="480" viewBox="0 0 641 480" fill="none" xmlns="http://www.w3.org/2000/svg">
<g filter="url(#filter0_d_1_331)">
<path d="M45 75C45 55.67 60.67 40 80 40H562C564.209 40 566 41.7909 566 44V365C566 384.33 550.33 400 531 400H49C46.7909 400 45 398.209 45 396V75Z" fill="white"/>
</g>
<path d="M83.666 349.742V364H81.0781V352.76L77.6504 353.893V351.803L83.373 349.742H83.666ZM97.8652 355.67V358.062C97.8652 359.156 97.7546 360.09 97.5332 360.865C97.3118 361.64 96.9928 362.275 96.5762 362.77C96.1595 363.258 95.6615 363.619 95.082 363.854C94.5026 364.081 93.8581 364.195 93.1484 364.195C92.582 364.195 92.0547 364.124 91.5664 363.98C91.0781 363.831 90.6387 363.603 90.248 363.297C89.8639 362.984 89.5319 362.587 89.252 362.105C88.9785 361.624 88.7669 361.048 88.6172 360.377C88.474 359.706 88.4023 358.935 88.4023 358.062V355.67C88.4023 354.576 88.513 353.645 88.7344 352.877C88.9622 352.109 89.2845 351.48 89.7012 350.992C90.1178 350.504 90.6159 350.149 91.1953 349.928C91.7747 349.7 92.4193 349.586 93.1289 349.586C93.7018 349.586 94.2292 349.658 94.7109 349.801C95.1992 349.944 95.6354 350.169 96.0195 350.475C96.4102 350.774 96.7422 351.165 97.0156 351.646C97.2891 352.122 97.4974 352.695 97.6406 353.365C97.7904 354.029 97.8652 354.798 97.8652 355.67ZM95.2871 358.414V355.309C95.2871 354.762 95.2546 354.286 95.1895 353.883C95.1309 353.473 95.043 353.124 94.9258 352.838C94.8086 352.551 94.6621 352.32 94.4863 352.145C94.3105 351.962 94.1087 351.829 93.8809 351.744C93.653 351.66 93.4023 351.617 93.1289 351.617C92.7904 351.617 92.4876 351.686 92.2207 351.822C91.9538 351.952 91.7292 352.161 91.5469 352.447C91.3646 352.734 91.2246 353.115 91.127 353.59C91.0358 354.059 90.9902 354.632 90.9902 355.309V358.414C90.9902 358.961 91.0195 359.439 91.0781 359.85C91.1432 360.26 91.2344 360.611 91.3516 360.904C91.4753 361.197 91.6217 361.438 91.791 361.627C91.9668 361.809 92.1686 361.946 92.3965 362.037C92.6243 362.122 92.875 362.164 93.1484 362.164C93.4935 362.164 93.7962 362.096 94.0566 361.959C94.3236 361.822 94.5482 361.607 94.7305 361.314C94.9128 361.015 95.0495 360.628 95.1406 360.152C95.2383 359.671 95.2871 359.091 95.2871 358.414Z" fill="#A7A7A7"/>
<path d="M157.654 361.969V364H148.025V362.262L152.645 357.271C153.126 356.725 153.507 356.249 153.787 355.846C154.067 355.442 154.266 355.077 154.383 354.752C154.507 354.42 154.568 354.104 154.568 353.805C154.568 353.368 154.49 352.988 154.334 352.662C154.178 352.33 153.95 352.073 153.65 351.891C153.357 351.708 152.996 351.617 152.566 351.617C152.091 351.617 151.684 351.728 151.346 351.949C151.014 352.164 150.76 352.464 150.584 352.848C150.415 353.232 150.33 353.671 150.33 354.166H147.742C147.742 353.326 147.938 352.561 148.328 351.871C148.719 351.174 149.279 350.618 150.008 350.201C150.737 349.785 151.603 349.576 152.605 349.576C153.582 349.576 154.409 349.739 155.086 350.064C155.763 350.383 156.277 350.839 156.629 351.432C156.98 352.024 157.156 352.73 157.156 353.551C157.156 354.007 157.081 354.456 156.932 354.898C156.782 355.341 156.57 355.781 156.297 356.217C156.03 356.646 155.711 357.083 155.34 357.525C154.969 357.968 154.555 358.421 154.1 358.883L151.326 361.969H157.654ZM168.865 355.67V358.062C168.865 359.156 168.755 360.09 168.533 360.865C168.312 361.64 167.993 362.275 167.576 362.77C167.16 363.258 166.661 363.619 166.082 363.854C165.503 364.081 164.858 364.195 164.148 364.195C163.582 364.195 163.055 364.124 162.566 363.98C162.078 363.831 161.639 363.603 161.248 363.297C160.864 362.984 160.532 362.587 160.252 362.105C159.979 361.624 159.767 361.048 159.617 360.377C159.474 359.706 159.402 358.935 159.402 358.062V355.67C159.402 354.576 159.513 353.645 159.734 352.877C159.962 352.109 160.285 351.48 160.701 350.992C161.118 350.504 161.616 350.149 162.195 349.928C162.775 349.7 163.419 349.586 164.129 349.586C164.702 349.586 165.229 349.658 165.711 349.801C166.199 349.944 166.635 350.169 167.02 350.475C167.41 350.774 167.742 351.165 168.016 351.646C168.289 352.122 168.497 352.695 168.641 353.365C168.79 354.029 168.865 354.798 168.865 355.67ZM166.287 358.414V355.309C166.287 354.762 166.255 354.286 166.189 353.883C166.131 353.473 166.043 353.124 165.926 352.838C165.809 352.551 165.662 352.32 165.486 352.145C165.311 351.962 165.109 351.829 164.881 351.744C164.653 351.66 164.402 351.617 164.129 351.617C163.79 351.617 163.488 351.686 163.221 351.822C162.954 351.952 162.729 352.161 162.547 352.447C162.365 352.734 162.225 353.115 162.127 353.59C162.036 354.059 161.99 354.632 161.99 355.309V358.414C161.99 358.961 162.02 359.439 162.078 359.85C162.143 360.26 162.234 360.611 162.352 360.904C162.475 361.197 162.622 361.438 162.791 361.627C162.967 361.809 163.169 361.946 163.396 362.037C163.624 362.122 163.875 362.164 164.148 362.164C164.493 362.164 164.796 362.096 165.057 361.959C165.324 361.822 165.548 361.607 165.73 361.314C165.913 361.015 166.049 360.628 166.141 360.152C166.238 359.671 166.287 359.091 166.287 358.414Z" fill="#A7A7A7"/>
<path d="M221.848 355.748H223.303C223.817 355.748 224.24 355.66 224.572 355.484C224.911 355.302 225.161 355.055 225.324 354.742C225.493 354.423 225.578 354.055 225.578 353.639C225.578 353.229 225.503 352.874 225.354 352.574C225.204 352.268 224.976 352.034 224.67 351.871C224.37 351.702 223.986 351.617 223.518 351.617C223.14 351.617 222.792 351.692 222.473 351.842C222.16 351.992 221.91 352.206 221.721 352.486C221.538 352.76 221.447 353.089 221.447 353.473H218.859C218.859 352.704 219.061 352.031 219.465 351.451C219.875 350.865 220.428 350.406 221.125 350.074C221.822 349.742 222.6 349.576 223.459 349.576C224.396 349.576 225.217 349.732 225.92 350.045C226.63 350.351 227.18 350.803 227.57 351.402C227.967 352.001 228.166 352.743 228.166 353.629C228.166 354.052 228.065 354.475 227.863 354.898C227.668 355.315 227.378 355.693 226.994 356.031C226.617 356.363 226.151 356.633 225.598 356.842C225.051 357.044 224.423 357.145 223.713 357.145H221.848V355.748ZM221.848 357.74V356.363H223.713C224.514 356.363 225.207 356.458 225.793 356.646C226.385 356.829 226.874 357.089 227.258 357.428C227.642 357.76 227.925 358.147 228.107 358.59C228.296 359.033 228.391 359.508 228.391 360.016C228.391 360.68 228.267 361.272 228.02 361.793C227.772 362.307 227.424 362.743 226.975 363.102C226.532 363.46 226.011 363.733 225.412 363.922C224.813 364.104 224.165 364.195 223.469 364.195C222.863 364.195 222.274 364.114 221.701 363.951C221.135 363.782 220.624 363.531 220.168 363.199C219.712 362.861 219.351 362.438 219.084 361.93C218.817 361.415 218.684 360.82 218.684 360.143H221.271C221.271 360.533 221.366 360.882 221.555 361.188C221.75 361.493 222.017 361.734 222.355 361.91C222.701 362.079 223.088 362.164 223.518 362.164C223.993 362.164 224.4 362.079 224.738 361.91C225.083 361.734 225.347 361.487 225.529 361.168C225.712 360.842 225.803 360.455 225.803 360.006C225.803 359.472 225.702 359.039 225.5 358.707C225.298 358.375 225.008 358.131 224.631 357.975C224.26 357.818 223.817 357.74 223.303 357.74H221.848ZM239.865 355.67V358.062C239.865 359.156 239.755 360.09 239.533 360.865C239.312 361.64 238.993 362.275 238.576 362.77C238.16 363.258 237.661 363.619 237.082 363.854C236.503 364.081 235.858 364.195 235.148 364.195C234.582 364.195 234.055 364.124 233.566 363.98C233.078 363.831 232.639 363.603 232.248 363.297C231.864 362.984 231.532 362.587 231.252 362.105C230.979 361.624 230.767 361.048 230.617 360.377C230.474 359.706 230.402 358.935 230.402 358.062V355.67C230.402 354.576 230.513 353.645 230.734 352.877C230.962 352.109 231.285 351.48 231.701 350.992C232.118 350.504 232.616 350.149 233.195 349.928C233.775 349.7 234.419 349.586 235.129 349.586C235.702 349.586 236.229 349.658 236.711 349.801C237.199 349.944 237.635 350.169 238.02 350.475C238.41 350.774 238.742 351.165 239.016 351.646C239.289 352.122 239.497 352.695 239.641 353.365C239.79 354.029 239.865 354.798 239.865 355.67ZM237.287 358.414V355.309C237.287 354.762 237.255 354.286 237.189 353.883C237.131 353.473 237.043 353.124 236.926 352.838C236.809 352.551 236.662 352.32 236.486 352.145C236.311 351.962 236.109 351.829 235.881 351.744C235.653 351.66 235.402 351.617 235.129 351.617C234.79 351.617 234.488 351.686 234.221 351.822C233.954 351.952 233.729 352.161 233.547 352.447C233.365 352.734 233.225 353.115 233.127 353.59C233.036 354.059 232.99 354.632 232.99 355.309V358.414C232.99 358.961 233.02 359.439 233.078 359.85C233.143 360.26 233.234 360.611 233.352 360.904C233.475 361.197 233.622 361.438 233.791 361.627C233.967 361.809 234.169 361.946 234.396 362.037C234.624 362.122 234.875 362.164 235.148 362.164C235.493 362.164 235.796 362.096 236.057 361.959C236.324 361.822 236.548 361.607 236.73 361.314C236.913 361.015 237.049 360.628 237.141 360.152C237.238 359.671 237.287 359.091 237.287 358.414Z" fill="#A7A7A7"/>
<path d="M299.898 358.814V360.846H289.654L289.547 359.283L295.572 349.781H297.633L295.406 353.561L292.174 358.814H299.898ZM298.209 349.781V364H295.621V349.781H298.209ZM310.865 355.67V358.062C310.865 359.156 310.755 360.09 310.533 360.865C310.312 361.64 309.993 362.275 309.576 362.77C309.16 363.258 308.661 363.619 308.082 363.854C307.503 364.081 306.858 364.195 306.148 364.195C305.582 364.195 305.055 364.124 304.566 363.98C304.078 363.831 303.639 363.603 303.248 363.297C302.864 362.984 302.532 362.587 302.252 362.105C301.979 361.624 301.767 361.048 301.617 360.377C301.474 359.706 301.402 358.935 301.402 358.062V355.67C301.402 354.576 301.513 353.645 301.734 352.877C301.962 352.109 302.285 351.48 302.701 350.992C303.118 350.504 303.616 350.149 304.195 349.928C304.775 349.7 305.419 349.586 306.129 349.586C306.702 349.586 307.229 349.658 307.711 349.801C308.199 349.944 308.635 350.169 309.02 350.475C309.41 350.774 309.742 351.165 310.016 351.646C310.289 352.122 310.497 352.695 310.641 353.365C310.79 354.029 310.865 354.798 310.865 355.67ZM308.287 358.414V355.309C308.287 354.762 308.255 354.286 308.189 353.883C308.131 353.473 308.043 353.124 307.926 352.838C307.809 352.551 307.662 352.32 307.486 352.145C307.311 351.962 307.109 351.829 306.881 351.744C306.653 351.66 306.402 351.617 306.129 351.617C305.79 351.617 305.488 351.686 305.221 351.822C304.954 351.952 304.729 352.161 304.547 352.447C304.365 352.734 304.225 353.115 304.127 353.59C304.036 354.059 303.99 354.632 303.99 355.309V358.414C303.99 358.961 304.02 359.439 304.078 359.85C304.143 360.26 304.234 360.611 304.352 360.904C304.475 361.197 304.622 361.438 304.791 361.627C304.967 361.809 305.169 361.946 305.396 362.037C305.624 362.122 305.875 362.164 306.148 362.164C306.493 362.164 306.796 362.096 307.057 361.959C307.324 361.822 307.548 361.607 307.73 361.314C307.913 361.015 308.049 360.628 308.141 360.152C308.238 359.671 308.287 359.091 308.287 358.414Z" fill="#A7A7A7"/>
<path d="M363.584 357.457L361.523 356.959L362.314 349.781H370.137V351.92H364.453L364.082 355.24C364.284 355.117 364.577 354.993 364.961 354.869C365.352 354.739 365.791 354.674 366.279 354.674C366.956 354.674 367.562 354.785 368.096 355.006C368.63 355.221 369.082 355.533 369.453 355.943C369.831 356.354 370.114 356.855 370.303 357.447C370.498 358.033 370.596 358.697 370.596 359.439C370.596 360.09 370.498 360.702 370.303 361.275C370.114 361.842 369.824 362.346 369.434 362.789C369.043 363.225 368.551 363.57 367.959 363.824C367.367 364.072 366.67 364.195 365.869 364.195C365.264 364.195 364.681 364.107 364.121 363.932C363.568 363.749 363.07 363.486 362.627 363.141C362.184 362.789 361.829 362.359 361.562 361.852C361.302 361.344 361.159 360.761 361.133 360.104H363.682C363.727 360.54 363.844 360.911 364.033 361.217C364.222 361.523 364.469 361.757 364.775 361.92C365.088 362.083 365.449 362.164 365.859 362.164C366.23 362.164 366.549 362.096 366.816 361.959C367.09 361.816 367.314 361.617 367.49 361.363C367.666 361.109 367.796 360.81 367.881 360.465C367.965 360.12 368.008 359.742 368.008 359.332C368.008 358.935 367.959 358.574 367.861 358.248C367.764 357.916 367.614 357.63 367.412 357.389C367.21 357.148 366.956 356.962 366.65 356.832C366.351 356.702 365.999 356.637 365.596 356.637C365.055 356.637 364.639 356.718 364.346 356.881C364.059 357.044 363.805 357.236 363.584 357.457ZM381.865 355.67V358.062C381.865 359.156 381.755 360.09 381.533 360.865C381.312 361.64 380.993 362.275 380.576 362.77C380.16 363.258 379.661 363.619 379.082 363.854C378.503 364.081 377.858 364.195 377.148 364.195C376.582 364.195 376.055 364.124 375.566 363.98C375.078 363.831 374.639 363.603 374.248 363.297C373.864 362.984 373.532 362.587 373.252 362.105C372.979 361.624 372.767 361.048 372.617 360.377C372.474 359.706 372.402 358.935 372.402 358.062V355.67C372.402 354.576 372.513 353.645 372.734 352.877C372.962 352.109 373.285 351.48 373.701 350.992C374.118 350.504 374.616 350.149 375.195 349.928C375.775 349.7 376.419 349.586 377.129 349.586C377.702 349.586 378.229 349.658 378.711 349.801C379.199 349.944 379.635 350.169 380.02 350.475C380.41 350.774 380.742 351.165 381.016 351.646C381.289 352.122 381.497 352.695 381.641 353.365C381.79 354.029 381.865 354.798 381.865 355.67ZM379.287 358.414V355.309C379.287 354.762 379.255 354.286 379.189 353.883C379.131 353.473 379.043 353.124 378.926 352.838C378.809 352.551 378.662 352.32 378.486 352.145C378.311 351.962 378.109 351.829 377.881 351.744C377.653 351.66 377.402 351.617 377.129 351.617C376.79 351.617 376.488 351.686 376.221 351.822C375.954 351.952 375.729 352.161 375.547 352.447C375.365 352.734 375.225 353.115 375.127 353.59C375.036 354.059 374.99 354.632 374.99 355.309V358.414C374.99 358.961 375.02 359.439 375.078 359.85C375.143 360.26 375.234 360.611 375.352 360.904C375.475 361.197 375.622 361.438 375.791 361.627C375.967 361.809 376.169 361.946 376.396 362.037C376.624 362.122 376.875 362.164 377.148 362.164C377.493 362.164 377.796 362.096 378.057 361.959C378.324 361.822 378.548 361.607 378.73 361.314C378.913 361.015 379.049 360.628 379.141 360.152C379.238 359.671 379.287 359.091 379.287 358.414Z" fill="#A7A7A7"/>
<path d="M439.203 349.664H439.555V351.744H439.389C438.601 351.744 437.908 351.865 437.309 352.105C436.716 352.346 436.221 352.685 435.824 353.121C435.434 353.551 435.137 354.062 434.936 354.654C434.734 355.24 434.633 355.882 434.633 356.578V358.883C434.633 359.423 434.688 359.898 434.799 360.309C434.916 360.712 435.076 361.054 435.277 361.334C435.486 361.607 435.727 361.812 436 361.949C436.28 362.086 436.586 362.154 436.918 362.154C437.25 362.154 437.549 362.086 437.816 361.949C438.083 361.812 438.311 361.62 438.5 361.373C438.695 361.119 438.842 360.823 438.939 360.484C439.044 360.146 439.096 359.775 439.096 359.371C439.096 358.974 439.047 358.606 438.949 358.268C438.852 357.929 438.708 357.633 438.52 357.379C438.331 357.118 438.096 356.92 437.816 356.783C437.543 356.64 437.23 356.568 436.879 356.568C436.423 356.568 436.016 356.676 435.658 356.891C435.3 357.099 435.017 357.372 434.809 357.711C434.6 358.049 434.486 358.408 434.467 358.785L433.598 358.355C433.63 357.802 433.747 357.294 433.949 356.832C434.158 356.37 434.434 355.966 434.779 355.621C435.131 355.276 435.544 355.009 436.02 354.82C436.501 354.632 437.035 354.537 437.621 354.537C438.298 354.537 438.891 354.667 439.398 354.928C439.906 355.182 440.326 355.53 440.658 355.973C440.997 356.415 441.251 356.926 441.42 357.506C441.589 358.079 441.674 358.684 441.674 359.322C441.674 360.006 441.563 360.644 441.342 361.236C441.127 361.829 440.814 362.346 440.404 362.789C439.994 363.232 439.499 363.577 438.92 363.824C438.34 364.072 437.689 364.195 436.967 364.195C436.205 364.195 435.521 364.052 434.916 363.766C434.317 363.479 433.803 363.082 433.373 362.574C432.943 362.066 432.615 361.474 432.387 360.797C432.159 360.12 432.045 359.387 432.045 358.6V357.564C432.045 356.451 432.198 355.416 432.504 354.459C432.81 353.502 433.262 352.665 433.861 351.949C434.467 351.227 435.215 350.667 436.107 350.27C436.999 349.866 438.031 349.664 439.203 349.664ZM452.865 355.67V358.062C452.865 359.156 452.755 360.09 452.533 360.865C452.312 361.64 451.993 362.275 451.576 362.77C451.16 363.258 450.661 363.619 450.082 363.854C449.503 364.081 448.858 364.195 448.148 364.195C447.582 364.195 447.055 364.124 446.566 363.98C446.078 363.831 445.639 363.603 445.248 363.297C444.864 362.984 444.532 362.587 444.252 362.105C443.979 361.624 443.767 361.048 443.617 360.377C443.474 359.706 443.402 358.935 443.402 358.062V355.67C443.402 354.576 443.513 353.645 443.734 352.877C443.962 352.109 444.285 351.48 444.701 350.992C445.118 350.504 445.616 350.149 446.195 349.928C446.775 349.7 447.419 349.586 448.129 349.586C448.702 349.586 449.229 349.658 449.711 349.801C450.199 349.944 450.635 350.169 451.02 350.475C451.41 350.774 451.742 351.165 452.016 351.646C452.289 352.122 452.497 352.695 452.641 353.365C452.79 354.029 452.865 354.798 452.865 355.67ZM450.287 358.414V355.309C450.287 354.762 450.255 354.286 450.189 353.883C450.131 353.473 450.043 353.124 449.926 352.838C449.809 352.551 449.662 352.32 449.486 352.145C449.311 351.962 449.109 351.829 448.881 351.744C448.653 351.66 448.402 351.617 448.129 351.617C447.79 351.617 447.488 351.686 447.221 351.822C446.954 351.952 446.729 352.161 446.547 352.447C446.365 352.734 446.225 353.115 446.127 353.59C446.036 354.059 445.99 354.632 445.99 355.309V358.414C445.99 358.961 446.02 359.439 446.078 359.85C446.143 360.26 446.234 360.611 446.352 360.904C446.475 361.197 446.622 361.438 446.791 361.627C446.967 361.809 447.169 361.946 447.396 362.037C447.624 362.122 447.875 362.164 448.148 362.164C448.493 362.164 448.796 362.096 449.057 361.959C449.324 361.822 449.548 361.607 449.73 361.314C449.913 361.015 450.049 360.628 450.141 360.152C450.238 359.671 450.287 359.091 450.287 358.414Z" fill="#A7A7A7"/>
<path d="M512.576 349.781V351.188L506.99 364H504.266L509.852 351.812H502.625V349.781H512.576ZM523.865 355.67V358.062C523.865 359.156 523.755 360.09 523.533 360.865C523.312 361.64 522.993 362.275 522.576 362.77C522.16 363.258 521.661 363.619 521.082 363.854C520.503 364.081 519.858 364.195 519.148 364.195C518.582 364.195 518.055 364.124 517.566 363.98C517.078 363.831 516.639 363.603 516.248 363.297C515.864 362.984 515.532 362.587 515.252 362.105C514.979 361.624 514.767 361.048 514.617 360.377C514.474 359.706 514.402 358.935 514.402 358.062V355.67C514.402 354.576 514.513 353.645 514.734 352.877C514.962 352.109 515.285 351.48 515.701 350.992C516.118 350.504 516.616 350.149 517.195 349.928C517.775 349.7 518.419 349.586 519.129 349.586C519.702 349.586 520.229 349.658 520.711 349.801C521.199 349.944 521.635 350.169 522.02 350.475C522.41 350.774 522.742 351.165 523.016 351.646C523.289 352.122 523.497 352.695 523.641 353.365C523.79 354.029 523.865 354.798 523.865 355.67ZM521.287 358.414V355.309C521.287 354.762 521.255 354.286 521.189 353.883C521.131 353.473 521.043 353.124 520.926 352.838C520.809 352.551 520.662 352.32 520.486 352.145C520.311 351.962 520.109 351.829 519.881 351.744C519.653 351.66 519.402 351.617 519.129 351.617C518.79 351.617 518.488 351.686 518.221 351.822C517.954 351.952 517.729 352.161 517.547 352.447C517.365 352.734 517.225 353.115 517.127 353.59C517.036 354.059 516.99 354.632 516.99 355.309V358.414C516.99 358.961 517.02 359.439 517.078 359.85C517.143 360.26 517.234 360.611 517.352 360.904C517.475 361.197 517.622 361.438 517.791 361.627C517.967 361.809 518.169 361.946 518.396 362.037C518.624 362.122 518.875 362.164 519.148 362.164C519.493 362.164 519.796 362.096 520.057 361.959C520.324 361.822 520.548 361.607 520.73 361.314C520.913 361.015 521.049 360.628 521.141 360.152C521.238 359.671 521.287 359.091 521.287 358.414Z" fill="#A7A7A7"/>
<path d="M146.028 259.105C130.646 261.715 84.5 333 84.5 333H527.5V99C527.5 99 484.431 186.634 472.125 188.289C459.819 189.945 432.132 132.247 413.674 132.868C395.215 133.489 367.528 240.011 349.069 240.632C330.611 241.253 302.924 188.289 284.465 188.289C266.007 188.289 233.458 292.554 215 295C196.542 297.446 167.562 255.451 146.028 259.105Z" fill="url(#paint0_linear_1_331)" fill-opacity="0.4"/>
<path d="M84 330C84 330 130.646 261.715 146.028 259.105C167.562 255.451 191 294.5 213.5 294.5C236 294.5 266.007 188.289 284.465 188.289C302.924 188.289 330.611 241.253 349.069 240.632C367.528 240.011 395.215 133.489 413.674 132.868C432.132 132.247 459.819 189.945 472.125 188.289C484.431 186.634 524.5 98.5 524.5 98.5" stroke="#20B9B0" stroke-width="6" stroke-linecap="round"/>
<path d="M150.5 207L150.5 333" stroke="#FF8181" stroke-width="2.2" stroke-linecap="round" stroke-dasharray="5 5"/>
<circle cx="150" cy="259.5" r="9.5" fill="#FF8181"/>
<circle cx="150" cy="259.5" r="5.5" fill="#FCDADA"/>
<rect x="112.5" y="200" width="79" height="31" rx="2" fill="#FF8181"/>
<path d="M137.154 219.969V222H127.525V220.262L132.145 215.271C132.626 214.725 133.007 214.249 133.287 213.846C133.567 213.442 133.766 213.077 133.883 212.752C134.007 212.42 134.068 212.104 134.068 211.805C134.068 211.368 133.99 210.988 133.834 210.662C133.678 210.33 133.45 210.073 133.15 209.891C132.857 209.708 132.496 209.617 132.066 209.617C131.591 209.617 131.184 209.728 130.846 209.949C130.514 210.164 130.26 210.464 130.084 210.848C129.915 211.232 129.83 211.671 129.83 212.166H127.242C127.242 211.326 127.438 210.561 127.828 209.871C128.219 209.174 128.779 208.618 129.508 208.201C130.237 207.785 131.103 207.576 132.105 207.576C133.082 207.576 133.909 207.739 134.586 208.064C135.263 208.383 135.777 208.839 136.129 209.432C136.48 210.024 136.656 210.73 136.656 211.551C136.656 212.007 136.581 212.456 136.432 212.898C136.282 213.341 136.07 213.781 135.797 214.217C135.53 214.646 135.211 215.083 134.84 215.525C134.469 215.968 134.055 216.421 133.6 216.883L130.826 219.969H137.154ZM148.824 216.814V218.846H138.58L138.473 217.283L144.498 207.781H146.559L144.332 211.561L141.1 216.814H148.824ZM147.135 207.781V222H144.547V207.781H147.135ZM150.621 220.74C150.621 220.35 150.755 220.021 151.021 219.754C151.288 219.487 151.65 219.354 152.105 219.354C152.561 219.354 152.923 219.487 153.189 219.754C153.456 220.021 153.59 220.35 153.59 220.74C153.59 221.124 153.456 221.45 153.189 221.717C152.923 221.977 152.561 222.107 152.105 222.107C151.65 222.107 151.288 221.977 151.021 221.717C150.755 221.45 150.621 221.124 150.621 220.74ZM165.475 213.67V216.062C165.475 217.156 165.364 218.09 165.143 218.865C164.921 219.64 164.602 220.275 164.186 220.77C163.769 221.258 163.271 221.619 162.691 221.854C162.112 222.081 161.467 222.195 160.758 222.195C160.191 222.195 159.664 222.124 159.176 221.98C158.688 221.831 158.248 221.603 157.857 221.297C157.473 220.984 157.141 220.587 156.861 220.105C156.588 219.624 156.376 219.048 156.227 218.377C156.083 217.706 156.012 216.935 156.012 216.062V213.67C156.012 212.576 156.122 211.645 156.344 210.877C156.572 210.109 156.894 209.48 157.311 208.992C157.727 208.504 158.225 208.149 158.805 207.928C159.384 207.7 160.029 207.586 160.738 207.586C161.311 207.586 161.839 207.658 162.32 207.801C162.809 207.944 163.245 208.169 163.629 208.475C164.02 208.774 164.352 209.165 164.625 209.646C164.898 210.122 165.107 210.695 165.25 211.365C165.4 212.029 165.475 212.798 165.475 213.67ZM162.896 216.414V213.309C162.896 212.762 162.864 212.286 162.799 211.883C162.74 211.473 162.652 211.124 162.535 210.838C162.418 210.551 162.271 210.32 162.096 210.145C161.92 209.962 161.718 209.829 161.49 209.744C161.262 209.66 161.012 209.617 160.738 209.617C160.4 209.617 160.097 209.686 159.83 209.822C159.563 209.952 159.339 210.161 159.156 210.447C158.974 210.734 158.834 211.115 158.736 211.59C158.645 212.059 158.6 212.632 158.6 213.309V216.414C158.6 216.961 158.629 217.439 158.688 217.85C158.753 218.26 158.844 218.611 158.961 218.904C159.085 219.197 159.231 219.438 159.4 219.627C159.576 219.809 159.778 219.946 160.006 220.037C160.234 220.122 160.484 220.164 160.758 220.164C161.103 220.164 161.406 220.096 161.666 219.959C161.933 219.822 162.158 219.607 162.34 219.314C162.522 219.015 162.659 218.628 162.75 218.152C162.848 217.671 162.896 217.091 162.896 216.414ZM176.92 218.113C176.92 218.999 176.712 219.747 176.295 220.359C175.885 220.965 175.322 221.424 174.605 221.736C173.896 222.042 173.089 222.195 172.184 222.195C171.285 222.195 170.475 222.042 169.752 221.736C169.036 221.424 168.466 220.965 168.043 220.359C167.626 219.747 167.418 218.999 167.418 218.113C167.418 217.521 167.535 216.984 167.77 216.502C168.01 216.02 168.342 215.607 168.766 215.262C169.189 214.91 169.69 214.643 170.27 214.461C170.849 214.272 171.48 214.178 172.164 214.178C173.076 214.178 173.889 214.344 174.605 214.676C175.328 215.001 175.895 215.46 176.305 216.053C176.715 216.639 176.92 217.326 176.92 218.113ZM174.322 217.957C174.322 217.501 174.231 217.107 174.049 216.775C173.873 216.437 173.622 216.176 173.297 215.994C172.971 215.812 172.594 215.721 172.164 215.721C171.728 215.721 171.347 215.812 171.021 215.994C170.702 216.176 170.452 216.437 170.27 216.775C170.094 217.107 170.006 217.501 170.006 217.957C170.006 218.419 170.094 218.816 170.27 219.148C170.452 219.474 170.706 219.725 171.031 219.9C171.357 220.076 171.741 220.164 172.184 220.164C172.626 220.164 173.007 220.076 173.326 219.9C173.645 219.725 173.889 219.474 174.059 219.148C174.234 218.816 174.322 218.419 174.322 217.957ZM176.607 211.531C176.607 212.247 176.419 212.885 176.041 213.445C175.663 213.999 175.139 214.432 174.469 214.744C173.805 215.057 173.043 215.213 172.184 215.213C171.324 215.213 170.556 215.057 169.879 214.744C169.208 214.432 168.681 213.999 168.297 213.445C167.919 212.885 167.73 212.247 167.73 211.531C167.73 210.685 167.923 209.969 168.307 209.383C168.691 208.79 169.215 208.341 169.879 208.035C170.549 207.729 171.311 207.576 172.164 207.576C173.03 207.576 173.798 207.729 174.469 208.035C175.139 208.341 175.663 208.79 176.041 209.383C176.419 209.969 176.607 210.685 176.607 211.531ZM174.029 211.639C174.029 211.235 173.954 210.883 173.805 210.584C173.655 210.278 173.44 210.04 173.16 209.871C172.887 209.702 172.555 209.617 172.164 209.617C171.786 209.617 171.461 209.699 171.188 209.861C170.914 210.024 170.702 210.258 170.553 210.564C170.403 210.864 170.328 211.222 170.328 211.639C170.328 212.049 170.403 212.407 170.553 212.713C170.702 213.019 170.914 213.26 171.188 213.436C171.467 213.605 171.799 213.689 172.184 213.689C172.568 213.689 172.896 213.605 173.17 213.436C173.443 213.26 173.655 213.019 173.805 212.713C173.954 212.407 174.029 212.049 174.029 211.639Z" fill="white"/>
<path d="M414.5 110L414.5 333" stroke="#37D9D0" stroke-width="2.2" stroke-linecap="round" stroke-dasharray="5 5"/>
<rect x="374.5" y="82" width="79" height="33" rx="2" fill="#20B2AA"/>
<path d="M399.398 99.8145V101.846H389.154L389.047 100.283L395.072 90.7812H397.133L394.906 94.5605L391.674 99.8145H399.398ZM397.709 90.7812V105H395.121V90.7812H397.709ZM410.385 101.113C410.385 101.999 410.176 102.747 409.76 103.359C409.35 103.965 408.786 104.424 408.07 104.736C407.361 105.042 406.553 105.195 405.648 105.195C404.75 105.195 403.939 105.042 403.217 104.736C402.501 104.424 401.931 103.965 401.508 103.359C401.091 102.747 400.883 101.999 400.883 101.113C400.883 100.521 401 99.9837 401.234 99.502C401.475 99.0202 401.807 98.6068 402.23 98.2617C402.654 97.9102 403.155 97.6432 403.734 97.4609C404.314 97.2721 404.945 97.1777 405.629 97.1777C406.54 97.1777 407.354 97.3438 408.07 97.6758C408.793 98.0013 409.359 98.4603 409.77 99.0527C410.18 99.6387 410.385 100.326 410.385 101.113ZM407.787 100.957C407.787 100.501 407.696 100.107 407.514 99.7754C407.338 99.4368 407.087 99.1764 406.762 98.9941C406.436 98.8118 406.059 98.7207 405.629 98.7207C405.193 98.7207 404.812 98.8118 404.486 98.9941C404.167 99.1764 403.917 99.4368 403.734 99.7754C403.559 100.107 403.471 100.501 403.471 100.957C403.471 101.419 403.559 101.816 403.734 102.148C403.917 102.474 404.171 102.725 404.496 102.9C404.822 103.076 405.206 103.164 405.648 103.164C406.091 103.164 406.472 103.076 406.791 102.9C407.11 102.725 407.354 102.474 407.523 102.148C407.699 101.816 407.787 101.419 407.787 100.957ZM410.072 94.5312C410.072 95.2474 409.883 95.8854 409.506 96.4453C409.128 96.9987 408.604 97.4316 407.934 97.7441C407.27 98.0566 406.508 98.2129 405.648 98.2129C404.789 98.2129 404.021 98.0566 403.344 97.7441C402.673 97.4316 402.146 96.9987 401.762 96.4453C401.384 95.8854 401.195 95.2474 401.195 94.5312C401.195 93.6849 401.387 92.9688 401.771 92.3828C402.156 91.7904 402.68 91.3411 403.344 91.0352C404.014 90.7292 404.776 90.5762 405.629 90.5762C406.495 90.5762 407.263 90.7292 407.934 91.0352C408.604 91.3411 409.128 91.7904 409.506 92.3828C409.883 92.9688 410.072 93.6849 410.072 94.5312ZM407.494 94.6387C407.494 94.235 407.419 93.8835 407.27 93.584C407.12 93.278 406.905 93.0404 406.625 92.8711C406.352 92.7018 406.02 92.6172 405.629 92.6172C405.251 92.6172 404.926 92.6986 404.652 92.8613C404.379 93.0241 404.167 93.2585 404.018 93.5645C403.868 93.8639 403.793 94.222 403.793 94.6387C403.793 95.0488 403.868 95.4069 404.018 95.7129C404.167 96.0189 404.379 96.2598 404.652 96.4355C404.932 96.6048 405.264 96.6895 405.648 96.6895C406.033 96.6895 406.361 96.6048 406.635 96.4355C406.908 96.2598 407.12 96.0189 407.27 95.7129C407.419 95.4069 407.494 95.0488 407.494 94.6387ZM412.621 103.74C412.621 103.35 412.755 103.021 413.021 102.754C413.288 102.487 413.65 102.354 414.105 102.354C414.561 102.354 414.923 102.487 415.189 102.754C415.456 103.021 415.59 103.35 415.59 103.74C415.59 104.124 415.456 104.45 415.189 104.717C414.923 104.977 414.561 105.107 414.105 105.107C413.65 105.107 413.288 104.977 413.021 104.717C412.755 104.45 412.621 104.124 412.621 103.74ZM427.475 96.6699V99.0625C427.475 100.156 427.364 101.09 427.143 101.865C426.921 102.64 426.602 103.275 426.186 103.77C425.769 104.258 425.271 104.619 424.691 104.854C424.112 105.081 423.467 105.195 422.758 105.195C422.191 105.195 421.664 105.124 421.176 104.98C420.688 104.831 420.248 104.603 419.857 104.297C419.473 103.984 419.141 103.587 418.861 103.105C418.588 102.624 418.376 102.048 418.227 101.377C418.083 100.706 418.012 99.9349 418.012 99.0625V96.6699C418.012 95.5762 418.122 94.6452 418.344 93.877C418.572 93.1087 418.894 92.4805 419.311 91.9922C419.727 91.5039 420.225 91.1491 420.805 90.9277C421.384 90.6999 422.029 90.5859 422.738 90.5859C423.311 90.5859 423.839 90.6576 424.32 90.8008C424.809 90.944 425.245 91.1686 425.629 91.4746C426.02 91.7741 426.352 92.1647 426.625 92.6465C426.898 93.1217 427.107 93.6947 427.25 94.3652C427.4 95.0293 427.475 95.7975 427.475 96.6699ZM424.896 99.4141V96.3086C424.896 95.7617 424.864 95.2865 424.799 94.8828C424.74 94.4727 424.652 94.1243 424.535 93.8379C424.418 93.5514 424.271 93.3203 424.096 93.1445C423.92 92.9622 423.718 92.8288 423.49 92.7441C423.262 92.6595 423.012 92.6172 422.738 92.6172C422.4 92.6172 422.097 92.6855 421.83 92.8223C421.563 92.9525 421.339 93.1608 421.156 93.4473C420.974 93.7337 420.834 94.1146 420.736 94.5898C420.645 95.0586 420.6 95.6315 420.6 96.3086V99.4141C420.6 99.9609 420.629 100.439 420.688 100.85C420.753 101.26 420.844 101.611 420.961 101.904C421.085 102.197 421.231 102.438 421.4 102.627C421.576 102.809 421.778 102.946 422.006 103.037C422.234 103.122 422.484 103.164 422.758 103.164C423.103 103.164 423.406 103.096 423.666 102.959C423.933 102.822 424.158 102.607 424.34 102.314C424.522 102.015 424.659 101.628 424.75 101.152C424.848 100.671 424.896 100.091 424.896 99.4141ZM431.43 102.998H431.615C432.455 102.998 433.165 102.891 433.744 102.676C434.33 102.461 434.802 102.158 435.16 101.768C435.525 101.37 435.788 100.898 435.951 100.352C436.12 99.7982 436.205 99.1862 436.205 98.5156V95.9375C436.205 95.3906 436.15 94.9121 436.039 94.502C435.928 94.0853 435.772 93.737 435.57 93.457C435.375 93.1771 435.144 92.9688 434.877 92.832C434.61 92.6888 434.324 92.6172 434.018 92.6172C433.679 92.6172 433.38 92.6953 433.119 92.8516C432.859 93.0078 432.637 93.2227 432.455 93.4961C432.279 93.763 432.143 94.0723 432.045 94.4238C431.954 94.7754 431.908 95.1465 431.908 95.5371C431.908 95.9147 431.951 96.276 432.035 96.6211C432.126 96.9661 432.26 97.2721 432.436 97.5391C432.618 97.806 432.846 98.0176 433.119 98.1738C433.393 98.3236 433.712 98.3984 434.076 98.3984C434.421 98.3984 434.734 98.3333 435.014 98.2031C435.3 98.0664 435.548 97.8874 435.756 97.666C435.964 97.4382 436.124 97.1875 436.234 96.9141C436.352 96.6341 436.417 96.3509 436.43 96.0645L437.338 96.4551C437.338 96.9303 437.237 97.3991 437.035 97.8613C436.84 98.3236 436.563 98.7435 436.205 99.1211C435.854 99.4922 435.443 99.7917 434.975 100.02C434.506 100.241 434.001 100.352 433.461 100.352C432.79 100.352 432.198 100.228 431.684 99.9805C431.169 99.7331 430.736 99.3913 430.385 98.9551C430.04 98.5124 429.779 98.0046 429.604 97.4316C429.428 96.8522 429.34 96.2337 429.34 95.5762C429.34 94.8926 429.447 94.2513 429.662 93.6523C429.877 93.0469 430.186 92.5163 430.59 92.0605C431 91.5983 431.495 91.237 432.074 90.9766C432.654 90.7096 433.305 90.5762 434.027 90.5762C434.776 90.5762 435.443 90.7227 436.029 91.0156C436.615 91.3086 437.113 91.7155 437.523 92.2363C437.934 92.7507 438.246 93.3594 438.461 94.0625C438.682 94.7656 438.793 95.5339 438.793 96.3672V97.2754C438.793 98.1543 438.705 98.9876 438.529 99.7754C438.354 100.563 438.083 101.283 437.719 101.934C437.354 102.585 436.889 103.148 436.322 103.623C435.762 104.098 435.092 104.466 434.311 104.727C433.536 104.98 432.65 105.107 431.654 105.107H431.43V102.998Z" fill="white"/>
<circle cx="414" cy="131.5" r="9.5" fill="#20B2AA"/>
<circle cx="414" cy="131.5" r="5.5" fill="#DAFCFA"/>
<defs>
<filter id="filter0_d_1_331" x="0" y="0" width="641" height="480" filterUnits="userSpaceOnUse" color-interpolation-filters="sRGB">
<feFlood flood-opacity="0" result="BackgroundImageFix"/>
<feColorMatrix in="SourceAlpha" type="matrix" values="0 0 0 0 0 0 0 0 0 0 0 0 0 0 0 0 0 0 127 0" result="hardAlpha"/>
<feOffset dx="15" dy="20"/>
<feGaussianBlur stdDeviation="30"/>
<feComposite in2="hardAlpha" operator="out"/>
<feColorMatrix type="matrix" values="0 0 0 0 0 0 0 0 0 0 0 0 0 0 0 0 0 0 0.08 0"/>
<feBlend mode="normal" in2="BackgroundImageFix" result="effect1_dropShadow_1_331"/>
<feBlend mode="normal" in="SourceGraphic" in2="effect1_dropShadow_1_331" result="shape"/>
</filter>
<linearGradient id="paint0_linear_1_331" x1="259" y1="161.5" x2="286" y2="319.5" gradientUnits="userSpaceOnUse">
<stop stop-color="#47FFF5"/>
<stop offset="1" stop-color="#20B2AA" stop-opacity="0"/>
</linearGradient>
</defs>
</svg>
