<svg width="39" height="39" viewBox="0 0 39 39" fill="none" xmlns="http://www.w3.org/2000/svg">
<rect width="39" height="39" rx="4" fill="#FFABAB"/>
<g clip-path="url(#clip0_1_178)">
<path d="M25.7128 19.9999H20.9998C20.4694 19.9999 19.9607 19.7892 19.5856 19.4141C19.2105 19.039 18.9998 18.5303 18.9998 17.9999V13.2739C19.0012 12.8139 18.8967 12.3597 18.6945 11.9465C18.4924 11.5333 18.1979 11.1721 17.8338 10.8909C17.4889 10.6177 17.0857 10.4275 16.6555 10.3349C16.2253 10.2423 15.7796 10.2498 15.3528 10.3569C12.9285 10.9587 10.7821 12.37 9.26879 14.3573C7.75543 16.3446 6.96569 18.7889 7.03018 21.286C7.09466 23.783 8.00951 26.1833 9.62342 28.0899C11.2373 29.9964 13.4536 31.295 15.9058 31.7709C18.6629 32.2986 21.5175 31.7523 23.8849 30.2438C26.2523 28.7353 27.9534 26.3788 28.6398 23.6569C28.7473 23.2295 28.7551 22.7832 28.6627 22.3523C28.5703 21.9215 28.3801 21.5176 28.1068 21.1719C27.8223 20.8083 27.459 20.514 27.0444 20.311C26.6297 20.108 26.1745 20.0017 25.7128 19.9999ZM26.7008 23.1679C26.3179 24.7098 25.5324 26.1223 24.4245 27.2609C23.3166 28.3996 21.9261 29.2235 20.3953 29.6485C18.8645 30.0734 17.2483 30.0842 15.712 29.6796C14.1757 29.275 12.7744 28.4696 11.6515 27.3457C10.5286 26.2219 9.72436 24.8199 9.32104 23.2833C8.91771 21.7466 8.92978 20.1304 9.35602 18.6C9.78225 17.0695 10.6073 15.6798 11.7469 14.5728C12.8865 13.4659 14.2996 12.6815 15.8418 12.2999C15.9738 12.2669 16.1116 12.2653 16.2442 12.2952C16.3769 12.3251 16.5007 12.3856 16.6058 12.4719C16.7299 12.5665 16.8305 12.6884 16.8999 12.8282C16.9693 12.968 17.0055 13.1218 17.0058 13.2779V17.9999C17.0058 19.0608 17.4272 20.0782 18.1774 20.8283C18.9275 21.5785 19.945 21.9999 21.0058 21.9999H25.7178C25.8752 22.0005 26.0304 22.0369 26.1718 22.1061C26.3131 22.1754 26.4369 22.2759 26.5338 22.3999C26.6188 22.5064 26.678 22.6312 26.7068 22.7644C26.7356 22.8977 26.7332 23.0357 26.6998 23.1679H26.7008Z" fill="#CF4141"/>
<path d="M30.6512 15.4461C30.1908 13.7536 29.2964 12.2106 28.0566 10.9699C26.8167 9.72916 25.2744 8.8337 23.5822 8.37211C23.4048 8.32442 23.2219 8.30021 23.0382 8.30011C22.774 8.2976 22.5118 8.34748 22.267 8.44686C22.0221 8.54625 21.7994 8.69317 21.6117 8.87913C21.4239 9.0651 21.2749 9.28643 21.1732 9.53033C21.0715 9.77423 21.0192 10.0359 21.0192 10.3001V15.0001C21.0192 15.7958 21.3353 16.5588 21.8979 17.1214C22.4605 17.684 23.2235 18.0001 24.0192 18.0001H28.7382C29.0469 17.9971 29.3507 17.923 29.6261 17.7836C29.9015 17.6441 30.141 17.4431 30.326 17.196C30.5111 16.9489 30.6367 16.6625 30.6931 16.359C30.7495 16.0556 30.7351 15.7432 30.6512 15.4461ZM28.1532 16.0001H24.0152C23.75 16.0001 23.4956 15.8948 23.3081 15.7072C23.1206 15.5197 23.0152 15.2653 23.0152 15.0001L23.0072 10.3071C23.0145 10.3018 23.0232 10.2987 23.0322 10.2981H23.0582C24.4203 10.6692 25.6613 11.391 26.6572 12.3916C27.6532 13.3921 28.3693 14.6363 28.7342 16.0001H28.1532Z" fill="#CF4141"/>
</g>
<defs>
<clipPath id="clip0_1_178">
<rect width="24" height="24" fill="white" transform="translate(7 8)"/>
</clipPath>
</defs>
</svg>
