<svg width="476" height="466" viewBox="0 0 476 466" fill="none" xmlns="http://www.w3.org/2000/svg">
<g filter="url(#filter0_d_1_270)">
<path d="M56 55C56 35.67 71.67 20 91 20H408C410.209 20 412 21.7909 412 24V331C412 350.33 396.33 366 377 366H60C57.7909 366 56 364.209 56 362V55Z" fill="white"/>
</g>
<path d="M76 115C76 95.67 91.67 80 111 80H388C390.209 80 392 81.7909 392 84V311C392 330.33 376.33 346 357 346H80C77.7909 346 76 344.209 76 342V115Z" fill="#EAFFFF" fill-opacity="0.2"/>
<path d="M101.727 49.7812V64H98.3086V49.7812H101.727ZM107.215 55.6895V64H103.924V53.4336H107.01L107.215 55.6895ZM106.824 58.3555L106.053 58.375C106.053 57.5677 106.15 56.8483 106.346 56.2168C106.541 55.5788 106.818 55.0384 107.176 54.5957C107.534 54.153 107.96 53.8177 108.455 53.5898C108.956 53.3555 109.513 53.2383 110.125 53.2383C110.613 53.2383 111.059 53.3099 111.463 53.4531C111.873 53.5964 112.225 53.8275 112.518 54.1465C112.817 54.4655 113.045 54.8887 113.201 55.416C113.364 55.9368 113.445 56.5814 113.445 57.3496V64H110.135V57.3398C110.135 56.9167 110.076 56.5944 109.959 56.373C109.842 56.1452 109.673 55.9889 109.451 55.9043C109.23 55.8197 108.96 55.7773 108.641 55.7773C108.302 55.7773 108.016 55.8424 107.781 55.9727C107.547 56.1029 107.358 56.2852 107.215 56.5195C107.078 56.7474 106.977 57.0176 106.912 57.3301C106.854 57.6426 106.824 57.9844 106.824 58.3555ZM119.08 61.7441L121.16 53.4336H124.627L121.17 64H119.119L119.08 61.7441ZM117.85 53.4336L119.9 61.7441L119.881 64H117.82L114.373 53.4336H117.85ZM130.584 64.1953C129.725 64.1953 128.956 64.0618 128.279 63.7949C127.602 63.5215 127.029 63.1471 126.561 62.6719C126.098 62.1966 125.743 61.6497 125.496 61.0312C125.255 60.4128 125.135 59.7585 125.135 59.0684V58.6973C125.135 57.9225 125.242 57.2064 125.457 56.5488C125.672 55.8848 125.991 55.3053 126.414 54.8105C126.837 54.3158 127.368 53.9316 128.006 53.6582C128.644 53.3783 129.386 53.2383 130.232 53.2383C130.981 53.2383 131.652 53.3587 132.244 53.5996C132.837 53.8405 133.338 54.1855 133.748 54.6348C134.165 55.084 134.48 55.6276 134.695 56.2656C134.917 56.9036 135.027 57.6198 135.027 58.4141V59.752H126.395V57.6914H131.814V57.4375C131.821 57.0859 131.759 56.7865 131.629 56.5391C131.505 56.2917 131.323 56.1029 131.082 55.9727C130.841 55.8424 130.548 55.7773 130.203 55.7773C129.845 55.7773 129.549 55.8555 129.314 56.0117C129.087 56.168 128.908 56.3828 128.777 56.6562C128.654 56.9232 128.566 57.2324 128.514 57.584C128.462 57.9355 128.436 58.3066 128.436 58.6973V59.0684C128.436 59.459 128.488 59.8138 128.592 60.1328C128.702 60.4518 128.859 60.7253 129.061 60.9531C129.269 61.1745 129.516 61.347 129.803 61.4707C130.096 61.5944 130.428 61.6562 130.799 61.6562C131.248 61.6562 131.691 61.5716 132.127 61.4023C132.563 61.2331 132.938 60.9531 133.25 60.5625L134.744 62.3398C134.529 62.6458 134.223 62.9421 133.826 63.2285C133.436 63.515 132.967 63.7493 132.42 63.9316C131.873 64.1074 131.261 64.1953 130.584 64.1953ZM141.902 61.0312C141.902 60.849 141.84 60.6927 141.717 60.5625C141.6 60.4258 141.391 60.3021 141.092 60.1914C140.792 60.0742 140.372 59.957 139.832 59.8398C139.318 59.7292 138.833 59.5827 138.377 59.4004C137.928 59.2181 137.534 58.9967 137.195 58.7363C136.857 58.4759 136.59 58.1667 136.395 57.8086C136.206 57.4505 136.111 57.0404 136.111 56.5781C136.111 56.1289 136.206 55.7057 136.395 55.3086C136.59 54.9049 136.873 54.5501 137.244 54.2441C137.622 53.9316 138.081 53.6875 138.621 53.5117C139.161 53.3294 139.777 53.2383 140.467 53.2383C141.417 53.2383 142.238 53.3848 142.928 53.6777C143.618 53.9642 144.148 54.3678 144.52 54.8887C144.897 55.403 145.086 55.9987 145.086 56.6758H141.795C141.795 56.4089 141.749 56.181 141.658 55.9922C141.574 55.8034 141.434 55.6602 141.238 55.5625C141.043 55.4583 140.783 55.4062 140.457 55.4062C140.229 55.4062 140.021 55.4486 139.832 55.5332C139.65 55.6178 139.503 55.735 139.393 55.8848C139.282 56.0345 139.227 56.2103 139.227 56.4121C139.227 56.5553 139.259 56.6855 139.324 56.8027C139.396 56.9134 139.503 57.0176 139.646 57.1152C139.79 57.2064 139.972 57.291 140.193 57.3691C140.415 57.4408 140.682 57.5059 140.994 57.5645C141.704 57.6947 142.368 57.8802 142.986 58.1211C143.605 58.362 144.106 58.7038 144.49 59.1465C144.881 59.5892 145.076 60.1849 145.076 60.9336C145.076 61.4023 144.969 61.8353 144.754 62.2324C144.539 62.623 144.23 62.9681 143.826 63.2676C143.423 63.5605 142.938 63.7884 142.371 63.9512C141.805 64.1139 141.167 64.1953 140.457 64.1953C139.448 64.1953 138.595 64.0163 137.898 63.6582C137.202 63.2936 136.674 62.8379 136.316 62.291C135.965 61.7376 135.789 61.1777 135.789 60.6113H138.855C138.868 60.9368 138.947 61.2038 139.09 61.4121C139.24 61.6204 139.438 61.7734 139.686 61.8711C139.933 61.9688 140.219 62.0176 140.545 62.0176C140.844 62.0176 141.092 61.9753 141.287 61.8906C141.489 61.806 141.642 61.6921 141.746 61.5488C141.85 61.3991 141.902 61.2266 141.902 61.0312ZM152.186 53.4336V55.7188H145.818V53.4336H152.186ZM147.156 50.8066H150.447V60.5527C150.447 60.8327 150.48 61.0508 150.545 61.207C150.61 61.3568 150.721 61.4642 150.877 61.5293C151.04 61.5879 151.255 61.6172 151.521 61.6172C151.71 61.6172 151.867 61.6139 151.99 61.6074C152.114 61.5944 152.231 61.5781 152.342 61.5586V63.9121C152.062 64.0033 151.769 64.0716 151.463 64.1172C151.157 64.1693 150.831 64.1953 150.486 64.1953C149.783 64.1953 149.181 64.0846 148.68 63.8633C148.185 63.6419 147.807 63.2936 147.547 62.8184C147.286 62.3431 147.156 61.7246 147.156 60.9629V50.8066ZM156.814 55.6699V64H153.523V53.4336H156.609L156.814 55.6699ZM156.414 58.3555L155.662 58.375C155.662 57.6328 155.75 56.9492 155.926 56.3242C156.102 55.6992 156.362 55.1556 156.707 54.6934C157.052 54.2311 157.475 53.873 157.977 53.6191C158.484 53.3652 159.07 53.2383 159.734 53.2383C160.197 53.2383 160.617 53.3099 160.994 53.4531C161.372 53.5898 161.697 53.8079 161.971 54.1074C162.244 54.4004 162.452 54.7845 162.596 55.2598C162.745 55.7285 162.82 56.2917 162.82 56.9492V64H159.529V57.3691C159.529 56.9199 159.477 56.5814 159.373 56.3535C159.275 56.1257 159.132 55.9727 158.943 55.8945C158.755 55.8164 158.523 55.7773 158.25 55.7773C157.964 55.7773 157.706 55.8424 157.479 55.9727C157.251 56.1029 157.055 56.2852 156.893 56.5195C156.736 56.7474 156.616 57.0176 156.531 57.3301C156.453 57.6426 156.414 57.9844 156.414 58.3555ZM162.449 58.3555L161.531 58.375C161.531 57.6328 161.613 56.9492 161.775 56.3242C161.945 55.6992 162.195 55.1556 162.527 54.6934C162.866 54.2311 163.286 53.873 163.787 53.6191C164.288 53.3652 164.871 53.2383 165.535 53.2383C166.017 53.2383 166.46 53.3099 166.863 53.4531C167.267 53.5964 167.615 53.8275 167.908 54.1465C168.201 54.4655 168.429 54.8887 168.592 55.416C168.755 55.9368 168.836 56.5814 168.836 57.3496V64H165.535V57.3496C165.535 56.9134 165.483 56.5846 165.379 56.3633C165.281 56.1354 165.138 55.9824 164.949 55.9043C164.76 55.8197 164.536 55.7773 164.275 55.7773C163.963 55.7773 163.693 55.8424 163.465 55.9727C163.237 56.1029 163.045 56.2852 162.889 56.5195C162.739 56.7474 162.628 57.0176 162.557 57.3301C162.485 57.6426 162.449 57.9844 162.449 58.3555ZM175.838 64.1953C174.979 64.1953 174.21 64.0618 173.533 63.7949C172.856 63.5215 172.283 63.1471 171.814 62.6719C171.352 62.1966 170.997 61.6497 170.75 61.0312C170.509 60.4128 170.389 59.7585 170.389 59.0684V58.6973C170.389 57.9225 170.496 57.2064 170.711 56.5488C170.926 55.8848 171.245 55.3053 171.668 54.8105C172.091 54.3158 172.622 53.9316 173.26 53.6582C173.898 53.3783 174.64 53.2383 175.486 53.2383C176.235 53.2383 176.906 53.3587 177.498 53.5996C178.09 53.8405 178.592 54.1855 179.002 54.6348C179.419 55.084 179.734 55.6276 179.949 56.2656C180.171 56.9036 180.281 57.6198 180.281 58.4141V59.752H171.648V57.6914H177.068V57.4375C177.075 57.0859 177.013 56.7865 176.883 56.5391C176.759 56.2917 176.577 56.1029 176.336 55.9727C176.095 55.8424 175.802 55.7773 175.457 55.7773C175.099 55.7773 174.803 55.8555 174.568 56.0117C174.34 56.168 174.161 56.3828 174.031 56.6562C173.908 56.9232 173.82 57.2324 173.768 57.584C173.715 57.9355 173.689 58.3066 173.689 58.6973V59.0684C173.689 59.459 173.742 59.8138 173.846 60.1328C173.956 60.4518 174.113 60.7253 174.314 60.9531C174.523 61.1745 174.77 61.347 175.057 61.4707C175.35 61.5944 175.682 61.6562 176.053 61.6562C176.502 61.6562 176.945 61.5716 177.381 61.4023C177.817 61.2331 178.191 60.9531 178.504 60.5625L179.998 62.3398C179.783 62.6458 179.477 62.9421 179.08 63.2285C178.689 63.515 178.221 63.7493 177.674 63.9316C177.127 64.1074 176.515 64.1953 175.838 64.1953ZM184.852 55.6895V64H181.561V53.4336H184.646L184.852 55.6895ZM184.461 58.3555L183.689 58.375C183.689 57.5677 183.787 56.8483 183.982 56.2168C184.178 55.5788 184.454 55.0384 184.812 54.5957C185.171 54.153 185.597 53.8177 186.092 53.5898C186.593 53.3555 187.15 53.2383 187.762 53.2383C188.25 53.2383 188.696 53.3099 189.1 53.4531C189.51 53.5964 189.861 53.8275 190.154 54.1465C190.454 54.4655 190.682 54.8887 190.838 55.416C191.001 55.9368 191.082 56.5814 191.082 57.3496V64H187.771V57.3398C187.771 56.9167 187.713 56.5944 187.596 56.373C187.479 56.1452 187.309 55.9889 187.088 55.9043C186.867 55.8197 186.596 55.7773 186.277 55.7773C185.939 55.7773 185.652 55.8424 185.418 55.9727C185.184 56.1029 184.995 56.2852 184.852 56.5195C184.715 56.7474 184.614 57.0176 184.549 57.3301C184.49 57.6426 184.461 57.9844 184.461 58.3555ZM198.475 53.4336V55.7188H192.107V53.4336H198.475ZM193.445 50.8066H196.736V60.5527C196.736 60.8327 196.769 61.0508 196.834 61.207C196.899 61.3568 197.01 61.4642 197.166 61.5293C197.329 61.5879 197.544 61.6172 197.811 61.6172C197.999 61.6172 198.156 61.6139 198.279 61.6074C198.403 61.5944 198.52 61.5781 198.631 61.5586V63.9121C198.351 64.0033 198.058 64.0716 197.752 64.1172C197.446 64.1693 197.12 64.1953 196.775 64.1953C196.072 64.1953 195.47 64.0846 194.969 63.8633C194.474 63.6419 194.096 63.2936 193.836 62.8184C193.576 62.3431 193.445 61.7246 193.445 60.9629V50.8066ZM211.404 53.4336H214.393V63.5898C214.393 64.5664 214.168 65.3932 213.719 66.0703C213.27 66.7539 212.641 67.2715 211.834 67.623C211.033 67.9811 210.096 68.1602 209.021 68.1602C208.546 68.1602 208.061 68.0983 207.566 67.9746C207.072 67.8574 206.609 67.6816 206.18 67.4473C205.75 67.2129 205.389 66.9232 205.096 66.5781L206.473 64.6445C206.74 64.944 207.075 65.1979 207.479 65.4062C207.882 65.6211 208.357 65.7285 208.904 65.7285C209.38 65.7285 209.777 65.6439 210.096 65.4746C210.421 65.3053 210.669 65.0579 210.838 64.7324C211.007 64.4134 211.092 64.026 211.092 63.5703V55.9336L211.404 53.4336ZM204.383 58.8438V58.6387C204.383 57.8379 204.48 57.1087 204.676 56.4512C204.878 55.7871 205.164 55.2174 205.535 54.7422C205.913 54.2604 206.368 53.8893 206.902 53.6289C207.436 53.3685 208.038 53.2383 208.709 53.2383C209.432 53.2383 210.024 53.3783 210.486 53.6582C210.955 53.9316 211.329 54.3158 211.609 54.8105C211.896 55.3053 212.117 55.8848 212.273 56.5488C212.436 57.2064 212.573 57.916 212.684 58.6777V58.9219C212.573 59.638 212.42 60.3151 212.225 60.9531C212.036 61.5846 211.788 62.1445 211.482 62.6328C211.176 63.1211 210.792 63.5052 210.33 63.7852C209.874 64.0586 209.327 64.1953 208.689 64.1953C208.025 64.1953 207.426 64.0618 206.893 63.7949C206.365 63.528 205.913 63.1536 205.535 62.6719C205.164 62.1901 204.878 61.6237 204.676 60.9727C204.48 60.3216 204.383 59.612 204.383 58.8438ZM207.674 58.6387V58.8438C207.674 59.2409 207.71 59.6087 207.781 59.9473C207.859 60.2858 207.977 60.5853 208.133 60.8457C208.289 61.0996 208.481 61.2982 208.709 61.4414C208.943 61.5846 209.217 61.6562 209.529 61.6562C210.005 61.6562 210.389 61.5553 210.682 61.3535C210.975 61.1517 211.186 60.8652 211.316 60.4941C211.447 60.123 211.502 59.6868 211.482 59.1855V58.4141C211.495 57.9844 211.466 57.6068 211.395 57.2812C211.323 56.9492 211.209 56.6725 211.053 56.4512C210.903 56.2298 210.701 56.0638 210.447 55.9531C210.2 55.8359 209.9 55.7773 209.549 55.7773C209.243 55.7773 208.973 55.849 208.738 55.9922C208.504 56.1354 208.309 56.3372 208.152 56.5977C207.996 56.8516 207.876 57.1543 207.791 57.5059C207.713 57.8509 207.674 58.2285 207.674 58.6387ZM219.607 56.0508V64H216.316V53.4336H219.393L219.607 56.0508ZM222.732 53.3555L222.674 56.4121C222.544 56.3991 222.368 56.3828 222.146 56.3633C221.925 56.3438 221.74 56.334 221.59 56.334C221.206 56.334 220.874 56.3796 220.594 56.4707C220.32 56.5553 220.092 56.6855 219.91 56.8613C219.734 57.0306 219.604 57.2454 219.52 57.5059C219.441 57.7663 219.406 58.069 219.412 58.4141L218.816 58.0234C218.816 57.3138 218.885 56.6693 219.021 56.0898C219.165 55.5039 219.367 54.9993 219.627 54.5762C219.887 54.1465 220.203 53.8177 220.574 53.5898C220.945 53.3555 221.362 53.2383 221.824 53.2383C221.987 53.2383 222.146 53.248 222.303 53.2676C222.465 53.2871 222.609 53.3164 222.732 53.3555ZM223.104 58.8242V58.6191C223.104 57.8444 223.214 57.1315 223.436 56.4805C223.657 55.8229 223.982 55.2533 224.412 54.7715C224.842 54.2897 225.372 53.9154 226.004 53.6484C226.635 53.375 227.365 53.2383 228.191 53.2383C229.025 53.2383 229.757 53.375 230.389 53.6484C231.027 53.9154 231.561 54.2897 231.99 54.7715C232.42 55.2533 232.745 55.8229 232.967 56.4805C233.188 57.1315 233.299 57.8444 233.299 58.6191V58.8242C233.299 59.5924 233.188 60.3053 232.967 60.9629C232.745 61.6139 232.42 62.1836 231.99 62.6719C231.561 63.1536 231.03 63.528 230.398 63.7949C229.767 64.0618 229.038 64.1953 228.211 64.1953C227.384 64.1953 226.652 64.0618 226.014 63.7949C225.376 63.528 224.842 63.1536 224.412 62.6719C223.982 62.1836 223.657 61.6139 223.436 60.9629C223.214 60.3053 223.104 59.5924 223.104 58.8242ZM226.395 58.6191V58.8242C226.395 59.2214 226.424 59.5924 226.482 59.9375C226.541 60.2826 226.639 60.5853 226.775 60.8457C226.912 61.0996 227.098 61.2982 227.332 61.4414C227.566 61.5846 227.859 61.6562 228.211 61.6562C228.556 61.6562 228.842 61.5846 229.07 61.4414C229.305 61.2982 229.49 61.0996 229.627 60.8457C229.764 60.5853 229.861 60.2826 229.92 59.9375C229.979 59.5924 230.008 59.2214 230.008 58.8242V58.6191C230.008 58.235 229.979 57.8737 229.92 57.5352C229.861 57.1901 229.764 56.8874 229.627 56.627C229.49 56.36 229.305 56.1517 229.07 56.002C228.836 55.8522 228.543 55.7773 228.191 55.7773C227.846 55.7773 227.557 55.8522 227.322 56.002C227.094 56.1517 226.912 56.36 226.775 56.627C226.639 56.8874 226.541 57.1901 226.482 57.5352C226.424 57.8737 226.395 58.235 226.395 58.6191ZM237.977 60.8555L239.93 53.4336H241.99L241.258 57.1543L239.324 64H237.674L237.977 60.8555ZM237.205 53.4336L238.416 60.7969L238.553 64H236.551L234.051 53.4336H237.205ZM243.729 60.6406L244.949 53.4336H248.104L245.623 64H243.621L243.729 60.6406ZM242.225 53.4336L244.197 60.8359L244.5 64H242.83L240.936 57.1738L240.232 53.4336H242.225ZM254.861 53.4336V55.7188H248.494V53.4336H254.861ZM249.832 50.8066H253.123V60.5527C253.123 60.8327 253.156 61.0508 253.221 61.207C253.286 61.3568 253.396 61.4642 253.553 61.5293C253.715 61.5879 253.93 61.6172 254.197 61.6172C254.386 61.6172 254.542 61.6139 254.666 61.6074C254.79 61.5944 254.907 61.5781 255.018 61.5586V63.9121C254.738 64.0033 254.445 64.0716 254.139 64.1172C253.833 64.1693 253.507 64.1953 253.162 64.1953C252.459 64.1953 251.857 64.0846 251.355 63.8633C250.861 63.6419 250.483 63.2936 250.223 62.8184C249.962 62.3431 249.832 61.7246 249.832 60.9629V50.8066ZM259.393 49V64H256.102V49H259.393ZM259.002 58.3555L258.23 58.375C258.23 57.6328 258.322 56.9492 258.504 56.3242C258.686 55.6992 258.947 55.1556 259.285 54.6934C259.624 54.2311 260.031 53.873 260.506 53.6191C260.981 53.3652 261.508 53.2383 262.088 53.2383C262.609 53.2383 263.084 53.3132 263.514 53.4629C263.95 53.6126 264.324 53.8535 264.637 54.1855C264.956 54.5176 265.2 54.9505 265.369 55.4844C265.545 56.0182 265.633 56.6693 265.633 57.4375V64H262.322V57.418C262.322 56.9883 262.26 56.6562 262.137 56.4219C262.02 56.181 261.85 56.015 261.629 55.9238C261.408 55.8262 261.137 55.7773 260.818 55.7773C260.434 55.7773 260.122 55.8424 259.881 55.9727C259.64 56.1029 259.454 56.2852 259.324 56.5195C259.201 56.7474 259.116 57.0176 259.07 57.3301C259.025 57.6426 259.002 57.9844 259.002 58.3555Z" fill="#1E1E1E"/>
<rect x="97" y="294" width="267" height="18" rx="4" fill="#F6F6F6"/>
<rect x="97" y="294" width="127" height="18" rx="4" fill="#FAA9A9"/>
<path d="M342.695 275.945V277.445H334.492L334.43 276.312L339.336 268.625H340.844L339.211 271.422L336.391 275.945H342.695ZM341.273 268.625V280H339.391V268.625H341.273ZM351.367 273.359V275.219C351.367 276.109 351.279 276.87 351.102 277.5C350.93 278.125 350.68 278.633 350.352 279.023C350.023 279.414 349.63 279.701 349.172 279.883C348.719 280.065 348.211 280.156 347.648 280.156C347.201 280.156 346.784 280.099 346.398 279.984C346.018 279.87 345.674 279.69 345.367 279.445C345.06 279.201 344.797 278.885 344.578 278.5C344.365 278.109 344.198 277.643 344.078 277.102C343.964 276.56 343.906 275.932 343.906 275.219V273.359C343.906 272.464 343.995 271.708 344.172 271.094C344.349 270.474 344.602 269.971 344.93 269.586C345.258 269.195 345.648 268.911 346.102 268.734C346.56 268.557 347.07 268.469 347.633 268.469C348.086 268.469 348.503 268.526 348.883 268.641C349.268 268.75 349.612 268.924 349.914 269.164C350.221 269.404 350.482 269.716 350.695 270.102C350.914 270.482 351.081 270.943 351.195 271.484C351.31 272.021 351.367 272.646 351.367 273.359ZM349.484 275.484V273.078C349.484 272.625 349.458 272.227 349.406 271.883C349.354 271.534 349.276 271.24 349.172 271C349.073 270.755 348.948 270.557 348.797 270.406C348.646 270.25 348.474 270.138 348.281 270.07C348.089 269.997 347.872 269.961 347.633 269.961C347.341 269.961 347.081 270.018 346.852 270.133C346.622 270.242 346.43 270.419 346.273 270.664C346.117 270.909 345.997 271.232 345.914 271.633C345.836 272.029 345.797 272.51 345.797 273.078V275.484C345.797 275.943 345.823 276.346 345.875 276.695C345.927 277.044 346.005 277.344 346.109 277.594C346.214 277.839 346.339 278.042 346.484 278.203C346.635 278.359 346.807 278.474 347 278.547C347.198 278.62 347.414 278.656 347.648 278.656C347.945 278.656 348.208 278.599 348.438 278.484C348.667 278.37 348.859 278.188 349.016 277.938C349.172 277.682 349.289 277.352 349.367 276.945C349.445 276.539 349.484 276.052 349.484 275.484ZM352.969 271.414V270.812C352.969 270.38 353.062 269.987 353.25 269.633C353.438 269.279 353.711 268.995 354.07 268.781C354.43 268.568 354.862 268.461 355.367 268.461C355.888 268.461 356.326 268.568 356.68 268.781C357.039 268.995 357.312 269.279 357.5 269.633C357.688 269.987 357.781 270.38 357.781 270.812V271.414C357.781 271.836 357.688 272.224 357.5 272.578C357.318 272.932 357.047 273.216 356.688 273.43C356.333 273.643 355.898 273.75 355.383 273.75C354.872 273.75 354.435 273.643 354.07 273.43C353.711 273.216 353.438 272.932 353.25 272.578C353.062 272.224 352.969 271.836 352.969 271.414ZM354.273 270.812V271.414C354.273 271.622 354.312 271.82 354.391 272.008C354.474 272.195 354.599 272.346 354.766 272.461C354.932 272.576 355.138 272.633 355.383 272.633C355.633 272.633 355.836 272.576 355.992 272.461C356.154 272.346 356.273 272.195 356.352 272.008C356.43 271.82 356.469 271.622 356.469 271.414V270.812C356.469 270.599 356.427 270.398 356.344 270.211C356.266 270.018 356.146 269.865 355.984 269.75C355.823 269.635 355.617 269.578 355.367 269.578C355.128 269.578 354.924 269.635 354.758 269.75C354.596 269.865 354.474 270.018 354.391 270.211C354.312 270.398 354.273 270.599 354.273 270.812ZM358.453 277.82V277.211C358.453 276.784 358.547 276.393 358.734 276.039C358.927 275.685 359.203 275.401 359.562 275.188C359.922 274.974 360.354 274.867 360.859 274.867C361.38 274.867 361.818 274.974 362.172 275.188C362.531 275.401 362.802 275.685 362.984 276.039C363.172 276.393 363.266 276.784 363.266 277.211V277.82C363.266 278.247 363.172 278.638 362.984 278.992C362.802 279.346 362.534 279.63 362.18 279.844C361.826 280.057 361.393 280.164 360.883 280.164C360.367 280.164 359.927 280.057 359.562 279.844C359.203 279.63 358.927 279.346 358.734 278.992C358.547 278.638 358.453 278.247 358.453 277.82ZM359.766 277.211V277.82C359.766 278.029 359.807 278.227 359.891 278.414C359.979 278.602 360.107 278.755 360.273 278.875C360.44 278.99 360.641 279.047 360.875 279.047C361.141 279.047 361.354 278.99 361.516 278.875C361.677 278.755 361.792 278.604 361.859 278.422C361.932 278.234 361.969 278.034 361.969 277.82V277.211C361.969 276.997 361.927 276.797 361.844 276.609C361.766 276.422 361.643 276.271 361.477 276.156C361.315 276.042 361.109 275.984 360.859 275.984C360.615 275.984 360.411 276.042 360.25 276.156C360.089 276.271 359.966 276.422 359.883 276.609C359.805 276.797 359.766 276.997 359.766 277.211ZM361.328 270.25L355.773 279.141L354.812 278.586L360.367 269.695L361.328 270.25Z" fill="#979797"/>
<path d="M98.1562 268.625H102.18C103.044 268.625 103.781 268.755 104.391 269.016C105 269.276 105.466 269.661 105.789 270.172C106.117 270.677 106.281 271.302 106.281 272.047C106.281 272.615 106.177 273.115 105.969 273.547C105.76 273.979 105.466 274.344 105.086 274.641C104.706 274.932 104.253 275.159 103.727 275.32L103.133 275.609H99.5156L99.5 274.055H102.211C102.68 274.055 103.07 273.971 103.383 273.805C103.695 273.638 103.93 273.411 104.086 273.125C104.247 272.833 104.328 272.505 104.328 272.141C104.328 271.745 104.25 271.401 104.094 271.109C103.943 270.812 103.708 270.586 103.391 270.43C103.073 270.268 102.669 270.188 102.18 270.188H100.117V280H98.1562V268.625ZM104.648 280L101.977 274.891L104.031 274.883L106.742 279.898V280H104.648ZM111.773 280.156C111.148 280.156 110.583 280.055 110.078 279.852C109.578 279.643 109.151 279.354 108.797 278.984C108.448 278.615 108.18 278.18 107.992 277.68C107.805 277.18 107.711 276.641 107.711 276.062V275.75C107.711 275.089 107.807 274.49 108 273.953C108.193 273.417 108.461 272.958 108.805 272.578C109.148 272.193 109.555 271.898 110.023 271.695C110.492 271.492 111 271.391 111.547 271.391C112.151 271.391 112.68 271.492 113.133 271.695C113.586 271.898 113.961 272.185 114.258 272.555C114.56 272.919 114.784 273.354 114.93 273.859C115.081 274.365 115.156 274.922 115.156 275.531V276.336H108.625V274.984H113.297V274.836C113.286 274.497 113.219 274.18 113.094 273.883C112.974 273.586 112.789 273.346 112.539 273.164C112.289 272.982 111.956 272.891 111.539 272.891C111.227 272.891 110.948 272.958 110.703 273.094C110.464 273.224 110.263 273.414 110.102 273.664C109.94 273.914 109.815 274.216 109.727 274.57C109.643 274.919 109.602 275.312 109.602 275.75V276.062C109.602 276.432 109.651 276.776 109.75 277.094C109.854 277.406 110.005 277.68 110.203 277.914C110.401 278.148 110.641 278.333 110.922 278.469C111.203 278.599 111.523 278.664 111.883 278.664C112.336 278.664 112.74 278.573 113.094 278.391C113.448 278.208 113.755 277.951 114.016 277.617L115.008 278.578C114.826 278.844 114.589 279.099 114.297 279.344C114.005 279.583 113.648 279.779 113.227 279.93C112.81 280.081 112.326 280.156 111.773 280.156ZM119.266 278.508L121.336 271.547H123.289L120.352 280H119.133L119.266 278.508ZM117.68 271.547L119.789 278.539L119.891 280H118.672L115.719 271.547H117.68ZM128.07 280.156C127.445 280.156 126.88 280.055 126.375 279.852C125.875 279.643 125.448 279.354 125.094 278.984C124.745 278.615 124.477 278.18 124.289 277.68C124.102 277.18 124.008 276.641 124.008 276.062V275.75C124.008 275.089 124.104 274.49 124.297 273.953C124.49 273.417 124.758 272.958 125.102 272.578C125.445 272.193 125.852 271.898 126.32 271.695C126.789 271.492 127.297 271.391 127.844 271.391C128.448 271.391 128.977 271.492 129.43 271.695C129.883 271.898 130.258 272.185 130.555 272.555C130.857 272.919 131.081 273.354 131.227 273.859C131.378 274.365 131.453 274.922 131.453 275.531V276.336H124.922V274.984H129.594V274.836C129.583 274.497 129.516 274.18 129.391 273.883C129.271 273.586 129.086 273.346 128.836 273.164C128.586 272.982 128.253 272.891 127.836 272.891C127.523 272.891 127.245 272.958 127 273.094C126.76 273.224 126.56 273.414 126.398 273.664C126.237 273.914 126.112 274.216 126.023 274.57C125.94 274.919 125.898 275.312 125.898 275.75V276.062C125.898 276.432 125.948 276.776 126.047 277.094C126.151 277.406 126.302 277.68 126.5 277.914C126.698 278.148 126.938 278.333 127.219 278.469C127.5 278.599 127.82 278.664 128.18 278.664C128.633 278.664 129.036 278.573 129.391 278.391C129.745 278.208 130.052 277.951 130.312 277.617L131.305 278.578C131.122 278.844 130.885 279.099 130.594 279.344C130.302 279.583 129.945 279.779 129.523 279.93C129.107 280.081 128.622 280.156 128.07 280.156ZM134.789 273.352V280H132.906V271.547H134.68L134.789 273.352ZM134.453 275.461L133.844 275.453C133.849 274.854 133.932 274.305 134.094 273.805C134.26 273.305 134.49 272.875 134.781 272.516C135.078 272.156 135.432 271.88 135.844 271.688C136.255 271.49 136.714 271.391 137.219 271.391C137.625 271.391 137.992 271.448 138.32 271.562C138.654 271.672 138.938 271.852 139.172 272.102C139.411 272.352 139.594 272.677 139.719 273.078C139.844 273.474 139.906 273.961 139.906 274.539V280H138.016V274.531C138.016 274.125 137.956 273.805 137.836 273.57C137.721 273.331 137.552 273.161 137.328 273.062C137.109 272.958 136.836 272.906 136.508 272.906C136.185 272.906 135.896 272.974 135.641 273.109C135.385 273.245 135.169 273.43 134.992 273.664C134.82 273.898 134.688 274.169 134.594 274.477C134.5 274.784 134.453 275.112 134.453 275.461ZM146.914 278.008V271.547H148.805V280H147.023L146.914 278.008ZM147.18 276.25L147.812 276.234C147.812 276.802 147.75 277.326 147.625 277.805C147.5 278.279 147.307 278.693 147.047 279.047C146.786 279.396 146.453 279.669 146.047 279.867C145.641 280.06 145.154 280.156 144.586 280.156C144.174 280.156 143.797 280.096 143.453 279.977C143.109 279.857 142.812 279.672 142.562 279.422C142.318 279.172 142.128 278.846 141.992 278.445C141.857 278.044 141.789 277.565 141.789 277.008V271.547H143.672V277.023C143.672 277.331 143.708 277.589 143.781 277.797C143.854 278 143.953 278.164 144.078 278.289C144.203 278.414 144.349 278.503 144.516 278.555C144.682 278.607 144.859 278.633 145.047 278.633C145.583 278.633 146.005 278.529 146.312 278.32C146.625 278.107 146.846 277.82 146.977 277.461C147.112 277.102 147.18 276.698 147.18 276.25ZM154.461 280.156C153.836 280.156 153.271 280.055 152.766 279.852C152.266 279.643 151.839 279.354 151.484 278.984C151.135 278.615 150.867 278.18 150.68 277.68C150.492 277.18 150.398 276.641 150.398 276.062V275.75C150.398 275.089 150.495 274.49 150.688 273.953C150.88 273.417 151.148 272.958 151.492 272.578C151.836 272.193 152.242 271.898 152.711 271.695C153.18 271.492 153.688 271.391 154.234 271.391C154.839 271.391 155.367 271.492 155.82 271.695C156.273 271.898 156.648 272.185 156.945 272.555C157.247 272.919 157.471 273.354 157.617 273.859C157.768 274.365 157.844 274.922 157.844 275.531V276.336H151.312V274.984H155.984V274.836C155.974 274.497 155.906 274.18 155.781 273.883C155.661 273.586 155.477 273.346 155.227 273.164C154.977 272.982 154.643 272.891 154.227 272.891C153.914 272.891 153.635 272.958 153.391 273.094C153.151 273.224 152.951 273.414 152.789 273.664C152.628 273.914 152.503 274.216 152.414 274.57C152.331 274.919 152.289 275.312 152.289 275.75V276.062C152.289 276.432 152.339 276.776 152.438 277.094C152.542 277.406 152.693 277.68 152.891 277.914C153.089 278.148 153.328 278.333 153.609 278.469C153.891 278.599 154.211 278.664 154.57 278.664C155.023 278.664 155.427 278.573 155.781 278.391C156.135 278.208 156.443 277.951 156.703 277.617L157.695 278.578C157.513 278.844 157.276 279.099 156.984 279.344C156.693 279.583 156.336 279.779 155.914 279.93C155.497 280.081 155.013 280.156 154.461 280.156Z" fill="#565656"/>
<rect x="97" y="215" width="267" height="18" rx="4" fill="#F6F6F6"/>
<rect x="97" y="215" width="179" height="18" rx="4" fill="#72E7E0"/>
<path d="M340.547 189.555H340.781V191.094H340.648C339.977 191.094 339.396 191.198 338.906 191.406C338.422 191.615 338.023 191.901 337.711 192.266C337.398 192.63 337.164 193.057 337.008 193.547C336.857 194.031 336.781 194.547 336.781 195.094V196.883C336.781 197.336 336.831 197.737 336.93 198.086C337.029 198.43 337.167 198.719 337.344 198.953C337.526 199.182 337.734 199.357 337.969 199.477C338.203 199.596 338.456 199.656 338.727 199.656C339.008 199.656 339.263 199.599 339.492 199.484C339.721 199.365 339.917 199.201 340.078 198.992C340.24 198.784 340.362 198.536 340.445 198.25C340.529 197.964 340.57 197.651 340.57 197.312C340.57 196.99 340.529 196.688 340.445 196.406C340.367 196.12 340.25 195.87 340.094 195.656C339.938 195.438 339.742 195.268 339.508 195.148C339.279 195.023 339.013 194.961 338.711 194.961C338.336 194.961 337.995 195.049 337.688 195.227C337.385 195.404 337.141 195.635 336.953 195.922C336.771 196.203 336.672 196.503 336.656 196.82L335.938 196.586C335.979 196.102 336.086 195.667 336.258 195.281C336.435 194.896 336.667 194.568 336.953 194.297C337.24 194.026 337.57 193.82 337.945 193.68C338.326 193.534 338.742 193.461 339.195 193.461C339.747 193.461 340.227 193.565 340.633 193.773C341.039 193.982 341.375 194.266 341.641 194.625C341.911 194.979 342.112 195.385 342.242 195.844C342.378 196.297 342.445 196.771 342.445 197.266C342.445 197.812 342.362 198.323 342.195 198.797C342.029 199.266 341.784 199.677 341.461 200.031C341.143 200.385 340.755 200.661 340.297 200.859C339.844 201.057 339.328 201.156 338.75 201.156C338.141 201.156 337.596 201.039 337.117 200.805C336.643 200.57 336.24 200.247 335.906 199.836C335.578 199.424 335.328 198.951 335.156 198.414C334.984 197.878 334.898 197.31 334.898 196.711V195.93C334.898 195.065 335.008 194.25 335.227 193.484C335.445 192.714 335.781 192.034 336.234 191.445C336.693 190.857 337.279 190.396 337.992 190.062C338.706 189.724 339.557 189.555 340.547 189.555ZM351.508 189.625V190.656L346.961 201H344.977L349.516 191.125H343.625V189.625H351.508ZM352.969 192.414V191.812C352.969 191.38 353.062 190.987 353.25 190.633C353.438 190.279 353.711 189.995 354.07 189.781C354.43 189.568 354.862 189.461 355.367 189.461C355.888 189.461 356.326 189.568 356.68 189.781C357.039 189.995 357.312 190.279 357.5 190.633C357.688 190.987 357.781 191.38 357.781 191.812V192.414C357.781 192.836 357.688 193.224 357.5 193.578C357.318 193.932 357.047 194.216 356.688 194.43C356.333 194.643 355.898 194.75 355.383 194.75C354.872 194.75 354.435 194.643 354.07 194.43C353.711 194.216 353.438 193.932 353.25 193.578C353.062 193.224 352.969 192.836 352.969 192.414ZM354.273 191.812V192.414C354.273 192.622 354.312 192.82 354.391 193.008C354.474 193.195 354.599 193.346 354.766 193.461C354.932 193.576 355.138 193.633 355.383 193.633C355.633 193.633 355.836 193.576 355.992 193.461C356.154 193.346 356.273 193.195 356.352 193.008C356.43 192.82 356.469 192.622 356.469 192.414V191.812C356.469 191.599 356.427 191.398 356.344 191.211C356.266 191.018 356.146 190.865 355.984 190.75C355.823 190.635 355.617 190.578 355.367 190.578C355.128 190.578 354.924 190.635 354.758 190.75C354.596 190.865 354.474 191.018 354.391 191.211C354.312 191.398 354.273 191.599 354.273 191.812ZM358.453 198.82V198.211C358.453 197.784 358.547 197.393 358.734 197.039C358.927 196.685 359.203 196.401 359.562 196.188C359.922 195.974 360.354 195.867 360.859 195.867C361.38 195.867 361.818 195.974 362.172 196.188C362.531 196.401 362.802 196.685 362.984 197.039C363.172 197.393 363.266 197.784 363.266 198.211V198.82C363.266 199.247 363.172 199.638 362.984 199.992C362.802 200.346 362.534 200.63 362.18 200.844C361.826 201.057 361.393 201.164 360.883 201.164C360.367 201.164 359.927 201.057 359.562 200.844C359.203 200.63 358.927 200.346 358.734 199.992C358.547 199.638 358.453 199.247 358.453 198.82ZM359.766 198.211V198.82C359.766 199.029 359.807 199.227 359.891 199.414C359.979 199.602 360.107 199.755 360.273 199.875C360.44 199.99 360.641 200.047 360.875 200.047C361.141 200.047 361.354 199.99 361.516 199.875C361.677 199.755 361.792 199.604 361.859 199.422C361.932 199.234 361.969 199.034 361.969 198.82V198.211C361.969 197.997 361.927 197.797 361.844 197.609C361.766 197.422 361.643 197.271 361.477 197.156C361.315 197.042 361.109 196.984 360.859 196.984C360.615 196.984 360.411 197.042 360.25 197.156C360.089 197.271 359.966 197.422 359.883 197.609C359.805 197.797 359.766 197.997 359.766 198.211ZM361.328 191.25L355.773 200.141L354.812 199.586L360.367 190.695L361.328 191.25Z" fill="#979797"/>
<path d="M104.539 189.625H106.492V197.227C106.492 198.091 106.305 198.815 105.93 199.398C105.555 199.982 105.044 200.422 104.398 200.719C103.758 201.01 103.042 201.156 102.25 201.156C101.432 201.156 100.703 201.01 100.062 200.719C99.4219 200.422 98.9167 199.982 98.5469 199.398C98.1823 198.815 98 198.091 98 197.227V189.625H99.9531V197.227C99.9531 197.773 100.047 198.224 100.234 198.578C100.422 198.927 100.688 199.185 101.031 199.352C101.375 199.518 101.781 199.602 102.25 199.602C102.719 199.602 103.122 199.518 103.461 199.352C103.805 199.185 104.07 198.927 104.258 198.578C104.445 198.224 104.539 197.773 104.539 197.227V189.625ZM112.312 192.547V193.922H107.547V192.547H112.312ZM108.922 190.477H110.805V198.664C110.805 198.924 110.841 199.125 110.914 199.266C110.992 199.401 111.099 199.492 111.234 199.539C111.37 199.586 111.529 199.609 111.711 199.609C111.841 199.609 111.966 199.602 112.086 199.586C112.206 199.57 112.302 199.555 112.375 199.539L112.383 200.977C112.227 201.023 112.044 201.065 111.836 201.102C111.633 201.138 111.398 201.156 111.133 201.156C110.701 201.156 110.318 201.081 109.984 200.93C109.651 200.773 109.391 200.521 109.203 200.172C109.016 199.823 108.922 199.359 108.922 198.781V190.477ZM115.781 192.547V201H113.891V192.547H115.781ZM113.766 190.328C113.766 190.042 113.859 189.805 114.047 189.617C114.24 189.424 114.505 189.328 114.844 189.328C115.177 189.328 115.44 189.424 115.633 189.617C115.826 189.805 115.922 190.042 115.922 190.328C115.922 190.609 115.826 190.844 115.633 191.031C115.44 191.219 115.177 191.312 114.844 191.312C114.505 191.312 114.24 191.219 114.047 191.031C113.859 190.844 113.766 190.609 113.766 190.328ZM119.859 189V201H117.969V189H119.859ZM123.938 192.547V201H122.047V192.547H123.938ZM121.922 190.328C121.922 190.042 122.016 189.805 122.203 189.617C122.396 189.424 122.661 189.328 123 189.328C123.333 189.328 123.596 189.424 123.789 189.617C123.982 189.805 124.078 190.042 124.078 190.328C124.078 190.609 123.982 190.844 123.789 191.031C123.596 191.219 123.333 191.312 123 191.312C122.661 191.312 122.396 191.219 122.203 191.031C122.016 190.844 121.922 190.609 121.922 190.328ZM129.875 192.547V193.922H125.109V192.547H129.875ZM126.484 190.477H128.367V198.664C128.367 198.924 128.404 199.125 128.477 199.266C128.555 199.401 128.661 199.492 128.797 199.539C128.932 199.586 129.091 199.609 129.273 199.609C129.404 199.609 129.529 199.602 129.648 199.586C129.768 199.57 129.865 199.555 129.938 199.539L129.945 200.977C129.789 201.023 129.607 201.065 129.398 201.102C129.195 201.138 128.961 201.156 128.695 201.156C128.263 201.156 127.88 201.081 127.547 200.93C127.214 200.773 126.953 200.521 126.766 200.172C126.578 199.823 126.484 199.359 126.484 198.781V190.477ZM133.344 192.547V201H131.453V192.547H133.344ZM131.328 190.328C131.328 190.042 131.422 189.805 131.609 189.617C131.802 189.424 132.068 189.328 132.406 189.328C132.74 189.328 133.003 189.424 133.195 189.617C133.388 189.805 133.484 190.042 133.484 190.328C133.484 190.609 133.388 190.844 133.195 191.031C133.003 191.219 132.74 191.312 132.406 191.312C132.068 191.312 131.802 191.219 131.609 191.031C131.422 190.844 131.328 190.609 131.328 190.328ZM139.133 201.156C138.508 201.156 137.943 201.055 137.438 200.852C136.938 200.643 136.51 200.354 136.156 199.984C135.807 199.615 135.539 199.18 135.352 198.68C135.164 198.18 135.07 197.641 135.07 197.062V196.75C135.07 196.089 135.167 195.49 135.359 194.953C135.552 194.417 135.82 193.958 136.164 193.578C136.508 193.193 136.914 192.898 137.383 192.695C137.852 192.492 138.359 192.391 138.906 192.391C139.51 192.391 140.039 192.492 140.492 192.695C140.945 192.898 141.32 193.185 141.617 193.555C141.919 193.919 142.143 194.354 142.289 194.859C142.44 195.365 142.516 195.922 142.516 196.531V197.336H135.984V195.984H140.656V195.836C140.646 195.497 140.578 195.18 140.453 194.883C140.333 194.586 140.148 194.346 139.898 194.164C139.648 193.982 139.315 193.891 138.898 193.891C138.586 193.891 138.307 193.958 138.062 194.094C137.823 194.224 137.622 194.414 137.461 194.664C137.299 194.914 137.174 195.216 137.086 195.57C137.003 195.919 136.961 196.312 136.961 196.75V197.062C136.961 197.432 137.01 197.776 137.109 198.094C137.214 198.406 137.365 198.68 137.562 198.914C137.76 199.148 138 199.333 138.281 199.469C138.562 199.599 138.883 199.664 139.242 199.664C139.695 199.664 140.099 199.573 140.453 199.391C140.807 199.208 141.115 198.951 141.375 198.617L142.367 199.578C142.185 199.844 141.948 200.099 141.656 200.344C141.365 200.583 141.008 200.779 140.586 200.93C140.169 201.081 139.685 201.156 139.133 201.156ZM148.727 198.711C148.727 198.523 148.68 198.354 148.586 198.203C148.492 198.047 148.312 197.906 148.047 197.781C147.786 197.656 147.401 197.542 146.891 197.438C146.443 197.339 146.031 197.221 145.656 197.086C145.286 196.945 144.969 196.776 144.703 196.578C144.438 196.38 144.232 196.146 144.086 195.875C143.94 195.604 143.867 195.292 143.867 194.938C143.867 194.594 143.943 194.268 144.094 193.961C144.245 193.654 144.461 193.383 144.742 193.148C145.023 192.914 145.365 192.729 145.766 192.594C146.172 192.458 146.625 192.391 147.125 192.391C147.833 192.391 148.44 192.51 148.945 192.75C149.456 192.984 149.846 193.305 150.117 193.711C150.388 194.112 150.523 194.565 150.523 195.07H148.641C148.641 194.846 148.583 194.638 148.469 194.445C148.359 194.247 148.193 194.089 147.969 193.969C147.745 193.844 147.464 193.781 147.125 193.781C146.802 193.781 146.534 193.833 146.32 193.938C146.112 194.036 145.956 194.167 145.852 194.328C145.753 194.49 145.703 194.667 145.703 194.859C145.703 195 145.729 195.128 145.781 195.242C145.839 195.352 145.932 195.453 146.062 195.547C146.193 195.635 146.37 195.719 146.594 195.797C146.823 195.875 147.109 195.951 147.453 196.023C148.099 196.159 148.654 196.333 149.117 196.547C149.586 196.755 149.945 197.026 150.195 197.359C150.445 197.688 150.57 198.104 150.57 198.609C150.57 198.984 150.49 199.328 150.328 199.641C150.172 199.948 149.943 200.216 149.641 200.445C149.339 200.669 148.977 200.844 148.555 200.969C148.138 201.094 147.669 201.156 147.148 201.156C146.383 201.156 145.734 201.021 145.203 200.75C144.672 200.474 144.268 200.122 143.992 199.695C143.721 199.263 143.586 198.815 143.586 198.352H145.406C145.427 198.701 145.523 198.979 145.695 199.188C145.872 199.391 146.091 199.539 146.352 199.633C146.617 199.721 146.891 199.766 147.172 199.766C147.51 199.766 147.794 199.721 148.023 199.633C148.253 199.539 148.427 199.414 148.547 199.258C148.667 199.096 148.727 198.914 148.727 198.711Z" fill="#565656"/>
<rect x="97" y="136" width="267" height="18" rx="4" fill="#F6F6F6"/>
<rect x="97" y="136" width="227" height="18" rx="4" fill="#99FFAF"/>
<path d="M342.297 118.898C342.297 119.607 342.133 120.203 341.805 120.688C341.477 121.172 341.029 121.539 340.461 121.789C339.898 122.034 339.263 122.156 338.555 122.156C337.846 122.156 337.208 122.034 336.641 121.789C336.073 121.539 335.625 121.172 335.297 120.688C334.969 120.203 334.805 119.607 334.805 118.898C334.805 118.43 334.896 118.005 335.078 117.625C335.26 117.24 335.518 116.909 335.852 116.633C336.19 116.352 336.586 116.135 337.039 115.984C337.497 115.833 337.997 115.758 338.539 115.758C339.258 115.758 339.901 115.891 340.469 116.156C341.036 116.422 341.482 116.789 341.805 117.258C342.133 117.727 342.297 118.273 342.297 118.898ZM340.406 118.805C340.406 118.424 340.328 118.091 340.172 117.805C340.016 117.518 339.797 117.297 339.516 117.141C339.234 116.984 338.909 116.906 338.539 116.906C338.164 116.906 337.839 116.984 337.562 117.141C337.286 117.297 337.07 117.518 336.914 117.805C336.763 118.091 336.688 118.424 336.688 118.805C336.688 119.19 336.763 119.523 336.914 119.805C337.065 120.081 337.281 120.292 337.562 120.438C337.844 120.583 338.174 120.656 338.555 120.656C338.935 120.656 339.263 120.583 339.539 120.438C339.815 120.292 340.029 120.081 340.18 119.805C340.331 119.523 340.406 119.19 340.406 118.805ZM342.039 113.617C342.039 114.185 341.888 114.69 341.586 115.133C341.289 115.576 340.878 115.924 340.352 116.18C339.826 116.43 339.227 116.555 338.555 116.555C337.878 116.555 337.273 116.43 336.742 116.18C336.216 115.924 335.802 115.576 335.5 115.133C335.203 114.69 335.055 114.185 335.055 113.617C335.055 112.94 335.203 112.37 335.5 111.906C335.802 111.438 336.216 111.081 336.742 110.836C337.268 110.591 337.87 110.469 338.547 110.469C339.224 110.469 339.826 110.591 340.352 110.836C340.878 111.081 341.289 111.438 341.586 111.906C341.888 112.37 342.039 112.94 342.039 113.617ZM340.156 113.68C340.156 113.341 340.089 113.044 339.953 112.789C339.823 112.529 339.638 112.326 339.398 112.18C339.159 112.034 338.875 111.961 338.547 111.961C338.219 111.961 337.935 112.031 337.695 112.172C337.456 112.312 337.271 112.51 337.141 112.766C337.01 113.021 336.945 113.326 336.945 113.68C336.945 114.029 337.01 114.333 337.141 114.594C337.271 114.849 337.456 115.049 337.695 115.195C337.94 115.341 338.227 115.414 338.555 115.414C338.883 115.414 339.167 115.341 339.406 115.195C339.646 115.049 339.831 114.849 339.961 114.594C340.091 114.333 340.156 114.029 340.156 113.68ZM351.367 115.359V117.219C351.367 118.109 351.279 118.87 351.102 119.5C350.93 120.125 350.68 120.633 350.352 121.023C350.023 121.414 349.63 121.701 349.172 121.883C348.719 122.065 348.211 122.156 347.648 122.156C347.201 122.156 346.784 122.099 346.398 121.984C346.018 121.87 345.674 121.69 345.367 121.445C345.06 121.201 344.797 120.885 344.578 120.5C344.365 120.109 344.198 119.643 344.078 119.102C343.964 118.56 343.906 117.932 343.906 117.219V115.359C343.906 114.464 343.995 113.708 344.172 113.094C344.349 112.474 344.602 111.971 344.93 111.586C345.258 111.195 345.648 110.911 346.102 110.734C346.56 110.557 347.07 110.469 347.633 110.469C348.086 110.469 348.503 110.526 348.883 110.641C349.268 110.75 349.612 110.924 349.914 111.164C350.221 111.404 350.482 111.716 350.695 112.102C350.914 112.482 351.081 112.943 351.195 113.484C351.31 114.021 351.367 114.646 351.367 115.359ZM349.484 117.484V115.078C349.484 114.625 349.458 114.227 349.406 113.883C349.354 113.534 349.276 113.24 349.172 113C349.073 112.755 348.948 112.557 348.797 112.406C348.646 112.25 348.474 112.138 348.281 112.07C348.089 111.997 347.872 111.961 347.633 111.961C347.341 111.961 347.081 112.018 346.852 112.133C346.622 112.242 346.43 112.419 346.273 112.664C346.117 112.909 345.997 113.232 345.914 113.633C345.836 114.029 345.797 114.51 345.797 115.078V117.484C345.797 117.943 345.823 118.346 345.875 118.695C345.927 119.044 346.005 119.344 346.109 119.594C346.214 119.839 346.339 120.042 346.484 120.203C346.635 120.359 346.807 120.474 347 120.547C347.198 120.62 347.414 120.656 347.648 120.656C347.945 120.656 348.208 120.599 348.438 120.484C348.667 120.37 348.859 120.188 349.016 119.938C349.172 119.682 349.289 119.352 349.367 118.945C349.445 118.539 349.484 118.052 349.484 117.484ZM352.969 113.414V112.812C352.969 112.38 353.062 111.987 353.25 111.633C353.438 111.279 353.711 110.995 354.07 110.781C354.43 110.568 354.862 110.461 355.367 110.461C355.888 110.461 356.326 110.568 356.68 110.781C357.039 110.995 357.312 111.279 357.5 111.633C357.688 111.987 357.781 112.38 357.781 112.812V113.414C357.781 113.836 357.688 114.224 357.5 114.578C357.318 114.932 357.047 115.216 356.688 115.43C356.333 115.643 355.898 115.75 355.383 115.75C354.872 115.75 354.435 115.643 354.07 115.43C353.711 115.216 353.438 114.932 353.25 114.578C353.062 114.224 352.969 113.836 352.969 113.414ZM354.273 112.812V113.414C354.273 113.622 354.312 113.82 354.391 114.008C354.474 114.195 354.599 114.346 354.766 114.461C354.932 114.576 355.138 114.633 355.383 114.633C355.633 114.633 355.836 114.576 355.992 114.461C356.154 114.346 356.273 114.195 356.352 114.008C356.43 113.82 356.469 113.622 356.469 113.414V112.812C356.469 112.599 356.427 112.398 356.344 112.211C356.266 112.018 356.146 111.865 355.984 111.75C355.823 111.635 355.617 111.578 355.367 111.578C355.128 111.578 354.924 111.635 354.758 111.75C354.596 111.865 354.474 112.018 354.391 112.211C354.312 112.398 354.273 112.599 354.273 112.812ZM358.453 119.82V119.211C358.453 118.784 358.547 118.393 358.734 118.039C358.927 117.685 359.203 117.401 359.562 117.188C359.922 116.974 360.354 116.867 360.859 116.867C361.38 116.867 361.818 116.974 362.172 117.188C362.531 117.401 362.802 117.685 362.984 118.039C363.172 118.393 363.266 118.784 363.266 119.211V119.82C363.266 120.247 363.172 120.638 362.984 120.992C362.802 121.346 362.534 121.63 362.18 121.844C361.826 122.057 361.393 122.164 360.883 122.164C360.367 122.164 359.927 122.057 359.562 121.844C359.203 121.63 358.927 121.346 358.734 120.992C358.547 120.638 358.453 120.247 358.453 119.82ZM359.766 119.211V119.82C359.766 120.029 359.807 120.227 359.891 120.414C359.979 120.602 360.107 120.755 360.273 120.875C360.44 120.99 360.641 121.047 360.875 121.047C361.141 121.047 361.354 120.99 361.516 120.875C361.677 120.755 361.792 120.604 361.859 120.422C361.932 120.234 361.969 120.034 361.969 119.82V119.211C361.969 118.997 361.927 118.797 361.844 118.609C361.766 118.422 361.643 118.271 361.477 118.156C361.315 118.042 361.109 117.984 360.859 117.984C360.615 117.984 360.411 118.042 360.25 118.156C360.089 118.271 359.966 118.422 359.883 118.609C359.805 118.797 359.766 118.997 359.766 119.211ZM361.328 112.25L355.773 121.141L354.812 120.586L360.367 111.695L361.328 112.25Z" fill="#979797"/>
<path d="M100.25 110.625V122H98.2891V110.625H100.25ZM104.367 115.352V122H102.484V113.547H104.258L104.367 115.352ZM104.031 117.461L103.422 117.453C103.427 116.854 103.51 116.305 103.672 115.805C103.839 115.305 104.068 114.875 104.359 114.516C104.656 114.156 105.01 113.88 105.422 113.688C105.833 113.49 106.292 113.391 106.797 113.391C107.203 113.391 107.57 113.448 107.898 113.562C108.232 113.672 108.516 113.852 108.75 114.102C108.99 114.352 109.172 114.677 109.297 115.078C109.422 115.474 109.484 115.961 109.484 116.539V122H107.594V116.531C107.594 116.125 107.534 115.805 107.414 115.57C107.299 115.331 107.13 115.161 106.906 115.062C106.688 114.958 106.414 114.906 106.086 114.906C105.763 114.906 105.474 114.974 105.219 115.109C104.964 115.245 104.747 115.43 104.57 115.664C104.398 115.898 104.266 116.169 104.172 116.477C104.078 116.784 104.031 117.112 104.031 117.461ZM114.859 120.656C115.167 120.656 115.443 120.596 115.688 120.477C115.938 120.352 116.138 120.18 116.289 119.961C116.445 119.742 116.531 119.49 116.547 119.203H118.32C118.31 119.75 118.148 120.247 117.836 120.695C117.523 121.143 117.109 121.5 116.594 121.766C116.078 122.026 115.508 122.156 114.883 122.156C114.237 122.156 113.674 122.047 113.195 121.828C112.716 121.604 112.318 121.297 112 120.906C111.682 120.516 111.443 120.065 111.281 119.555C111.125 119.044 111.047 118.497 111.047 117.914V117.641C111.047 117.057 111.125 116.51 111.281 116C111.443 115.484 111.682 115.031 112 114.641C112.318 114.25 112.716 113.945 113.195 113.727C113.674 113.503 114.234 113.391 114.875 113.391C115.552 113.391 116.146 113.526 116.656 113.797C117.167 114.062 117.568 114.435 117.859 114.914C118.156 115.388 118.31 115.94 118.32 116.57H116.547C116.531 116.258 116.453 115.977 116.312 115.727C116.177 115.471 115.984 115.268 115.734 115.117C115.49 114.966 115.195 114.891 114.852 114.891C114.471 114.891 114.156 114.969 113.906 115.125C113.656 115.276 113.461 115.484 113.32 115.75C113.18 116.01 113.078 116.305 113.016 116.633C112.958 116.956 112.93 117.292 112.93 117.641V117.914C112.93 118.263 112.958 118.602 113.016 118.93C113.073 119.258 113.172 119.552 113.312 119.812C113.458 120.068 113.656 120.273 113.906 120.43C114.156 120.581 114.474 120.656 114.859 120.656ZM119.406 117.867V117.688C119.406 117.078 119.495 116.513 119.672 115.992C119.849 115.466 120.104 115.01 120.438 114.625C120.776 114.234 121.188 113.932 121.672 113.719C122.161 113.5 122.714 113.391 123.328 113.391C123.948 113.391 124.5 113.5 124.984 113.719C125.474 113.932 125.888 114.234 126.227 114.625C126.565 115.01 126.823 115.466 127 115.992C127.177 116.513 127.266 117.078 127.266 117.688V117.867C127.266 118.477 127.177 119.042 127 119.562C126.823 120.083 126.565 120.539 126.227 120.93C125.888 121.315 125.477 121.617 124.992 121.836C124.508 122.049 123.958 122.156 123.344 122.156C122.724 122.156 122.169 122.049 121.68 121.836C121.195 121.617 120.784 121.315 120.445 120.93C120.107 120.539 119.849 120.083 119.672 119.562C119.495 119.042 119.406 118.477 119.406 117.867ZM121.289 117.688V117.867C121.289 118.247 121.328 118.607 121.406 118.945C121.484 119.284 121.607 119.581 121.773 119.836C121.94 120.091 122.154 120.292 122.414 120.438C122.674 120.583 122.984 120.656 123.344 120.656C123.693 120.656 123.995 120.583 124.25 120.438C124.51 120.292 124.724 120.091 124.891 119.836C125.057 119.581 125.18 119.284 125.258 118.945C125.341 118.607 125.383 118.247 125.383 117.867V117.688C125.383 117.312 125.341 116.958 125.258 116.625C125.18 116.286 125.055 115.987 124.883 115.727C124.716 115.466 124.503 115.263 124.242 115.117C123.987 114.966 123.682 114.891 123.328 114.891C122.974 114.891 122.667 114.966 122.406 115.117C122.151 115.263 121.94 115.466 121.773 115.727C121.607 115.987 121.484 116.286 121.406 116.625C121.328 116.958 121.289 117.312 121.289 117.688ZM130.727 115.266V122H128.844V113.547H130.617L130.727 115.266ZM130.422 117.461L129.781 117.453C129.781 116.87 129.854 116.331 130 115.836C130.146 115.341 130.359 114.911 130.641 114.547C130.922 114.177 131.271 113.893 131.688 113.695C132.109 113.492 132.596 113.391 133.148 113.391C133.534 113.391 133.885 113.448 134.203 113.562C134.526 113.672 134.805 113.846 135.039 114.086C135.279 114.326 135.461 114.633 135.586 115.008C135.716 115.383 135.781 115.836 135.781 116.367V122H133.898V116.531C133.898 116.12 133.836 115.797 133.711 115.562C133.591 115.328 133.417 115.161 133.188 115.062C132.964 114.958 132.695 114.906 132.383 114.906C132.029 114.906 131.727 114.974 131.477 115.109C131.232 115.245 131.031 115.43 130.875 115.664C130.719 115.898 130.604 116.169 130.531 116.477C130.458 116.784 130.422 117.112 130.422 117.461ZM135.664 116.961L134.781 117.156C134.781 116.646 134.852 116.164 134.992 115.711C135.138 115.253 135.349 114.852 135.625 114.508C135.906 114.159 136.253 113.885 136.664 113.688C137.076 113.49 137.547 113.391 138.078 113.391C138.51 113.391 138.896 113.451 139.234 113.57C139.578 113.685 139.87 113.867 140.109 114.117C140.349 114.367 140.531 114.693 140.656 115.094C140.781 115.49 140.844 115.969 140.844 116.531V122H138.953V116.523C138.953 116.096 138.891 115.766 138.766 115.531C138.646 115.297 138.474 115.135 138.25 115.047C138.026 114.953 137.758 114.906 137.445 114.906C137.154 114.906 136.896 114.961 136.672 115.07C136.453 115.174 136.268 115.323 136.117 115.516C135.966 115.703 135.852 115.919 135.773 116.164C135.701 116.409 135.664 116.674 135.664 116.961ZM146.508 122.156C145.883 122.156 145.318 122.055 144.812 121.852C144.312 121.643 143.885 121.354 143.531 120.984C143.182 120.615 142.914 120.18 142.727 119.68C142.539 119.18 142.445 118.641 142.445 118.062V117.75C142.445 117.089 142.542 116.49 142.734 115.953C142.927 115.417 143.195 114.958 143.539 114.578C143.883 114.193 144.289 113.898 144.758 113.695C145.227 113.492 145.734 113.391 146.281 113.391C146.885 113.391 147.414 113.492 147.867 113.695C148.32 113.898 148.695 114.185 148.992 114.555C149.294 114.919 149.518 115.354 149.664 115.859C149.815 116.365 149.891 116.922 149.891 117.531V118.336H143.359V116.984H148.031V116.836C148.021 116.497 147.953 116.18 147.828 115.883C147.708 115.586 147.523 115.346 147.273 115.164C147.023 114.982 146.69 114.891 146.273 114.891C145.961 114.891 145.682 114.958 145.438 115.094C145.198 115.224 144.997 115.414 144.836 115.664C144.674 115.914 144.549 116.216 144.461 116.57C144.378 116.919 144.336 117.312 144.336 117.75V118.062C144.336 118.432 144.385 118.776 144.484 119.094C144.589 119.406 144.74 119.68 144.938 119.914C145.135 120.148 145.375 120.333 145.656 120.469C145.938 120.599 146.258 120.664 146.617 120.664C147.07 120.664 147.474 120.573 147.828 120.391C148.182 120.208 148.49 119.951 148.75 119.617L149.742 120.578C149.56 120.844 149.323 121.099 149.031 121.344C148.74 121.583 148.383 121.779 147.961 121.93C147.544 122.081 147.06 122.156 146.508 122.156Z" fill="#565656"/>
<defs>
<filter id="filter0_d_1_270" x="0" y="0" width="476" height="466" filterUnits="userSpaceOnUse" color-interpolation-filters="sRGB">
<feFlood flood-opacity="0" result="BackgroundImageFix"/>
<feColorMatrix in="SourceAlpha" type="matrix" values="0 0 0 0 0 0 0 0 0 0 0 0 0 0 0 0 0 0 127 0" result="hardAlpha"/>
<feOffset dx="4" dy="40"/>
<feGaussianBlur stdDeviation="30"/>
<feComposite in2="hardAlpha" operator="out"/>
<feColorMatrix type="matrix" values="0 0 0 0 0.0210069 0 0 0 0 0.229167 0 0 0 0 0.229167 0 0 0 0.12 0"/>
<feBlend mode="normal" in2="BackgroundImageFix" result="effect1_dropShadow_1_270"/>
<feBlend mode="normal" in="SourceGraphic" in2="effect1_dropShadow_1_270" result="shape"/>
</filter>
</defs>
</svg>
