<svg width="39" height="39" viewBox="0 0 39 39" fill="none" xmlns="http://www.w3.org/2000/svg">
<rect width="39" height="39" rx="4" fill="#CAFFD2"/>
<g clip-path="url(#clip0_1_183)">
<path d="M21.9322 12C22.7456 12.0008 23.5255 12.3243 24.1007 12.8995C24.6759 13.4747 24.9994 14.2546 25.0002 15.068C25.0002 15.3332 25.1055 15.5876 25.293 15.7751C25.4806 15.9626 25.7349 16.068 26.0002 16.068C26.2654 16.068 26.5197 15.9626 26.7073 15.7751C26.8948 15.5876 27.0002 15.3332 27.0002 15.068V15C27.0002 14.981 27.0002 14.964 27.0002 14.945C26.9668 13.6227 26.4183 12.3658 25.4716 11.4421C24.5249 10.5183 23.2548 10.0009 21.9322 10H21.0002V9C21.0002 8.73478 20.8948 8.48043 20.7073 8.29289C20.5197 8.10536 20.2654 8 20.0002 8C19.7349 8 19.4806 8.10536 19.293 8.29289C19.1055 8.48043 19.0002 8.73478 19.0002 9V10H18.0682C16.8655 10.0013 15.7024 10.4302 14.7869 11.2102C13.8715 11.9901 13.2632 13.0702 13.0708 14.2574C12.8784 15.4446 13.1146 16.6615 13.7369 17.6907C14.3593 18.7198 15.3274 19.494 16.4682 19.875L19.0002 20.72V28H18.0682C17.2547 27.9992 16.4748 27.6757 15.8996 27.1005C15.3244 26.5253 15.0009 25.7454 15.0002 24.932C15.0002 24.6668 14.8948 24.4124 14.7073 24.2249C14.5197 24.0374 14.2654 23.932 14.0002 23.932C13.7349 23.932 13.4806 24.0374 13.293 24.2249C13.1055 24.4124 13.0002 24.6668 13.0002 24.932V25C13.0002 25.019 13.0002 25.036 13.0002 25.055C13.0335 26.3773 13.582 27.6342 14.5287 28.5579C15.4754 29.4817 16.7455 29.9991 18.0682 30H19.0002V31C19.0002 31.2652 19.1055 31.5196 19.293 31.7071C19.4806 31.8946 19.7349 32 20.0002 32C20.2654 32 20.5197 31.8946 20.7073 31.7071C20.8948 31.5196 21.0002 31.2652 21.0002 31V30H21.9322C23.1348 29.9987 24.2979 29.5698 25.2134 28.7898C26.1289 28.0099 26.7371 26.9298 26.9295 25.7426C27.1219 24.5554 26.8857 23.3385 26.2634 22.3093C25.641 21.2802 24.6729 20.506 23.5322 20.125L21.0002 19.28V12H21.9322ZM22.9022 22.021C23.5936 22.2511 24.1805 22.7198 24.5579 23.3432C24.9352 23.9666 25.0784 24.704 24.9617 25.4233C24.845 26.1426 24.4761 26.7969 23.921 27.269C23.3659 27.7411 22.6609 28.0003 21.9322 28H21.0002V21.387L22.9022 22.021ZM19.0002 18.613L17.1002 17.979C16.4089 17.7489 15.8221 17.2804 15.4447 16.6572C15.0673 16.034 14.924 15.2969 15.0405 14.5777C15.1569 13.8585 15.5255 13.2042 16.0802 12.7319C16.6349 12.2597 17.3396 12.0002 18.0682 12H19.0002V18.613Z" fill="#33DF58"/>
</g>
<defs>
<clipPath id="clip0_1_183">
<rect width="24" height="24" fill="white" transform="translate(8 8)"/>
</clipPath>
</defs>
</svg>
