<svg width="102" height="102" viewBox="0 0 102 102" fill="none" xmlns="http://www.w3.org/2000/svg">
<circle cx="51" cy="51" r="51" fill="#FDE4E4"/>
<g clip-path="url(#clip0_1_104)">
<path d="M64.7106 30.4598L51.6586 26.1077C51.2312 25.9654 50.7692 25.9654 50.3419 26.1077L37.2898 30.4598C35.2146 31.1491 33.4094 32.4749 32.1307 34.2488C30.852 36.0227 30.1649 38.1544 30.1669 40.3411V51.0015C30.1669 66.7577 49.3336 75.4598 50.1544 75.8223C50.4207 75.9406 50.7088 76.0017 51.0002 76.0017C51.2916 76.0017 51.5798 75.9406 51.8461 75.8223C52.6669 75.4598 71.8336 66.7577 71.8336 51.0015V40.3411C71.8356 38.1544 71.1484 36.0227 69.8697 34.2488C68.591 32.4749 66.7858 31.1491 64.7106 30.4598ZM67.6669 51.0015C67.6669 62.3661 54.5023 69.8202 51.0002 71.6036C47.494 69.8265 34.3336 62.3952 34.3336 51.0015V40.3411C34.3337 39.0291 34.7466 37.7505 35.5139 36.6864C36.2812 35.6222 37.3639 34.8265 38.6086 34.4119L51.0002 30.2806L63.3919 34.4119C64.6366 34.8265 65.7193 35.6222 66.4865 36.6864C67.2538 37.7505 67.6668 39.0291 67.6669 40.3411V51.0015Z" fill="#FF6B6B"/>
<path d="M57.8749 43.2923L49.1499 52.0423L44.4749 47.1673C44.2873 46.9622 44.0605 46.7967 43.8079 46.6805C43.5554 46.5644 43.2821 46.5 43.0042 46.4911C42.7264 46.4822 42.4496 46.529 42.1901 46.6287C41.9306 46.7285 41.6937 46.8791 41.4934 47.0718C41.293 47.2646 41.1332 47.4954 41.0235 47.7508C40.9137 48.0062 40.8562 48.281 40.8543 48.559C40.8524 48.837 40.9061 49.1125 41.0123 49.3694C41.1186 49.6263 41.2751 49.8594 41.4728 50.0548L46.277 55.0548C46.6352 55.4418 47.0683 55.7521 47.5499 55.967C48.0315 56.1818 48.5517 56.2968 49.079 56.3048H49.1478C49.6646 56.3065 50.1766 56.2056 50.654 56.0078C51.1314 55.81 51.5648 55.5194 51.929 55.1528L60.829 46.2527C61.0234 46.0588 61.1777 45.8284 61.2831 45.5748C61.3884 45.3212 61.4428 45.0493 61.4431 44.7747C61.4434 44.5001 61.3896 44.2281 61.2848 43.9743C61.1799 43.7205 61.0261 43.4898 60.8322 43.2954C60.6382 43.1011 60.4078 42.9468 60.1542 42.8414C59.9006 42.7361 59.6288 42.6817 59.3542 42.6814C59.0796 42.6811 58.8076 42.7349 58.5538 42.8397C58.2999 42.9446 58.0693 43.0983 57.8749 43.2923Z" fill="#FF6B6B"/>
</g>
<defs>
<clipPath id="clip0_1_104">
<rect width="50" height="50" fill="white" transform="translate(26 26)"/>
</clipPath>
</defs>
</svg>
