<svg width="39" height="39" viewBox="0 0 39 39" fill="none" xmlns="http://www.w3.org/2000/svg">
<rect width="39" height="39" rx="4" fill="#FFEE91"/>
<g clip-path="url(#clip0_1_188)">
<path d="M32 31C32 31.2652 31.8947 31.5196 31.7071 31.7071C31.5196 31.8947 31.2652 32 31 32H9.00002C8.73481 32 8.48045 31.8947 8.29292 31.7071C8.10538 31.5196 8.00002 31.2652 8.00002 31C8.00002 30.7348 8.10538 30.4805 8.29292 30.2929C8.48045 30.1054 8.73481 30 9.00002 30H31C31.2652 30 31.5196 30.1054 31.7071 30.2929C31.8947 30.4805 32 30.7348 32 31ZM8.29102 16.552C8.07555 16.1524 7.97572 15.7005 8.00275 15.2473C8.02977 14.794 8.18258 14.3573 8.44402 13.986C8.87128 13.3591 9.44347 12.8446 10.112 12.486L17.613 8.58202C18.3503 8.19866 19.169 7.9985 20 7.9985C20.831 7.9985 21.6498 8.19866 22.387 8.58202L29.887 12.489C30.5556 12.8476 31.1278 13.3621 31.555 13.989C31.8165 14.3603 31.9693 14.797 31.9963 15.2503C32.0233 15.7035 31.9235 16.1554 31.708 16.555C31.476 16.9939 31.1281 17.3606 30.7021 17.6154C30.2761 17.8702 29.7884 18.0032 29.292 18H29V26H30C30.2652 26 30.5196 26.1054 30.7071 26.2929C30.8947 26.4805 31 26.7348 31 27C31 27.2652 30.8947 27.5196 30.7071 27.7071C30.5196 27.8947 30.2652 28 30 28H10C9.73481 28 9.48045 27.8947 9.29292 27.7071C9.10538 27.5196 9.00002 27.2652 9.00002 27C9.00002 26.7348 9.10538 26.4805 9.29292 26.2929C9.48045 26.1054 9.73481 26 10 26H11V18H10.708C10.2112 18.0031 9.72303 17.8697 9.29681 17.6144C8.8706 17.359 8.52268 16.9916 8.29102 16.552ZM13 26H16V18H13V26ZM18 18V26H22V18H18ZM27 18H24V26H27V18ZM10.063 15.625C10.1258 15.7407 10.2191 15.8369 10.3329 15.903C10.4467 15.9692 10.5765 16.0027 10.708 16H29.292C29.4236 16.0027 29.5534 15.9692 29.6671 15.903C29.7809 15.8369 29.8743 15.7407 29.937 15.625C29.9827 15.5486 30.0048 15.4604 30.0006 15.3714C29.9963 15.2824 29.9658 15.1967 29.913 15.125C29.6707 14.7649 29.3452 14.4686 28.964 14.261L21.464 10.354C21.012 10.1194 20.5103 9.997 20.001 9.997C19.4918 9.997 18.99 10.1194 18.538 10.354L11.038 14.261C10.657 14.4692 10.3316 14.7659 10.089 15.126C10.0361 15.1974 10.0054 15.2829 10.0008 15.3716C9.99618 15.4604 10.0178 15.5485 10.063 15.625Z" fill="#B59F28"/>
</g>
<defs>
<clipPath id="clip0_1_188">
<rect width="24" height="24" fill="white" transform="translate(8 8)"/>
</clipPath>
</defs>
</svg>
