<svg width="102" height="102" viewBox="0 0 102 102" fill="none" xmlns="http://www.w3.org/2000/svg">
<circle cx="51" cy="51" r="51" fill="#DAFAFC"/>
<g clip-path="url(#clip0_1_110)">
<path d="M71.9517 36.8955L56.5892 29.5768C53.2076 27.5568 48.9986 27.521 45.583 29.483L30.0476 36.8955C29.9893 36.9247 29.9288 36.9559 29.8726 36.9893C26.1859 39.0973 24.906 43.7948 27.014 47.4815C27.7286 48.7313 28.7796 49.7554 30.0476 50.4372L34.333 52.4789V62.6872C34.3356 67.2519 37.3058 71.2848 41.6643 72.6414C44.6974 73.5188 47.8424 73.9484 50.9997 73.9164C54.1566 73.9517 57.3016 73.5258 60.3352 72.6518C64.6937 71.2953 67.6639 67.2624 67.6664 62.6976V52.4747L71.8331 50.483V67.6663C71.8331 68.8169 72.7659 69.7496 73.9164 69.7496C75.067 69.7496 75.9997 68.8169 75.9997 67.6663V42.6663C76.0136 40.2199 74.082 37.96 71.9517 36.8955ZM63.4996 62.6976C63.5007 65.428 61.7292 67.8432 59.1246 68.6622C56.4834 69.4169 53.7464 69.7832 50.9996 69.7497C48.2529 69.7832 45.5159 69.4169 42.8747 68.6622C40.2701 67.8431 38.4986 65.428 38.4997 62.6976V54.4643L45.4101 57.756C47.1152 58.7685 49.0625 59.3006 51.0455 59.2956C52.933 59.309 54.7888 58.8093 56.4143 57.8498L63.4996 54.4642V62.6976ZM70.1663 46.6768L54.4538 54.1767C52.263 55.4524 49.5475 55.4163 47.3913 54.083L32.0184 46.7705C30.3048 45.8465 29.6648 43.7083 30.5888 41.9948C30.9013 41.4153 31.3699 40.935 31.9413 40.608L47.5559 33.1497C49.7474 31.8768 52.4615 31.9129 54.6184 33.2434L69.9809 40.5622C71.1107 41.1895 71.8175 42.3742 71.833 43.6664C71.835 44.8904 71.2047 46.0287 70.1663 46.6768Z" fill="#008080"/>
</g>
<defs>
<clipPath id="clip0_1_110">
<rect width="50" height="50" fill="white" transform="translate(26 26)"/>
</clipPath>
</defs>
</svg>
