<svg width="39" height="39" viewBox="0 0 39 39" fill="none" xmlns="http://www.w3.org/2000/svg">
<rect width="39" height="39" rx="4" fill="#70F1EA"/>
<g clip-path="url(#clip0_1_173)">
<path d="M31.1212 17.0689L23.5362 9.48293C22.5975 8.54692 21.3259 8.0213 20.0002 8.0213C18.6745 8.0213 17.403 8.54692 16.4642 9.48293L8.87921 17.0689C8.59964 17.3467 8.37798 17.6772 8.22709 18.0413C8.07621 18.4054 7.99909 18.7958 8.00021 19.1899V29.0069C8.00021 29.8026 8.31628 30.5656 8.87889 31.1282C9.4415 31.6909 10.2046 32.0069 11.0002 32.0069H29.0002C29.7959 32.0069 30.5589 31.6909 31.1215 31.1282C31.6841 30.5656 32.0002 29.8026 32.0002 29.0069V19.1899C32.0013 18.7958 31.9242 18.4054 31.7733 18.0413C31.6224 17.6772 31.4008 17.3467 31.1212 17.0689ZM23.0002 30.0069H17.0002V26.0729C17.0002 25.2773 17.3163 24.5142 17.8789 23.9516C18.4415 23.389 19.2046 23.0729 20.0002 23.0729C20.7959 23.0729 21.5589 23.389 22.1215 23.9516C22.6841 24.5142 23.0002 25.2773 23.0002 26.0729V30.0069ZM30.0002 29.0069C30.0002 29.2721 29.8949 29.5265 29.7073 29.714C29.5198 29.9016 29.2654 30.0069 29.0002 30.0069H25.0002V26.0729C25.0002 24.7468 24.4734 23.4751 23.5357 22.5374C22.5981 21.5997 21.3263 21.0729 20.0002 21.0729C18.6741 21.0729 17.4024 21.5997 16.4647 22.5374C15.527 23.4751 15.0002 24.7468 15.0002 26.0729V30.0069H11.0002C10.735 30.0069 10.4806 29.9016 10.2931 29.714C10.1056 29.5265 10.0002 29.2721 10.0002 29.0069V19.1899C10.0011 18.9249 10.1064 18.6709 10.2932 18.4829L17.8782 10.8999C18.4419 10.3389 19.2049 10.0239 20.0002 10.0239C20.7955 10.0239 21.5585 10.3389 22.1222 10.8999L29.7072 18.4859C29.8933 18.6732 29.9985 18.9259 30.0002 19.1899V29.0069Z" fill="#27B4AC"/>
</g>
<defs>
<clipPath id="clip0_1_173">
<rect width="24" height="24" fill="white" transform="translate(8 8)"/>
</clipPath>
</defs>
</svg>
