<svg width="476" height="466" viewBox="0 0 476 466" fill="none" xmlns="http://www.w3.org/2000/svg">
<g filter="url(#filter0_d_1_219)">
<path d="M56 55C56 35.67 71.67 20 91 20H408C410.209 20 412 21.7909 412 24V331C412 350.33 396.33 366 377 366H60C57.7909 366 56 364.209 56 362V55Z" fill="white"/>
</g>
<path d="M76 115C76 95.67 91.67 80 111 80H388C390.209 80 392 81.7909 392 84V311C392 330.33 376.33 346 357 346H80C77.7909 346 76 344.209 76 342V115Z" fill="#EAFFFF" fill-opacity="0.2"/>
<path d="M365 234.5C367.209 234.5 369.006 232.709 368.941 230.5C368.456 214.07 364.985 197.853 358.686 182.646C351.876 166.207 341.895 151.269 329.313 138.687C316.731 126.105 301.793 116.124 285.354 109.314C268.914 102.505 251.294 99 233.5 99C215.706 99 198.086 102.505 181.646 109.314C165.207 116.124 150.269 126.105 137.687 138.687C125.105 151.269 115.124 166.207 108.314 182.646C102.015 197.853 98.5442 214.07 98.059 230.5C97.9938 232.709 99.7909 234.5 102 234.5H122.683C124.892 234.5 126.675 232.708 126.757 230.501C127.232 217.838 129.956 205.35 134.814 193.623C140.182 180.663 148.05 168.888 157.969 158.969C167.888 149.05 179.663 141.182 192.623 135.814C205.582 130.445 219.473 127.683 233.5 127.683C247.527 127.683 261.418 130.445 274.377 135.814C287.337 141.182 299.112 149.05 309.031 158.969C318.95 168.888 326.818 180.663 332.186 193.623C337.044 205.35 339.768 217.838 340.243 230.501C340.325 232.708 342.108 234.5 344.317 234.5H365Z" fill="#EFEFEF"/>
<path d="M205.891 226.766C205.891 228.193 205.557 229.396 204.891 230.375C204.224 231.344 203.307 232.078 202.141 232.578C200.984 233.068 199.672 233.312 198.203 233.312C196.734 233.312 195.417 233.068 194.25 232.578C193.083 232.078 192.161 231.344 191.484 230.375C190.807 229.396 190.469 228.193 190.469 226.766C190.469 225.807 190.661 224.943 191.047 224.172C191.432 223.391 191.969 222.724 192.656 222.172C193.354 221.609 194.172 221.182 195.109 220.891C196.047 220.589 197.068 220.438 198.172 220.438C199.651 220.438 200.974 220.698 202.141 221.219C203.307 221.74 204.224 222.474 204.891 223.422C205.557 224.37 205.891 225.484 205.891 226.766ZM201.359 226.469C201.359 225.771 201.224 225.172 200.953 224.672C200.693 224.161 200.323 223.771 199.844 223.5C199.365 223.229 198.807 223.094 198.172 223.094C197.536 223.094 196.979 223.229 196.5 223.5C196.021 223.771 195.646 224.161 195.375 224.672C195.115 225.172 194.984 225.771 194.984 226.469C194.984 227.156 195.115 227.75 195.375 228.25C195.646 228.75 196.021 229.135 196.5 229.406C196.99 229.667 197.557 229.797 198.203 229.797C198.849 229.797 199.406 229.667 199.875 229.406C200.354 229.135 200.719 228.75 200.969 228.25C201.229 227.75 201.359 227.156 201.359 226.469ZM205.406 216.281C205.406 217.438 205.099 218.464 204.484 219.359C203.87 220.245 203.016 220.938 201.922 221.438C200.839 221.938 199.599 222.188 198.203 222.188C196.797 222.188 195.547 221.938 194.453 221.438C193.359 220.938 192.505 220.245 191.891 219.359C191.276 218.464 190.969 217.438 190.969 216.281C190.969 214.906 191.276 213.75 191.891 212.812C192.516 211.865 193.37 211.146 194.453 210.656C195.547 210.167 196.786 209.922 198.172 209.922C199.578 209.922 200.823 210.167 201.906 210.656C203 211.146 203.854 211.865 204.469 212.812C205.094 213.75 205.406 214.906 205.406 216.281ZM200.906 216.484C200.906 215.87 200.797 215.339 200.578 214.891C200.359 214.432 200.047 214.078 199.641 213.828C199.245 213.578 198.755 213.453 198.172 213.453C197.609 213.453 197.125 213.573 196.719 213.812C196.323 214.052 196.016 214.401 195.797 214.859C195.589 215.307 195.484 215.849 195.484 216.484C195.484 217.099 195.589 217.641 195.797 218.109C196.016 218.568 196.328 218.927 196.734 219.188C197.141 219.448 197.63 219.578 198.203 219.578C198.776 219.578 199.26 219.448 199.656 219.188C200.062 218.927 200.37 218.568 200.578 218.109C200.797 217.641 200.906 217.099 200.906 216.484ZM224.266 226.766C224.266 228.193 223.932 229.396 223.266 230.375C222.599 231.344 221.682 232.078 220.516 232.578C219.359 233.068 218.047 233.312 216.578 233.312C215.109 233.312 213.792 233.068 212.625 232.578C211.458 232.078 210.536 231.344 209.859 230.375C209.182 229.396 208.844 228.193 208.844 226.766C208.844 225.807 209.036 224.943 209.422 224.172C209.807 223.391 210.344 222.724 211.031 222.172C211.729 221.609 212.547 221.182 213.484 220.891C214.422 220.589 215.443 220.438 216.547 220.438C218.026 220.438 219.349 220.698 220.516 221.219C221.682 221.74 222.599 222.474 223.266 223.422C223.932 224.37 224.266 225.484 224.266 226.766ZM219.734 226.469C219.734 225.771 219.599 225.172 219.328 224.672C219.068 224.161 218.698 223.771 218.219 223.5C217.74 223.229 217.182 223.094 216.547 223.094C215.911 223.094 215.354 223.229 214.875 223.5C214.396 223.771 214.021 224.161 213.75 224.672C213.49 225.172 213.359 225.771 213.359 226.469C213.359 227.156 213.49 227.75 213.75 228.25C214.021 228.75 214.396 229.135 214.875 229.406C215.365 229.667 215.932 229.797 216.578 229.797C217.224 229.797 217.781 229.667 218.25 229.406C218.729 229.135 219.094 228.75 219.344 228.25C219.604 227.75 219.734 227.156 219.734 226.469ZM223.781 216.281C223.781 217.438 223.474 218.464 222.859 219.359C222.245 220.245 221.391 220.938 220.297 221.438C219.214 221.938 217.974 222.188 216.578 222.188C215.172 222.188 213.922 221.938 212.828 221.438C211.734 220.938 210.88 220.245 210.266 219.359C209.651 218.464 209.344 217.438 209.344 216.281C209.344 214.906 209.651 213.75 210.266 212.812C210.891 211.865 211.745 211.146 212.828 210.656C213.922 210.167 215.161 209.922 216.547 209.922C217.953 209.922 219.198 210.167 220.281 210.656C221.375 211.146 222.229 211.865 222.844 212.812C223.469 213.75 223.781 214.906 223.781 216.281ZM219.281 216.484C219.281 215.87 219.172 215.339 218.953 214.891C218.734 214.432 218.422 214.078 218.016 213.828C217.62 213.578 217.13 213.453 216.547 213.453C215.984 213.453 215.5 213.573 215.094 213.812C214.698 214.052 214.391 214.401 214.172 214.859C213.964 215.307 213.859 215.849 213.859 216.484C213.859 217.099 213.964 217.641 214.172 218.109C214.391 218.568 214.703 218.927 215.109 219.188C215.516 219.448 216.005 219.578 216.578 219.578C217.151 219.578 217.635 219.448 218.031 219.188C218.438 218.927 218.745 218.568 218.953 218.109C219.172 217.641 219.281 217.099 219.281 216.484ZM227.719 230.828C227.719 230.161 227.948 229.604 228.406 229.156C228.875 228.708 229.495 228.484 230.266 228.484C231.036 228.484 231.651 228.708 232.109 229.156C232.578 229.604 232.812 230.161 232.812 230.828C232.812 231.495 232.578 232.052 232.109 232.5C231.651 232.948 231.036 233.172 230.266 233.172C229.495 233.172 228.875 232.948 228.406 232.5C227.948 232.052 227.719 231.495 227.719 230.828ZM252.047 210.25V212.672L243.25 233H238.5L247.297 213.766H235.969V210.25H252.047ZM254.906 215.828V214.625C254.906 213.76 255.094 212.974 255.469 212.266C255.844 211.557 256.396 210.99 257.125 210.562C257.854 210.135 258.75 209.922 259.812 209.922C260.906 209.922 261.818 210.135 262.547 210.562C263.286 210.99 263.839 211.557 264.203 212.266C264.578 212.974 264.766 213.76 264.766 214.625V215.828C264.766 216.672 264.578 217.448 264.203 218.156C263.839 218.865 263.292 219.432 262.562 219.859C261.833 220.286 260.932 220.5 259.859 220.5C258.776 220.5 257.865 220.286 257.125 219.859C256.396 219.432 255.844 218.865 255.469 218.156C255.094 217.448 254.906 216.672 254.906 215.828ZM257.891 214.625V215.828C257.891 216.193 257.958 216.542 258.094 216.875C258.24 217.198 258.458 217.464 258.75 217.672C259.052 217.87 259.417 217.969 259.844 217.969C260.292 217.969 260.656 217.87 260.938 217.672C261.219 217.464 261.427 217.198 261.562 216.875C261.698 216.542 261.766 216.193 261.766 215.828V214.625C261.766 214.24 261.693 213.885 261.547 213.562C261.411 213.229 261.198 212.964 260.906 212.766C260.625 212.557 260.26 212.453 259.812 212.453C259.396 212.453 259.042 212.557 258.75 212.766C258.458 212.964 258.24 213.229 258.094 213.562C257.958 213.885 257.891 214.24 257.891 214.625ZM265.781 228.625V227.422C265.781 226.568 265.969 225.786 266.344 225.078C266.729 224.37 267.286 223.802 268.016 223.375C268.755 222.948 269.661 222.734 270.734 222.734C271.818 222.734 272.724 222.948 273.453 223.375C274.182 223.802 274.734 224.37 275.109 225.078C275.484 225.786 275.672 226.568 275.672 227.422V228.625C275.672 229.479 275.484 230.26 275.109 230.969C274.745 231.677 274.198 232.245 273.469 232.672C272.74 233.099 271.839 233.312 270.766 233.312C269.682 233.312 268.771 233.099 268.031 232.672C267.292 232.245 266.729 231.677 266.344 230.969C265.969 230.26 265.781 229.479 265.781 228.625ZM268.781 227.422V228.625C268.781 229 268.865 229.354 269.031 229.688C269.198 230.021 269.427 230.286 269.719 230.484C270.021 230.682 270.37 230.781 270.766 230.781C271.266 230.781 271.656 230.682 271.938 230.484C272.219 230.286 272.411 230.021 272.516 229.688C272.63 229.354 272.688 229 272.688 228.625V227.422C272.688 227.047 272.615 226.698 272.469 226.375C272.323 226.042 272.104 225.776 271.812 225.578C271.531 225.37 271.172 225.266 270.734 225.266C270.297 225.266 269.932 225.37 269.641 225.578C269.359 225.776 269.146 226.042 269 226.375C268.854 226.698 268.781 227.047 268.781 227.422ZM271.844 213.5L260.734 231.281L258.547 230.125L269.656 212.344L271.844 213.5Z" fill="#565656"/>
<path d="M109.273 265.359V267.219C109.273 268.109 109.185 268.87 109.008 269.5C108.836 270.125 108.586 270.633 108.258 271.023C107.93 271.414 107.536 271.701 107.078 271.883C106.625 272.065 106.117 272.156 105.555 272.156C105.107 272.156 104.69 272.099 104.305 271.984C103.924 271.87 103.581 271.69 103.273 271.445C102.966 271.201 102.703 270.885 102.484 270.5C102.271 270.109 102.104 269.643 101.984 269.102C101.87 268.56 101.812 267.932 101.812 267.219V265.359C101.812 264.464 101.901 263.708 102.078 263.094C102.255 262.474 102.508 261.971 102.836 261.586C103.164 261.195 103.555 260.911 104.008 260.734C104.466 260.557 104.977 260.469 105.539 260.469C105.992 260.469 106.409 260.526 106.789 260.641C107.174 260.75 107.518 260.924 107.82 261.164C108.128 261.404 108.388 261.716 108.602 262.102C108.82 262.482 108.987 262.943 109.102 263.484C109.216 264.021 109.273 264.646 109.273 265.359ZM107.391 267.484V265.078C107.391 264.625 107.365 264.227 107.312 263.883C107.26 263.534 107.182 263.24 107.078 263C106.979 262.755 106.854 262.557 106.703 262.406C106.552 262.25 106.38 262.138 106.188 262.07C105.995 261.997 105.779 261.961 105.539 261.961C105.247 261.961 104.987 262.018 104.758 262.133C104.529 262.242 104.336 262.419 104.18 262.664C104.023 262.909 103.904 263.232 103.82 263.633C103.742 264.029 103.703 264.51 103.703 265.078V267.484C103.703 267.943 103.729 268.346 103.781 268.695C103.833 269.044 103.911 269.344 104.016 269.594C104.12 269.839 104.245 270.042 104.391 270.203C104.542 270.359 104.714 270.474 104.906 270.547C105.104 270.62 105.32 270.656 105.555 270.656C105.852 270.656 106.115 270.599 106.344 270.484C106.573 270.37 106.766 270.188 106.922 269.938C107.078 269.682 107.195 269.352 107.273 268.945C107.352 268.539 107.391 268.052 107.391 267.484ZM110.875 263.414V262.812C110.875 262.38 110.969 261.987 111.156 261.633C111.344 261.279 111.617 260.995 111.977 260.781C112.336 260.568 112.768 260.461 113.273 260.461C113.794 260.461 114.232 260.568 114.586 260.781C114.945 260.995 115.219 261.279 115.406 261.633C115.594 261.987 115.688 262.38 115.688 262.812V263.414C115.688 263.836 115.594 264.224 115.406 264.578C115.224 264.932 114.953 265.216 114.594 265.43C114.24 265.643 113.805 265.75 113.289 265.75C112.779 265.75 112.341 265.643 111.977 265.43C111.617 265.216 111.344 264.932 111.156 264.578C110.969 264.224 110.875 263.836 110.875 263.414ZM112.18 262.812V263.414C112.18 263.622 112.219 263.82 112.297 264.008C112.38 264.195 112.505 264.346 112.672 264.461C112.839 264.576 113.044 264.633 113.289 264.633C113.539 264.633 113.742 264.576 113.898 264.461C114.06 264.346 114.18 264.195 114.258 264.008C114.336 263.82 114.375 263.622 114.375 263.414V262.812C114.375 262.599 114.333 262.398 114.25 262.211C114.172 262.018 114.052 261.865 113.891 261.75C113.729 261.635 113.523 261.578 113.273 261.578C113.034 261.578 112.831 261.635 112.664 261.75C112.503 261.865 112.38 262.018 112.297 262.211C112.219 262.398 112.18 262.599 112.18 262.812ZM116.359 269.82V269.211C116.359 268.784 116.453 268.393 116.641 268.039C116.833 267.685 117.109 267.401 117.469 267.188C117.828 266.974 118.26 266.867 118.766 266.867C119.286 266.867 119.724 266.974 120.078 267.188C120.438 267.401 120.708 267.685 120.891 268.039C121.078 268.393 121.172 268.784 121.172 269.211V269.82C121.172 270.247 121.078 270.638 120.891 270.992C120.708 271.346 120.44 271.63 120.086 271.844C119.732 272.057 119.299 272.164 118.789 272.164C118.273 272.164 117.833 272.057 117.469 271.844C117.109 271.63 116.833 271.346 116.641 270.992C116.453 270.638 116.359 270.247 116.359 269.82ZM117.672 269.211V269.82C117.672 270.029 117.714 270.227 117.797 270.414C117.885 270.602 118.013 270.755 118.18 270.875C118.346 270.99 118.547 271.047 118.781 271.047C119.047 271.047 119.26 270.99 119.422 270.875C119.583 270.755 119.698 270.604 119.766 270.422C119.839 270.234 119.875 270.034 119.875 269.82V269.211C119.875 268.997 119.833 268.797 119.75 268.609C119.672 268.422 119.549 268.271 119.383 268.156C119.221 268.042 119.016 267.984 118.766 267.984C118.521 267.984 118.318 268.042 118.156 268.156C117.995 268.271 117.872 268.422 117.789 268.609C117.711 268.797 117.672 268.997 117.672 269.211ZM119.234 262.25L113.68 271.141L112.719 270.586L118.273 261.695L119.234 262.25Z" fill="#979797"/>
<path d="M345 260.586V272H343.117V262.82L340.328 263.766V262.211L344.773 260.586H345ZM356.367 265.359V267.219C356.367 268.109 356.279 268.87 356.102 269.5C355.93 270.125 355.68 270.633 355.352 271.023C355.023 271.414 354.63 271.701 354.172 271.883C353.719 272.065 353.211 272.156 352.648 272.156C352.201 272.156 351.784 272.099 351.398 271.984C351.018 271.87 350.674 271.69 350.367 271.445C350.06 271.201 349.797 270.885 349.578 270.5C349.365 270.109 349.198 269.643 349.078 269.102C348.964 268.56 348.906 267.932 348.906 267.219V265.359C348.906 264.464 348.995 263.708 349.172 263.094C349.349 262.474 349.602 261.971 349.93 261.586C350.258 261.195 350.648 260.911 351.102 260.734C351.56 260.557 352.07 260.469 352.633 260.469C353.086 260.469 353.503 260.526 353.883 260.641C354.268 260.75 354.612 260.924 354.914 261.164C355.221 261.404 355.482 261.716 355.695 262.102C355.914 262.482 356.081 262.943 356.195 263.484C356.31 264.021 356.367 264.646 356.367 265.359ZM354.484 267.484V265.078C354.484 264.625 354.458 264.227 354.406 263.883C354.354 263.534 354.276 263.24 354.172 263C354.073 262.755 353.948 262.557 353.797 262.406C353.646 262.25 353.474 262.138 353.281 262.07C353.089 261.997 352.872 261.961 352.633 261.961C352.341 261.961 352.081 262.018 351.852 262.133C351.622 262.242 351.43 262.419 351.273 262.664C351.117 262.909 350.997 263.232 350.914 263.633C350.836 264.029 350.797 264.51 350.797 265.078V267.484C350.797 267.943 350.823 268.346 350.875 268.695C350.927 269.044 351.005 269.344 351.109 269.594C351.214 269.839 351.339 270.042 351.484 270.203C351.635 270.359 351.807 270.474 352 270.547C352.198 270.62 352.414 270.656 352.648 270.656C352.945 270.656 353.208 270.599 353.438 270.484C353.667 270.37 353.859 270.188 354.016 269.938C354.172 269.682 354.289 269.352 354.367 268.945C354.445 268.539 354.484 268.052 354.484 267.484ZM365.461 265.359V267.219C365.461 268.109 365.372 268.87 365.195 269.5C365.023 270.125 364.773 270.633 364.445 271.023C364.117 271.414 363.724 271.701 363.266 271.883C362.812 272.065 362.305 272.156 361.742 272.156C361.294 272.156 360.878 272.099 360.492 271.984C360.112 271.87 359.768 271.69 359.461 271.445C359.154 271.201 358.891 270.885 358.672 270.5C358.458 270.109 358.292 269.643 358.172 269.102C358.057 268.56 358 267.932 358 267.219V265.359C358 264.464 358.089 263.708 358.266 263.094C358.443 262.474 358.695 261.971 359.023 261.586C359.352 261.195 359.742 260.911 360.195 260.734C360.654 260.557 361.164 260.469 361.727 260.469C362.18 260.469 362.596 260.526 362.977 260.641C363.362 260.75 363.706 260.924 364.008 261.164C364.315 261.404 364.576 261.716 364.789 262.102C365.008 262.482 365.174 262.943 365.289 263.484C365.404 264.021 365.461 264.646 365.461 265.359ZM363.578 267.484V265.078C363.578 264.625 363.552 264.227 363.5 263.883C363.448 263.534 363.37 263.24 363.266 263C363.167 262.755 363.042 262.557 362.891 262.406C362.74 262.25 362.568 262.138 362.375 262.07C362.182 261.997 361.966 261.961 361.727 261.961C361.435 261.961 361.174 262.018 360.945 262.133C360.716 262.242 360.523 262.419 360.367 262.664C360.211 262.909 360.091 263.232 360.008 263.633C359.93 264.029 359.891 264.51 359.891 265.078V267.484C359.891 267.943 359.917 268.346 359.969 268.695C360.021 269.044 360.099 269.344 360.203 269.594C360.307 269.839 360.432 270.042 360.578 270.203C360.729 270.359 360.901 270.474 361.094 270.547C361.292 270.62 361.508 270.656 361.742 270.656C362.039 270.656 362.302 270.599 362.531 270.484C362.76 270.37 362.953 270.188 363.109 269.938C363.266 269.682 363.383 269.352 363.461 268.945C363.539 268.539 363.578 268.052 363.578 267.484ZM367.062 263.414V262.812C367.062 262.38 367.156 261.987 367.344 261.633C367.531 261.279 367.805 260.995 368.164 260.781C368.523 260.568 368.956 260.461 369.461 260.461C369.982 260.461 370.419 260.568 370.773 260.781C371.133 260.995 371.406 261.279 371.594 261.633C371.781 261.987 371.875 262.38 371.875 262.812V263.414C371.875 263.836 371.781 264.224 371.594 264.578C371.411 264.932 371.141 265.216 370.781 265.43C370.427 265.643 369.992 265.75 369.477 265.75C368.966 265.75 368.529 265.643 368.164 265.43C367.805 265.216 367.531 264.932 367.344 264.578C367.156 264.224 367.062 263.836 367.062 263.414ZM368.367 262.812V263.414C368.367 263.622 368.406 263.82 368.484 264.008C368.568 264.195 368.693 264.346 368.859 264.461C369.026 264.576 369.232 264.633 369.477 264.633C369.727 264.633 369.93 264.576 370.086 264.461C370.247 264.346 370.367 264.195 370.445 264.008C370.523 263.82 370.562 263.622 370.562 263.414V262.812C370.562 262.599 370.521 262.398 370.438 262.211C370.359 262.018 370.24 261.865 370.078 261.75C369.917 261.635 369.711 261.578 369.461 261.578C369.221 261.578 369.018 261.635 368.852 261.75C368.69 261.865 368.568 262.018 368.484 262.211C368.406 262.398 368.367 262.599 368.367 262.812ZM372.547 269.82V269.211C372.547 268.784 372.641 268.393 372.828 268.039C373.021 267.685 373.297 267.401 373.656 267.188C374.016 266.974 374.448 266.867 374.953 266.867C375.474 266.867 375.911 266.974 376.266 267.188C376.625 267.401 376.896 267.685 377.078 268.039C377.266 268.393 377.359 268.784 377.359 269.211V269.82C377.359 270.247 377.266 270.638 377.078 270.992C376.896 271.346 376.628 271.63 376.273 271.844C375.919 272.057 375.487 272.164 374.977 272.164C374.461 272.164 374.021 272.057 373.656 271.844C373.297 271.63 373.021 271.346 372.828 270.992C372.641 270.638 372.547 270.247 372.547 269.82ZM373.859 269.211V269.82C373.859 270.029 373.901 270.227 373.984 270.414C374.073 270.602 374.201 270.755 374.367 270.875C374.534 270.99 374.734 271.047 374.969 271.047C375.234 271.047 375.448 270.99 375.609 270.875C375.771 270.755 375.885 270.604 375.953 270.422C376.026 270.234 376.062 270.034 376.062 269.82V269.211C376.062 268.997 376.021 268.797 375.938 268.609C375.859 268.422 375.737 268.271 375.57 268.156C375.409 268.042 375.203 267.984 374.953 267.984C374.708 267.984 374.505 268.042 374.344 268.156C374.182 268.271 374.06 268.422 373.977 268.609C373.898 268.797 373.859 268.997 373.859 269.211ZM375.422 262.25L369.867 271.141L368.906 270.586L374.461 261.695L375.422 262.25Z" fill="#979797"/>
<path d="M161.422 266.859H158.523L158.508 265.43H161.039C161.466 265.43 161.828 265.367 162.125 265.242C162.427 265.112 162.656 264.927 162.812 264.688C162.969 264.443 163.047 264.148 163.047 263.805C163.047 263.424 162.974 263.115 162.828 262.875C162.682 262.635 162.458 262.461 162.156 262.352C161.859 262.242 161.479 262.188 161.016 262.188H159.117V272H157.156V260.625H161.016C161.641 260.625 162.198 260.685 162.688 260.805C163.182 260.924 163.602 261.112 163.945 261.367C164.294 261.617 164.557 261.935 164.734 262.32C164.917 262.706 165.008 263.164 165.008 263.695C165.008 264.164 164.896 264.594 164.672 264.984C164.448 265.37 164.117 265.685 163.68 265.93C163.242 266.174 162.698 266.32 162.047 266.367L161.422 266.859ZM161.336 272H157.906L158.789 270.445H161.336C161.779 270.445 162.148 270.372 162.445 270.227C162.742 270.076 162.964 269.87 163.109 269.609C163.26 269.344 163.336 269.034 163.336 268.68C163.336 268.31 163.271 267.99 163.141 267.719C163.01 267.443 162.805 267.232 162.523 267.086C162.242 266.935 161.875 266.859 161.422 266.859H159.219L159.234 265.43H162.102L162.547 265.969C163.172 265.99 163.685 266.128 164.086 266.383C164.492 266.638 164.794 266.969 164.992 267.375C165.19 267.781 165.289 268.219 165.289 268.688C165.289 269.411 165.13 270.018 164.812 270.508C164.5 270.997 164.049 271.37 163.461 271.625C162.872 271.875 162.164 272 161.336 272ZM171.844 270.305V266.273C171.844 265.971 171.789 265.711 171.68 265.492C171.57 265.273 171.404 265.104 171.18 264.984C170.961 264.865 170.685 264.805 170.352 264.805C170.044 264.805 169.779 264.857 169.555 264.961C169.331 265.065 169.156 265.206 169.031 265.383C168.906 265.56 168.844 265.76 168.844 265.984H166.969C166.969 265.651 167.049 265.328 167.211 265.016C167.372 264.703 167.607 264.424 167.914 264.18C168.221 263.935 168.589 263.742 169.016 263.602C169.443 263.461 169.922 263.391 170.453 263.391C171.089 263.391 171.651 263.497 172.141 263.711C172.635 263.924 173.023 264.247 173.305 264.68C173.591 265.107 173.734 265.643 173.734 266.289V270.047C173.734 270.432 173.76 270.779 173.812 271.086C173.87 271.388 173.951 271.651 174.055 271.875V272H172.125C172.036 271.797 171.966 271.539 171.914 271.227C171.867 270.909 171.844 270.602 171.844 270.305ZM172.117 266.859L172.133 268.023H170.781C170.432 268.023 170.125 268.057 169.859 268.125C169.594 268.188 169.372 268.281 169.195 268.406C169.018 268.531 168.885 268.682 168.797 268.859C168.708 269.036 168.664 269.237 168.664 269.461C168.664 269.685 168.716 269.891 168.82 270.078C168.924 270.26 169.076 270.404 169.273 270.508C169.477 270.612 169.721 270.664 170.008 270.664C170.393 270.664 170.729 270.586 171.016 270.43C171.307 270.268 171.536 270.073 171.703 269.844C171.87 269.609 171.958 269.388 171.969 269.18L172.578 270.016C172.516 270.229 172.409 270.458 172.258 270.703C172.107 270.948 171.909 271.182 171.664 271.406C171.424 271.625 171.135 271.805 170.797 271.945C170.464 272.086 170.078 272.156 169.641 272.156C169.089 272.156 168.596 272.047 168.164 271.828C167.732 271.604 167.393 271.305 167.148 270.93C166.904 270.549 166.781 270.12 166.781 269.641C166.781 269.193 166.865 268.797 167.031 268.453C167.203 268.104 167.453 267.812 167.781 267.578C168.115 267.344 168.521 267.167 169 267.047C169.479 266.922 170.026 266.859 170.641 266.859H172.117ZM180.445 269.711C180.445 269.523 180.398 269.354 180.305 269.203C180.211 269.047 180.031 268.906 179.766 268.781C179.505 268.656 179.12 268.542 178.609 268.438C178.161 268.339 177.75 268.221 177.375 268.086C177.005 267.945 176.688 267.776 176.422 267.578C176.156 267.38 175.951 267.146 175.805 266.875C175.659 266.604 175.586 266.292 175.586 265.938C175.586 265.594 175.661 265.268 175.812 264.961C175.964 264.654 176.18 264.383 176.461 264.148C176.742 263.914 177.083 263.729 177.484 263.594C177.891 263.458 178.344 263.391 178.844 263.391C179.552 263.391 180.159 263.51 180.664 263.75C181.174 263.984 181.565 264.305 181.836 264.711C182.107 265.112 182.242 265.565 182.242 266.07H180.359C180.359 265.846 180.302 265.638 180.188 265.445C180.078 265.247 179.911 265.089 179.688 264.969C179.464 264.844 179.182 264.781 178.844 264.781C178.521 264.781 178.253 264.833 178.039 264.938C177.831 265.036 177.674 265.167 177.57 265.328C177.471 265.49 177.422 265.667 177.422 265.859C177.422 266 177.448 266.128 177.5 266.242C177.557 266.352 177.651 266.453 177.781 266.547C177.911 266.635 178.089 266.719 178.312 266.797C178.542 266.875 178.828 266.951 179.172 267.023C179.818 267.159 180.372 267.333 180.836 267.547C181.305 267.755 181.664 268.026 181.914 268.359C182.164 268.688 182.289 269.104 182.289 269.609C182.289 269.984 182.208 270.328 182.047 270.641C181.891 270.948 181.661 271.216 181.359 271.445C181.057 271.669 180.695 271.844 180.273 271.969C179.857 272.094 179.388 272.156 178.867 272.156C178.102 272.156 177.453 272.021 176.922 271.75C176.391 271.474 175.987 271.122 175.711 270.695C175.44 270.263 175.305 269.815 175.305 269.352H177.125C177.146 269.701 177.242 269.979 177.414 270.188C177.591 270.391 177.81 270.539 178.07 270.633C178.336 270.721 178.609 270.766 178.891 270.766C179.229 270.766 179.513 270.721 179.742 270.633C179.971 270.539 180.146 270.414 180.266 270.258C180.385 270.096 180.445 269.914 180.445 269.711ZM187.664 272.156C187.039 272.156 186.474 272.055 185.969 271.852C185.469 271.643 185.042 271.354 184.688 270.984C184.339 270.615 184.07 270.18 183.883 269.68C183.695 269.18 183.602 268.641 183.602 268.062V267.75C183.602 267.089 183.698 266.49 183.891 265.953C184.083 265.417 184.352 264.958 184.695 264.578C185.039 264.193 185.445 263.898 185.914 263.695C186.383 263.492 186.891 263.391 187.438 263.391C188.042 263.391 188.57 263.492 189.023 263.695C189.477 263.898 189.852 264.185 190.148 264.555C190.451 264.919 190.674 265.354 190.82 265.859C190.971 266.365 191.047 266.922 191.047 267.531V268.336H184.516V266.984H189.188V266.836C189.177 266.497 189.109 266.18 188.984 265.883C188.865 265.586 188.68 265.346 188.43 265.164C188.18 264.982 187.846 264.891 187.43 264.891C187.117 264.891 186.839 264.958 186.594 265.094C186.354 265.224 186.154 265.414 185.992 265.664C185.831 265.914 185.706 266.216 185.617 266.57C185.534 266.919 185.492 267.312 185.492 267.75V268.062C185.492 268.432 185.542 268.776 185.641 269.094C185.745 269.406 185.896 269.68 186.094 269.914C186.292 270.148 186.531 270.333 186.812 270.469C187.094 270.599 187.414 270.664 187.773 270.664C188.227 270.664 188.63 270.573 188.984 270.391C189.339 270.208 189.646 269.951 189.906 269.617L190.898 270.578C190.716 270.844 190.479 271.099 190.188 271.344C189.896 271.583 189.539 271.779 189.117 271.93C188.701 272.081 188.216 272.156 187.664 272.156ZM197.672 270.25V260H199.562V272H197.852L197.672 270.25ZM192.172 267.867V267.703C192.172 267.062 192.247 266.479 192.398 265.953C192.549 265.422 192.768 264.966 193.055 264.586C193.341 264.201 193.69 263.906 194.102 263.703C194.513 263.495 194.977 263.391 195.492 263.391C196.003 263.391 196.451 263.49 196.836 263.688C197.221 263.885 197.549 264.169 197.82 264.539C198.091 264.904 198.307 265.341 198.469 265.852C198.63 266.357 198.745 266.919 198.812 267.539V268.062C198.745 268.667 198.63 269.219 198.469 269.719C198.307 270.219 198.091 270.651 197.82 271.016C197.549 271.38 197.219 271.661 196.828 271.859C196.443 272.057 195.992 272.156 195.477 272.156C194.966 272.156 194.505 272.049 194.094 271.836C193.688 271.622 193.341 271.323 193.055 270.938C192.768 270.552 192.549 270.099 192.398 269.578C192.247 269.052 192.172 268.482 192.172 267.867ZM194.055 267.703V267.867C194.055 268.253 194.089 268.612 194.156 268.945C194.229 269.279 194.341 269.573 194.492 269.828C194.643 270.078 194.839 270.276 195.078 270.422C195.323 270.562 195.615 270.633 195.953 270.633C196.38 270.633 196.732 270.539 197.008 270.352C197.284 270.164 197.5 269.911 197.656 269.594C197.818 269.271 197.927 268.911 197.984 268.516V267.102C197.953 266.794 197.888 266.508 197.789 266.242C197.695 265.977 197.568 265.745 197.406 265.547C197.245 265.344 197.044 265.188 196.805 265.078C196.57 264.964 196.292 264.906 195.969 264.906C195.625 264.906 195.333 264.979 195.094 265.125C194.854 265.271 194.656 265.471 194.5 265.727C194.349 265.982 194.237 266.279 194.164 266.617C194.091 266.956 194.055 267.318 194.055 267.703ZM205.156 267.867V267.688C205.156 267.078 205.245 266.513 205.422 265.992C205.599 265.466 205.854 265.01 206.188 264.625C206.526 264.234 206.938 263.932 207.422 263.719C207.911 263.5 208.464 263.391 209.078 263.391C209.698 263.391 210.25 263.5 210.734 263.719C211.224 263.932 211.638 264.234 211.977 264.625C212.315 265.01 212.573 265.466 212.75 265.992C212.927 266.513 213.016 267.078 213.016 267.688V267.867C213.016 268.477 212.927 269.042 212.75 269.562C212.573 270.083 212.315 270.539 211.977 270.93C211.638 271.315 211.227 271.617 210.742 271.836C210.258 272.049 209.708 272.156 209.094 272.156C208.474 272.156 207.919 272.049 207.43 271.836C206.945 271.617 206.534 271.315 206.195 270.93C205.857 270.539 205.599 270.083 205.422 269.562C205.245 269.042 205.156 268.477 205.156 267.867ZM207.039 267.688V267.867C207.039 268.247 207.078 268.607 207.156 268.945C207.234 269.284 207.357 269.581 207.523 269.836C207.69 270.091 207.904 270.292 208.164 270.438C208.424 270.583 208.734 270.656 209.094 270.656C209.443 270.656 209.745 270.583 210 270.438C210.26 270.292 210.474 270.091 210.641 269.836C210.807 269.581 210.93 269.284 211.008 268.945C211.091 268.607 211.133 268.247 211.133 267.867V267.688C211.133 267.312 211.091 266.958 211.008 266.625C210.93 266.286 210.805 265.987 210.633 265.727C210.466 265.466 210.253 265.263 209.992 265.117C209.737 264.966 209.432 264.891 209.078 264.891C208.724 264.891 208.417 264.966 208.156 265.117C207.901 265.263 207.69 265.466 207.523 265.727C207.357 265.987 207.234 266.286 207.156 266.625C207.078 266.958 207.039 267.312 207.039 267.688ZM216.461 265.352V272H214.578V263.547H216.352L216.461 265.352ZM216.125 267.461L215.516 267.453C215.521 266.854 215.604 266.305 215.766 265.805C215.932 265.305 216.161 264.875 216.453 264.516C216.75 264.156 217.104 263.88 217.516 263.688C217.927 263.49 218.385 263.391 218.891 263.391C219.297 263.391 219.664 263.448 219.992 263.562C220.326 263.672 220.609 263.852 220.844 264.102C221.083 264.352 221.266 264.677 221.391 265.078C221.516 265.474 221.578 265.961 221.578 266.539V272H219.688V266.531C219.688 266.125 219.628 265.805 219.508 265.57C219.393 265.331 219.224 265.161 219 265.062C218.781 264.958 218.508 264.906 218.18 264.906C217.857 264.906 217.568 264.974 217.312 265.109C217.057 265.245 216.841 265.43 216.664 265.664C216.492 265.898 216.359 266.169 216.266 266.477C216.172 266.784 216.125 267.112 216.125 267.461ZM229.5 263.547V272H227.609V263.547H229.5ZM227.484 261.328C227.484 261.042 227.578 260.805 227.766 260.617C227.958 260.424 228.224 260.328 228.562 260.328C228.896 260.328 229.159 260.424 229.352 260.617C229.544 260.805 229.641 261.042 229.641 261.328C229.641 261.609 229.544 261.844 229.352 262.031C229.159 262.219 228.896 262.312 228.562 262.312C228.224 262.312 227.958 262.219 227.766 262.031C227.578 261.844 227.484 261.609 227.484 261.328ZM233.43 265.352V272H231.547V263.547H233.32L233.43 265.352ZM233.094 267.461L232.484 267.453C232.49 266.854 232.573 266.305 232.734 265.805C232.901 265.305 233.13 264.875 233.422 264.516C233.719 264.156 234.073 263.88 234.484 263.688C234.896 263.49 235.354 263.391 235.859 263.391C236.266 263.391 236.633 263.448 236.961 263.562C237.294 263.672 237.578 263.852 237.812 264.102C238.052 264.352 238.234 264.677 238.359 265.078C238.484 265.474 238.547 265.961 238.547 266.539V272H236.656V266.531C236.656 266.125 236.596 265.805 236.477 265.57C236.362 265.331 236.193 265.161 235.969 265.062C235.75 264.958 235.477 264.906 235.148 264.906C234.826 264.906 234.536 264.974 234.281 265.109C234.026 265.245 233.81 265.43 233.633 265.664C233.461 265.898 233.328 266.169 233.234 266.477C233.141 266.784 233.094 267.112 233.094 267.461ZM244.344 263.547V264.922H239.578V263.547H244.344ZM240.953 261.477H242.836V269.664C242.836 269.924 242.872 270.125 242.945 270.266C243.023 270.401 243.13 270.492 243.266 270.539C243.401 270.586 243.56 270.609 243.742 270.609C243.872 270.609 243.997 270.602 244.117 270.586C244.237 270.57 244.333 270.555 244.406 270.539L244.414 271.977C244.258 272.023 244.076 272.065 243.867 272.102C243.664 272.138 243.43 272.156 243.164 272.156C242.732 272.156 242.349 272.081 242.016 271.93C241.682 271.773 241.422 271.521 241.234 271.172C241.047 270.823 240.953 270.359 240.953 269.781V261.477ZM249.523 272.156C248.898 272.156 248.333 272.055 247.828 271.852C247.328 271.643 246.901 271.354 246.547 270.984C246.198 270.615 245.93 270.18 245.742 269.68C245.555 269.18 245.461 268.641 245.461 268.062V267.75C245.461 267.089 245.557 266.49 245.75 265.953C245.943 265.417 246.211 264.958 246.555 264.578C246.898 264.193 247.305 263.898 247.773 263.695C248.242 263.492 248.75 263.391 249.297 263.391C249.901 263.391 250.43 263.492 250.883 263.695C251.336 263.898 251.711 264.185 252.008 264.555C252.31 264.919 252.534 265.354 252.68 265.859C252.831 266.365 252.906 266.922 252.906 267.531V268.336H246.375V266.984H251.047V266.836C251.036 266.497 250.969 266.18 250.844 265.883C250.724 265.586 250.539 265.346 250.289 265.164C250.039 264.982 249.706 264.891 249.289 264.891C248.977 264.891 248.698 264.958 248.453 265.094C248.214 265.224 248.013 265.414 247.852 265.664C247.69 265.914 247.565 266.216 247.477 266.57C247.393 266.919 247.352 267.312 247.352 267.75V268.062C247.352 268.432 247.401 268.776 247.5 269.094C247.604 269.406 247.755 269.68 247.953 269.914C248.151 270.148 248.391 270.333 248.672 270.469C248.953 270.599 249.273 270.664 249.633 270.664C250.086 270.664 250.49 270.573 250.844 270.391C251.198 270.208 251.505 269.951 251.766 269.617L252.758 270.578C252.576 270.844 252.339 271.099 252.047 271.344C251.755 271.583 251.398 271.779 250.977 271.93C250.56 272.081 250.076 272.156 249.523 272.156ZM256.266 265.156V272H254.383V263.547H256.18L256.266 265.156ZM258.852 263.492L258.836 265.242C258.721 265.221 258.596 265.206 258.461 265.195C258.331 265.185 258.201 265.18 258.07 265.18C257.747 265.18 257.464 265.227 257.219 265.32C256.974 265.409 256.768 265.539 256.602 265.711C256.44 265.878 256.315 266.081 256.227 266.32C256.138 266.56 256.086 266.828 256.07 267.125L255.641 267.156C255.641 266.625 255.693 266.133 255.797 265.68C255.901 265.227 256.057 264.828 256.266 264.484C256.479 264.141 256.745 263.872 257.062 263.68C257.385 263.487 257.758 263.391 258.18 263.391C258.294 263.391 258.417 263.401 258.547 263.422C258.682 263.443 258.784 263.466 258.852 263.492ZM263.602 272.156C262.977 272.156 262.411 272.055 261.906 271.852C261.406 271.643 260.979 271.354 260.625 270.984C260.276 270.615 260.008 270.18 259.82 269.68C259.633 269.18 259.539 268.641 259.539 268.062V267.75C259.539 267.089 259.635 266.49 259.828 265.953C260.021 265.417 260.289 264.958 260.633 264.578C260.977 264.193 261.383 263.898 261.852 263.695C262.32 263.492 262.828 263.391 263.375 263.391C263.979 263.391 264.508 263.492 264.961 263.695C265.414 263.898 265.789 264.185 266.086 264.555C266.388 264.919 266.612 265.354 266.758 265.859C266.909 266.365 266.984 266.922 266.984 267.531V268.336H260.453V266.984H265.125V266.836C265.115 266.497 265.047 266.18 264.922 265.883C264.802 265.586 264.617 265.346 264.367 265.164C264.117 264.982 263.784 264.891 263.367 264.891C263.055 264.891 262.776 264.958 262.531 265.094C262.292 265.224 262.091 265.414 261.93 265.664C261.768 265.914 261.643 266.216 261.555 266.57C261.471 266.919 261.43 267.312 261.43 267.75V268.062C261.43 268.432 261.479 268.776 261.578 269.094C261.682 269.406 261.833 269.68 262.031 269.914C262.229 270.148 262.469 270.333 262.75 270.469C263.031 270.599 263.352 270.664 263.711 270.664C264.164 270.664 264.568 270.573 264.922 270.391C265.276 270.208 265.583 269.951 265.844 269.617L266.836 270.578C266.654 270.844 266.417 271.099 266.125 271.344C265.833 271.583 265.477 271.779 265.055 271.93C264.638 272.081 264.154 272.156 263.602 272.156ZM273.195 269.711C273.195 269.523 273.148 269.354 273.055 269.203C272.961 269.047 272.781 268.906 272.516 268.781C272.255 268.656 271.87 268.542 271.359 268.438C270.911 268.339 270.5 268.221 270.125 268.086C269.755 267.945 269.438 267.776 269.172 267.578C268.906 267.38 268.701 267.146 268.555 266.875C268.409 266.604 268.336 266.292 268.336 265.938C268.336 265.594 268.411 265.268 268.562 264.961C268.714 264.654 268.93 264.383 269.211 264.148C269.492 263.914 269.833 263.729 270.234 263.594C270.641 263.458 271.094 263.391 271.594 263.391C272.302 263.391 272.909 263.51 273.414 263.75C273.924 263.984 274.315 264.305 274.586 264.711C274.857 265.112 274.992 265.565 274.992 266.07H273.109C273.109 265.846 273.052 265.638 272.938 265.445C272.828 265.247 272.661 265.089 272.438 264.969C272.214 264.844 271.932 264.781 271.594 264.781C271.271 264.781 271.003 264.833 270.789 264.938C270.581 265.036 270.424 265.167 270.32 265.328C270.221 265.49 270.172 265.667 270.172 265.859C270.172 266 270.198 266.128 270.25 266.242C270.307 266.352 270.401 266.453 270.531 266.547C270.661 266.635 270.839 266.719 271.062 266.797C271.292 266.875 271.578 266.951 271.922 267.023C272.568 267.159 273.122 267.333 273.586 267.547C274.055 267.755 274.414 268.026 274.664 268.359C274.914 268.688 275.039 269.104 275.039 269.609C275.039 269.984 274.958 270.328 274.797 270.641C274.641 270.948 274.411 271.216 274.109 271.445C273.807 271.669 273.445 271.844 273.023 271.969C272.607 272.094 272.138 272.156 271.617 272.156C270.852 272.156 270.203 272.021 269.672 271.75C269.141 271.474 268.737 271.122 268.461 270.695C268.19 270.263 268.055 269.815 268.055 269.352H269.875C269.896 269.701 269.992 269.979 270.164 270.188C270.341 270.391 270.56 270.539 270.82 270.633C271.086 270.721 271.359 270.766 271.641 270.766C271.979 270.766 272.263 270.721 272.492 270.633C272.721 270.539 272.896 270.414 273.016 270.258C273.135 270.096 273.195 269.914 273.195 269.711ZM280.562 263.547V264.922H275.797V263.547H280.562ZM277.172 261.477H279.055V269.664C279.055 269.924 279.091 270.125 279.164 270.266C279.242 270.401 279.349 270.492 279.484 270.539C279.62 270.586 279.779 270.609 279.961 270.609C280.091 270.609 280.216 270.602 280.336 270.586C280.456 270.57 280.552 270.555 280.625 270.539L280.633 271.977C280.477 272.023 280.294 272.065 280.086 272.102C279.883 272.138 279.648 272.156 279.383 272.156C278.951 272.156 278.568 272.081 278.234 271.93C277.901 271.773 277.641 271.521 277.453 271.172C277.266 270.823 277.172 270.359 277.172 269.781V261.477ZM287.891 265.156V272H286.008V263.547H287.805L287.891 265.156ZM290.477 263.492L290.461 265.242C290.346 265.221 290.221 265.206 290.086 265.195C289.956 265.185 289.826 265.18 289.695 265.18C289.372 265.18 289.089 265.227 288.844 265.32C288.599 265.409 288.393 265.539 288.227 265.711C288.065 265.878 287.94 266.081 287.852 266.32C287.763 266.56 287.711 266.828 287.695 267.125L287.266 267.156C287.266 266.625 287.318 266.133 287.422 265.68C287.526 265.227 287.682 264.828 287.891 264.484C288.104 264.141 288.37 263.872 288.688 263.68C289.01 263.487 289.383 263.391 289.805 263.391C289.919 263.391 290.042 263.401 290.172 263.422C290.307 263.443 290.409 263.466 290.477 263.492ZM296.141 270.305V266.273C296.141 265.971 296.086 265.711 295.977 265.492C295.867 265.273 295.701 265.104 295.477 264.984C295.258 264.865 294.982 264.805 294.648 264.805C294.341 264.805 294.076 264.857 293.852 264.961C293.628 265.065 293.453 265.206 293.328 265.383C293.203 265.56 293.141 265.76 293.141 265.984H291.266C291.266 265.651 291.346 265.328 291.508 265.016C291.669 264.703 291.904 264.424 292.211 264.18C292.518 263.935 292.885 263.742 293.312 263.602C293.74 263.461 294.219 263.391 294.75 263.391C295.385 263.391 295.948 263.497 296.438 263.711C296.932 263.924 297.32 264.247 297.602 264.68C297.888 265.107 298.031 265.643 298.031 266.289V270.047C298.031 270.432 298.057 270.779 298.109 271.086C298.167 271.388 298.247 271.651 298.352 271.875V272H296.422C296.333 271.797 296.263 271.539 296.211 271.227C296.164 270.909 296.141 270.602 296.141 270.305ZM296.414 266.859L296.43 268.023H295.078C294.729 268.023 294.422 268.057 294.156 268.125C293.891 268.188 293.669 268.281 293.492 268.406C293.315 268.531 293.182 268.682 293.094 268.859C293.005 269.036 292.961 269.237 292.961 269.461C292.961 269.685 293.013 269.891 293.117 270.078C293.221 270.26 293.372 270.404 293.57 270.508C293.773 270.612 294.018 270.664 294.305 270.664C294.69 270.664 295.026 270.586 295.312 270.43C295.604 270.268 295.833 270.073 296 269.844C296.167 269.609 296.255 269.388 296.266 269.18L296.875 270.016C296.812 270.229 296.706 270.458 296.555 270.703C296.404 270.948 296.206 271.182 295.961 271.406C295.721 271.625 295.432 271.805 295.094 271.945C294.76 272.086 294.375 272.156 293.938 272.156C293.385 272.156 292.893 272.047 292.461 271.828C292.029 271.604 291.69 271.305 291.445 270.93C291.201 270.549 291.078 270.12 291.078 269.641C291.078 269.193 291.161 268.797 291.328 268.453C291.5 268.104 291.75 267.812 292.078 267.578C292.411 267.344 292.818 267.167 293.297 267.047C293.776 266.922 294.323 266.859 294.938 266.859H296.414ZM303.875 263.547V264.922H299.109V263.547H303.875ZM300.484 261.477H302.367V269.664C302.367 269.924 302.404 270.125 302.477 270.266C302.555 270.401 302.661 270.492 302.797 270.539C302.932 270.586 303.091 270.609 303.273 270.609C303.404 270.609 303.529 270.602 303.648 270.586C303.768 270.57 303.865 270.555 303.938 270.539L303.945 271.977C303.789 272.023 303.607 272.065 303.398 272.102C303.195 272.138 302.961 272.156 302.695 272.156C302.263 272.156 301.88 272.081 301.547 271.93C301.214 271.773 300.953 271.521 300.766 271.172C300.578 270.823 300.484 270.359 300.484 269.781V261.477ZM309.055 272.156C308.43 272.156 307.865 272.055 307.359 271.852C306.859 271.643 306.432 271.354 306.078 270.984C305.729 270.615 305.461 270.18 305.273 269.68C305.086 269.18 304.992 268.641 304.992 268.062V267.75C304.992 267.089 305.089 266.49 305.281 265.953C305.474 265.417 305.742 264.958 306.086 264.578C306.43 264.193 306.836 263.898 307.305 263.695C307.773 263.492 308.281 263.391 308.828 263.391C309.432 263.391 309.961 263.492 310.414 263.695C310.867 263.898 311.242 264.185 311.539 264.555C311.841 264.919 312.065 265.354 312.211 265.859C312.362 266.365 312.438 266.922 312.438 267.531V268.336H305.906V266.984H310.578V266.836C310.568 266.497 310.5 266.18 310.375 265.883C310.255 265.586 310.07 265.346 309.82 265.164C309.57 264.982 309.237 264.891 308.82 264.891C308.508 264.891 308.229 264.958 307.984 265.094C307.745 265.224 307.544 265.414 307.383 265.664C307.221 265.914 307.096 266.216 307.008 266.57C306.924 266.919 306.883 267.312 306.883 267.75V268.062C306.883 268.432 306.932 268.776 307.031 269.094C307.135 269.406 307.286 269.68 307.484 269.914C307.682 270.148 307.922 270.333 308.203 270.469C308.484 270.599 308.805 270.664 309.164 270.664C309.617 270.664 310.021 270.573 310.375 270.391C310.729 270.208 311.036 269.951 311.297 269.617L312.289 270.578C312.107 270.844 311.87 271.099 311.578 271.344C311.286 271.583 310.93 271.779 310.508 271.93C310.091 272.081 309.607 272.156 309.055 272.156Z" fill="#979797"/>
<path d="M326.485 141.515C328.047 139.953 328.05 137.416 326.443 135.9C307.952 118.47 284.91 106.571 259.935 101.604C233.65 96.3753 206.406 99.0587 181.646 109.314C156.887 119.57 135.725 136.937 120.836 159.22C106.689 180.393 98.8089 205.1 98.059 230.5C97.9938 232.708 99.7909 234.5 102 234.5H123.514C125.723 234.5 127.506 232.708 127.589 230.501C128.328 210.94 134.472 191.936 145.376 175.617C157.022 158.188 173.574 144.603 192.941 136.582C212.307 128.56 233.618 126.461 254.177 130.55C273.427 134.379 291.208 143.473 305.562 156.782C307.182 158.284 309.71 158.29 311.272 156.728L326.485 141.515Z" fill="#25DAD0"/>
<path d="M101.727 44.7812V59H98.3086V44.7812H101.727ZM107.215 50.6895V59H103.924V48.4336H107.01L107.215 50.6895ZM106.824 53.3555L106.053 53.375C106.053 52.5677 106.15 51.8483 106.346 51.2168C106.541 50.5788 106.818 50.0384 107.176 49.5957C107.534 49.153 107.96 48.8177 108.455 48.5898C108.956 48.3555 109.513 48.2383 110.125 48.2383C110.613 48.2383 111.059 48.3099 111.463 48.4531C111.873 48.5964 112.225 48.8275 112.518 49.1465C112.817 49.4655 113.045 49.8887 113.201 50.416C113.364 50.9368 113.445 51.5814 113.445 52.3496V59H110.135V52.3398C110.135 51.9167 110.076 51.5944 109.959 51.373C109.842 51.1452 109.673 50.9889 109.451 50.9043C109.23 50.8197 108.96 50.7773 108.641 50.7773C108.302 50.7773 108.016 50.8424 107.781 50.9727C107.547 51.1029 107.358 51.2852 107.215 51.5195C107.078 51.7474 106.977 52.0176 106.912 52.3301C106.854 52.6426 106.824 52.9844 106.824 53.3555ZM119.08 56.7441L121.16 48.4336H124.627L121.17 59H119.119L119.08 56.7441ZM117.85 48.4336L119.9 56.7441L119.881 59H117.82L114.373 48.4336H117.85ZM130.584 59.1953C129.725 59.1953 128.956 59.0618 128.279 58.7949C127.602 58.5215 127.029 58.1471 126.561 57.6719C126.098 57.1966 125.743 56.6497 125.496 56.0312C125.255 55.4128 125.135 54.7585 125.135 54.0684V53.6973C125.135 52.9225 125.242 52.2064 125.457 51.5488C125.672 50.8848 125.991 50.3053 126.414 49.8105C126.837 49.3158 127.368 48.9316 128.006 48.6582C128.644 48.3783 129.386 48.2383 130.232 48.2383C130.981 48.2383 131.652 48.3587 132.244 48.5996C132.837 48.8405 133.338 49.1855 133.748 49.6348C134.165 50.084 134.48 50.6276 134.695 51.2656C134.917 51.9036 135.027 52.6198 135.027 53.4141V54.752H126.395V52.6914H131.814V52.4375C131.821 52.0859 131.759 51.7865 131.629 51.5391C131.505 51.2917 131.323 51.1029 131.082 50.9727C130.841 50.8424 130.548 50.7773 130.203 50.7773C129.845 50.7773 129.549 50.8555 129.314 51.0117C129.087 51.168 128.908 51.3828 128.777 51.6562C128.654 51.9232 128.566 52.2324 128.514 52.584C128.462 52.9355 128.436 53.3066 128.436 53.6973V54.0684C128.436 54.459 128.488 54.8138 128.592 55.1328C128.702 55.4518 128.859 55.7253 129.061 55.9531C129.269 56.1745 129.516 56.347 129.803 56.4707C130.096 56.5944 130.428 56.6562 130.799 56.6562C131.248 56.6562 131.691 56.5716 132.127 56.4023C132.563 56.2331 132.938 55.9531 133.25 55.5625L134.744 57.3398C134.529 57.6458 134.223 57.9421 133.826 58.2285C133.436 58.515 132.967 58.7493 132.42 58.9316C131.873 59.1074 131.261 59.1953 130.584 59.1953ZM141.902 56.0312C141.902 55.849 141.84 55.6927 141.717 55.5625C141.6 55.4258 141.391 55.3021 141.092 55.1914C140.792 55.0742 140.372 54.957 139.832 54.8398C139.318 54.7292 138.833 54.5827 138.377 54.4004C137.928 54.2181 137.534 53.9967 137.195 53.7363C136.857 53.4759 136.59 53.1667 136.395 52.8086C136.206 52.4505 136.111 52.0404 136.111 51.5781C136.111 51.1289 136.206 50.7057 136.395 50.3086C136.59 49.9049 136.873 49.5501 137.244 49.2441C137.622 48.9316 138.081 48.6875 138.621 48.5117C139.161 48.3294 139.777 48.2383 140.467 48.2383C141.417 48.2383 142.238 48.3848 142.928 48.6777C143.618 48.9642 144.148 49.3678 144.52 49.8887C144.897 50.403 145.086 50.9987 145.086 51.6758H141.795C141.795 51.4089 141.749 51.181 141.658 50.9922C141.574 50.8034 141.434 50.6602 141.238 50.5625C141.043 50.4583 140.783 50.4062 140.457 50.4062C140.229 50.4062 140.021 50.4486 139.832 50.5332C139.65 50.6178 139.503 50.735 139.393 50.8848C139.282 51.0345 139.227 51.2103 139.227 51.4121C139.227 51.5553 139.259 51.6855 139.324 51.8027C139.396 51.9134 139.503 52.0176 139.646 52.1152C139.79 52.2064 139.972 52.291 140.193 52.3691C140.415 52.4408 140.682 52.5059 140.994 52.5645C141.704 52.6947 142.368 52.8802 142.986 53.1211C143.605 53.362 144.106 53.7038 144.49 54.1465C144.881 54.5892 145.076 55.1849 145.076 55.9336C145.076 56.4023 144.969 56.8353 144.754 57.2324C144.539 57.623 144.23 57.9681 143.826 58.2676C143.423 58.5605 142.938 58.7884 142.371 58.9512C141.805 59.1139 141.167 59.1953 140.457 59.1953C139.448 59.1953 138.595 59.0163 137.898 58.6582C137.202 58.2936 136.674 57.8379 136.316 57.291C135.965 56.7376 135.789 56.1777 135.789 55.6113H138.855C138.868 55.9368 138.947 56.2038 139.09 56.4121C139.24 56.6204 139.438 56.7734 139.686 56.8711C139.933 56.9688 140.219 57.0176 140.545 57.0176C140.844 57.0176 141.092 56.9753 141.287 56.8906C141.489 56.806 141.642 56.6921 141.746 56.5488C141.85 56.3991 141.902 56.2266 141.902 56.0312ZM152.186 48.4336V50.7188H145.818V48.4336H152.186ZM147.156 45.8066H150.447V55.5527C150.447 55.8327 150.48 56.0508 150.545 56.207C150.61 56.3568 150.721 56.4642 150.877 56.5293C151.04 56.5879 151.255 56.6172 151.521 56.6172C151.71 56.6172 151.867 56.6139 151.99 56.6074C152.114 56.5944 152.231 56.5781 152.342 56.5586V58.9121C152.062 59.0033 151.769 59.0716 151.463 59.1172C151.157 59.1693 150.831 59.1953 150.486 59.1953C149.783 59.1953 149.181 59.0846 148.68 58.8633C148.185 58.6419 147.807 58.2936 147.547 57.8184C147.286 57.3431 147.156 56.7246 147.156 55.9629V45.8066ZM156.814 50.6699V59H153.523V48.4336H156.609L156.814 50.6699ZM156.414 53.3555L155.662 53.375C155.662 52.6328 155.75 51.9492 155.926 51.3242C156.102 50.6992 156.362 50.1556 156.707 49.6934C157.052 49.2311 157.475 48.873 157.977 48.6191C158.484 48.3652 159.07 48.2383 159.734 48.2383C160.197 48.2383 160.617 48.3099 160.994 48.4531C161.372 48.5898 161.697 48.8079 161.971 49.1074C162.244 49.4004 162.452 49.7845 162.596 50.2598C162.745 50.7285 162.82 51.2917 162.82 51.9492V59H159.529V52.3691C159.529 51.9199 159.477 51.5814 159.373 51.3535C159.275 51.1257 159.132 50.9727 158.943 50.8945C158.755 50.8164 158.523 50.7773 158.25 50.7773C157.964 50.7773 157.706 50.8424 157.479 50.9727C157.251 51.1029 157.055 51.2852 156.893 51.5195C156.736 51.7474 156.616 52.0176 156.531 52.3301C156.453 52.6426 156.414 52.9844 156.414 53.3555ZM162.449 53.3555L161.531 53.375C161.531 52.6328 161.613 51.9492 161.775 51.3242C161.945 50.6992 162.195 50.1556 162.527 49.6934C162.866 49.2311 163.286 48.873 163.787 48.6191C164.288 48.3652 164.871 48.2383 165.535 48.2383C166.017 48.2383 166.46 48.3099 166.863 48.4531C167.267 48.5964 167.615 48.8275 167.908 49.1465C168.201 49.4655 168.429 49.8887 168.592 50.416C168.755 50.9368 168.836 51.5814 168.836 52.3496V59H165.535V52.3496C165.535 51.9134 165.483 51.5846 165.379 51.3633C165.281 51.1354 165.138 50.9824 164.949 50.9043C164.76 50.8197 164.536 50.7773 164.275 50.7773C163.963 50.7773 163.693 50.8424 163.465 50.9727C163.237 51.1029 163.045 51.2852 162.889 51.5195C162.739 51.7474 162.628 52.0176 162.557 52.3301C162.485 52.6426 162.449 52.9844 162.449 53.3555ZM175.838 59.1953C174.979 59.1953 174.21 59.0618 173.533 58.7949C172.856 58.5215 172.283 58.1471 171.814 57.6719C171.352 57.1966 170.997 56.6497 170.75 56.0312C170.509 55.4128 170.389 54.7585 170.389 54.0684V53.6973C170.389 52.9225 170.496 52.2064 170.711 51.5488C170.926 50.8848 171.245 50.3053 171.668 49.8105C172.091 49.3158 172.622 48.9316 173.26 48.6582C173.898 48.3783 174.64 48.2383 175.486 48.2383C176.235 48.2383 176.906 48.3587 177.498 48.5996C178.09 48.8405 178.592 49.1855 179.002 49.6348C179.419 50.084 179.734 50.6276 179.949 51.2656C180.171 51.9036 180.281 52.6198 180.281 53.4141V54.752H171.648V52.6914H177.068V52.4375C177.075 52.0859 177.013 51.7865 176.883 51.5391C176.759 51.2917 176.577 51.1029 176.336 50.9727C176.095 50.8424 175.802 50.7773 175.457 50.7773C175.099 50.7773 174.803 50.8555 174.568 51.0117C174.34 51.168 174.161 51.3828 174.031 51.6562C173.908 51.9232 173.82 52.2324 173.768 52.584C173.715 52.9355 173.689 53.3066 173.689 53.6973V54.0684C173.689 54.459 173.742 54.8138 173.846 55.1328C173.956 55.4518 174.113 55.7253 174.314 55.9531C174.523 56.1745 174.77 56.347 175.057 56.4707C175.35 56.5944 175.682 56.6562 176.053 56.6562C176.502 56.6562 176.945 56.5716 177.381 56.4023C177.817 56.2331 178.191 55.9531 178.504 55.5625L179.998 57.3398C179.783 57.6458 179.477 57.9421 179.08 58.2285C178.689 58.515 178.221 58.7493 177.674 58.9316C177.127 59.1074 176.515 59.1953 175.838 59.1953ZM184.852 50.6895V59H181.561V48.4336H184.646L184.852 50.6895ZM184.461 53.3555L183.689 53.375C183.689 52.5677 183.787 51.8483 183.982 51.2168C184.178 50.5788 184.454 50.0384 184.812 49.5957C185.171 49.153 185.597 48.8177 186.092 48.5898C186.593 48.3555 187.15 48.2383 187.762 48.2383C188.25 48.2383 188.696 48.3099 189.1 48.4531C189.51 48.5964 189.861 48.8275 190.154 49.1465C190.454 49.4655 190.682 49.8887 190.838 50.416C191.001 50.9368 191.082 51.5814 191.082 52.3496V59H187.771V52.3398C187.771 51.9167 187.713 51.5944 187.596 51.373C187.479 51.1452 187.309 50.9889 187.088 50.9043C186.867 50.8197 186.596 50.7773 186.277 50.7773C185.939 50.7773 185.652 50.8424 185.418 50.9727C185.184 51.1029 184.995 51.2852 184.852 51.5195C184.715 51.7474 184.614 52.0176 184.549 52.3301C184.49 52.6426 184.461 52.9844 184.461 53.3555ZM198.475 48.4336V50.7188H192.107V48.4336H198.475ZM193.445 45.8066H196.736V55.5527C196.736 55.8327 196.769 56.0508 196.834 56.207C196.899 56.3568 197.01 56.4642 197.166 56.5293C197.329 56.5879 197.544 56.6172 197.811 56.6172C197.999 56.6172 198.156 56.6139 198.279 56.6074C198.403 56.5944 198.52 56.5781 198.631 56.5586V58.9121C198.351 59.0033 198.058 59.0716 197.752 59.1172C197.446 59.1693 197.12 59.1953 196.775 59.1953C196.072 59.1953 195.47 59.0846 194.969 58.8633C194.474 58.6419 194.096 58.2936 193.836 57.8184C193.576 57.3431 193.445 56.7246 193.445 55.9629V45.8066ZM211.404 48.4336H214.393V58.5898C214.393 59.5664 214.168 60.3932 213.719 61.0703C213.27 61.7539 212.641 62.2715 211.834 62.623C211.033 62.9811 210.096 63.1602 209.021 63.1602C208.546 63.1602 208.061 63.0983 207.566 62.9746C207.072 62.8574 206.609 62.6816 206.18 62.4473C205.75 62.2129 205.389 61.9232 205.096 61.5781L206.473 59.6445C206.74 59.944 207.075 60.1979 207.479 60.4062C207.882 60.6211 208.357 60.7285 208.904 60.7285C209.38 60.7285 209.777 60.6439 210.096 60.4746C210.421 60.3053 210.669 60.0579 210.838 59.7324C211.007 59.4134 211.092 59.026 211.092 58.5703V50.9336L211.404 48.4336ZM204.383 53.8438V53.6387C204.383 52.8379 204.48 52.1087 204.676 51.4512C204.878 50.7871 205.164 50.2174 205.535 49.7422C205.913 49.2604 206.368 48.8893 206.902 48.6289C207.436 48.3685 208.038 48.2383 208.709 48.2383C209.432 48.2383 210.024 48.3783 210.486 48.6582C210.955 48.9316 211.329 49.3158 211.609 49.8105C211.896 50.3053 212.117 50.8848 212.273 51.5488C212.436 52.2064 212.573 52.916 212.684 53.6777V53.9219C212.573 54.638 212.42 55.3151 212.225 55.9531C212.036 56.5846 211.788 57.1445 211.482 57.6328C211.176 58.1211 210.792 58.5052 210.33 58.7852C209.874 59.0586 209.327 59.1953 208.689 59.1953C208.025 59.1953 207.426 59.0618 206.893 58.7949C206.365 58.528 205.913 58.1536 205.535 57.6719C205.164 57.1901 204.878 56.6237 204.676 55.9727C204.48 55.3216 204.383 54.612 204.383 53.8438ZM207.674 53.6387V53.8438C207.674 54.2409 207.71 54.6087 207.781 54.9473C207.859 55.2858 207.977 55.5853 208.133 55.8457C208.289 56.0996 208.481 56.2982 208.709 56.4414C208.943 56.5846 209.217 56.6562 209.529 56.6562C210.005 56.6562 210.389 56.5553 210.682 56.3535C210.975 56.1517 211.186 55.8652 211.316 55.4941C211.447 55.123 211.502 54.6868 211.482 54.1855V53.4141C211.495 52.9844 211.466 52.6068 211.395 52.2812C211.323 51.9492 211.209 51.6725 211.053 51.4512C210.903 51.2298 210.701 51.0638 210.447 50.9531C210.2 50.8359 209.9 50.7773 209.549 50.7773C209.243 50.7773 208.973 50.849 208.738 50.9922C208.504 51.1354 208.309 51.3372 208.152 51.5977C207.996 51.8516 207.876 52.1543 207.791 52.5059C207.713 52.8509 207.674 53.2285 207.674 53.6387ZM219.607 51.0508V59H216.316V48.4336H219.393L219.607 51.0508ZM222.732 48.3555L222.674 51.4121C222.544 51.3991 222.368 51.3828 222.146 51.3633C221.925 51.3438 221.74 51.334 221.59 51.334C221.206 51.334 220.874 51.3796 220.594 51.4707C220.32 51.5553 220.092 51.6855 219.91 51.8613C219.734 52.0306 219.604 52.2454 219.52 52.5059C219.441 52.7663 219.406 53.069 219.412 53.4141L218.816 53.0234C218.816 52.3138 218.885 51.6693 219.021 51.0898C219.165 50.5039 219.367 49.9993 219.627 49.5762C219.887 49.1465 220.203 48.8177 220.574 48.5898C220.945 48.3555 221.362 48.2383 221.824 48.2383C221.987 48.2383 222.146 48.248 222.303 48.2676C222.465 48.2871 222.609 48.3164 222.732 48.3555ZM223.104 53.8242V53.6191C223.104 52.8444 223.214 52.1315 223.436 51.4805C223.657 50.8229 223.982 50.2533 224.412 49.7715C224.842 49.2897 225.372 48.9154 226.004 48.6484C226.635 48.375 227.365 48.2383 228.191 48.2383C229.025 48.2383 229.757 48.375 230.389 48.6484C231.027 48.9154 231.561 49.2897 231.99 49.7715C232.42 50.2533 232.745 50.8229 232.967 51.4805C233.188 52.1315 233.299 52.8444 233.299 53.6191V53.8242C233.299 54.5924 233.188 55.3053 232.967 55.9629C232.745 56.6139 232.42 57.1836 231.99 57.6719C231.561 58.1536 231.03 58.528 230.398 58.7949C229.767 59.0618 229.038 59.1953 228.211 59.1953C227.384 59.1953 226.652 59.0618 226.014 58.7949C225.376 58.528 224.842 58.1536 224.412 57.6719C223.982 57.1836 223.657 56.6139 223.436 55.9629C223.214 55.3053 223.104 54.5924 223.104 53.8242ZM226.395 53.6191V53.8242C226.395 54.2214 226.424 54.5924 226.482 54.9375C226.541 55.2826 226.639 55.5853 226.775 55.8457C226.912 56.0996 227.098 56.2982 227.332 56.4414C227.566 56.5846 227.859 56.6562 228.211 56.6562C228.556 56.6562 228.842 56.5846 229.07 56.4414C229.305 56.2982 229.49 56.0996 229.627 55.8457C229.764 55.5853 229.861 55.2826 229.92 54.9375C229.979 54.5924 230.008 54.2214 230.008 53.8242V53.6191C230.008 53.235 229.979 52.8737 229.92 52.5352C229.861 52.1901 229.764 51.8874 229.627 51.627C229.49 51.36 229.305 51.1517 229.07 51.002C228.836 50.8522 228.543 50.7773 228.191 50.7773C227.846 50.7773 227.557 50.8522 227.322 51.002C227.094 51.1517 226.912 51.36 226.775 51.627C226.639 51.8874 226.541 52.1901 226.482 52.5352C226.424 52.8737 226.395 53.235 226.395 53.6191ZM237.977 55.8555L239.93 48.4336H241.99L241.258 52.1543L239.324 59H237.674L237.977 55.8555ZM237.205 48.4336L238.416 55.7969L238.553 59H236.551L234.051 48.4336H237.205ZM243.729 55.6406L244.949 48.4336H248.104L245.623 59H243.621L243.729 55.6406ZM242.225 48.4336L244.197 55.8359L244.5 59H242.83L240.936 52.1738L240.232 48.4336H242.225ZM254.861 48.4336V50.7188H248.494V48.4336H254.861ZM249.832 45.8066H253.123V55.5527C253.123 55.8327 253.156 56.0508 253.221 56.207C253.286 56.3568 253.396 56.4642 253.553 56.5293C253.715 56.5879 253.93 56.6172 254.197 56.6172C254.386 56.6172 254.542 56.6139 254.666 56.6074C254.79 56.5944 254.907 56.5781 255.018 56.5586V58.9121C254.738 59.0033 254.445 59.0716 254.139 59.1172C253.833 59.1693 253.507 59.1953 253.162 59.1953C252.459 59.1953 251.857 59.0846 251.355 58.8633C250.861 58.6419 250.483 58.2936 250.223 57.8184C249.962 57.3431 249.832 56.7246 249.832 55.9629V45.8066ZM259.393 44V59H256.102V44H259.393ZM259.002 53.3555L258.23 53.375C258.23 52.6328 258.322 51.9492 258.504 51.3242C258.686 50.6992 258.947 50.1556 259.285 49.6934C259.624 49.2311 260.031 48.873 260.506 48.6191C260.981 48.3652 261.508 48.2383 262.088 48.2383C262.609 48.2383 263.084 48.3132 263.514 48.4629C263.95 48.6126 264.324 48.8535 264.637 49.1855C264.956 49.5176 265.2 49.9505 265.369 50.4844C265.545 51.0182 265.633 51.6693 265.633 52.4375V59H262.322V52.418C262.322 51.9883 262.26 51.6562 262.137 51.4219C262.02 51.181 261.85 51.015 261.629 50.9238C261.408 50.8262 261.137 50.7773 260.818 50.7773C260.434 50.7773 260.122 50.8424 259.881 50.9727C259.64 51.1029 259.454 51.2852 259.324 51.5195C259.201 51.7474 259.116 52.0176 259.07 52.3301C259.025 52.6426 259.002 52.9844 259.002 53.3555Z" fill="#1E1E1E"/>
<rect x="98" y="320" width="110" height="7" rx="3.5" fill="#99FFAF"/>
<rect x="220" y="320" width="81" height="7" rx="3.5" fill="#72E7E0"/>
<rect x="312" y="320" width="57" height="7" rx="3.5" fill="#FAAFAF"/>
<defs>
<filter id="filter0_d_1_219" x="0" y="0" width="476" height="466" filterUnits="userSpaceOnUse" color-interpolation-filters="sRGB">
<feFlood flood-opacity="0" result="BackgroundImageFix"/>
<feColorMatrix in="SourceAlpha" type="matrix" values="0 0 0 0 0 0 0 0 0 0 0 0 0 0 0 0 0 0 127 0" result="hardAlpha"/>
<feOffset dx="4" dy="40"/>
<feGaussianBlur stdDeviation="30"/>
<feComposite in2="hardAlpha" operator="out"/>
<feColorMatrix type="matrix" values="0 0 0 0 0.0210069 0 0 0 0 0.229167 0 0 0 0 0.229167 0 0 0 0.12 0"/>
<feBlend mode="normal" in2="BackgroundImageFix" result="effect1_dropShadow_1_219"/>
<feBlend mode="normal" in="SourceGraphic" in2="effect1_dropShadow_1_219" result="shape"/>
</filter>
</defs>
</svg>
