<svg width="102" height="102" viewBox="0 0 102 102" fill="none" xmlns="http://www.w3.org/2000/svg">
<circle cx="51" cy="51" r="51" fill="#DAFCDF"/>
<g clip-path="url(#clip0_1_116)">
<path d="M40.5833 26H34.3333C32.1232 26 30.0036 26.878 28.4408 28.4408C26.878 30.0036 26 32.1232 26 34.3333V40.5833C26 42.7935 26.878 44.9131 28.4408 46.4759C30.0036 48.0387 32.1232 48.9167 34.3333 48.9167H40.5833C42.7935 48.9167 44.9131 48.0387 46.4759 46.4759C48.0387 44.9131 48.9167 42.7935 48.9167 40.5833V34.3333C48.9167 32.1232 48.0387 30.0036 46.4759 28.4408C44.9131 26.878 42.7935 26 40.5833 26V26ZM44.75 40.5833C44.75 41.6884 44.311 42.7482 43.5296 43.5296C42.7482 44.311 41.6884 44.75 40.5833 44.75H34.3333C33.2283 44.75 32.1685 44.311 31.3871 43.5296C30.6057 42.7482 30.1667 41.6884 30.1667 40.5833V34.3333C30.1667 33.2283 30.6057 32.1685 31.3871 31.3871C32.1685 30.6057 33.2283 30.1667 34.3333 30.1667H40.5833C41.6884 30.1667 42.7482 30.6057 43.5296 31.3871C44.311 32.1685 44.75 33.2283 44.75 34.3333V40.5833Z" fill="#25BA6A"/>
<path d="M40.5833 53.0834H34.3333C32.1232 53.0834 30.0035 53.9613 28.4407 55.5242C26.8779 57.087 26 59.2066 26 61.4167V67.6667C26 69.8769 26.8779 71.9965 28.4407 73.5593C30.0035 75.1221 32.1232 76.0001 34.3333 76.0001H40.5833C42.7934 76.0001 44.9131 75.1221 46.4759 73.5593C48.0387 71.9965 48.9166 69.8769 48.9166 67.6667V61.4167C48.9166 59.2066 48.0387 57.087 46.4759 55.5242C44.9131 53.9613 42.7934 53.0834 40.5833 53.0834ZM44.75 67.6667C44.75 68.7718 44.311 69.8316 43.5296 70.613C42.7482 71.3944 41.6884 71.8334 40.5833 71.8334H34.3333C33.2282 71.8334 32.1684 71.3944 31.387 70.613C30.6056 69.8316 30.1666 68.7718 30.1666 67.6667V61.4167C30.1666 60.3116 30.6056 59.2518 31.387 58.4704C32.1684 57.689 33.2282 57.25 34.3333 57.25H40.5833C41.6884 57.25 42.7482 57.689 43.5296 58.4704C44.311 59.2518 44.75 60.3116 44.75 61.4167V67.6667Z" fill="#25BA6A"/>
<path d="M67.6668 53.0834H61.4168C59.2067 53.0834 57.0871 53.9613 55.5243 55.5242C53.9615 57.087 53.0835 59.2066 53.0835 61.4167V67.6667C53.0835 69.8769 53.9615 71.9965 55.5243 73.5593C57.0871 75.1221 59.2067 76.0001 61.4168 76.0001H67.6668C69.877 76.0001 71.9966 75.1221 73.5594 73.5593C75.1222 71.9965 76.0002 69.8769 76.0002 67.6667V61.4167C76.0002 59.2066 75.1222 57.087 73.5594 55.5242C71.9966 53.9613 69.877 53.0834 67.6668 53.0834ZM71.8335 67.6667C71.8335 68.7718 71.3945 69.8316 70.6131 70.613C69.8317 71.3944 68.7719 71.8334 67.6668 71.8334H61.4168C60.3118 71.8334 59.252 71.3944 58.4706 70.613C57.6892 69.8316 57.2502 68.7718 57.2502 67.6667V61.4167C57.2502 60.3116 57.6892 59.2518 58.4706 58.4704C59.252 57.689 60.3118 57.25 61.4168 57.25H67.6668C68.7719 57.25 69.8317 57.689 70.6131 58.4704C71.3945 59.2518 71.8335 60.3116 71.8335 61.4167V67.6667Z" fill="#25BA6A"/>
<path d="M55.1669 40.5834H61.4169V46.8334C61.4169 47.3859 61.6364 47.9158 62.0271 48.3065C62.4178 48.6972 62.9477 48.9167 63.5002 48.9167C64.0527 48.9167 64.5826 48.6972 64.9733 48.3065C65.364 47.9158 65.5835 47.3859 65.5835 46.8334V40.5834H71.8335C72.3861 40.5834 72.916 40.3639 73.3067 39.9732C73.6974 39.5825 73.9169 39.0526 73.9169 38.5C73.9169 37.9475 73.6974 37.4176 73.3067 37.0269C72.916 36.6362 72.3861 36.4167 71.8335 36.4167H65.5835V30.1667C65.5835 29.6142 65.364 29.0843 64.9733 28.6936C64.5826 28.3029 64.0527 28.0834 63.5002 28.0834C62.9477 28.0834 62.4178 28.3029 62.0271 28.6936C61.6364 29.0843 61.4169 29.6142 61.4169 30.1667V36.4167H55.1669C54.6143 36.4167 54.0844 36.6362 53.6937 37.0269C53.303 37.4176 53.0835 37.9475 53.0835 38.5C53.0835 39.0526 53.303 39.5825 53.6937 39.9732C54.0844 40.3639 54.6143 40.5834 55.1669 40.5834Z" fill="#25BA6A"/>
</g>
<defs>
<clipPath id="clip0_1_116">
<rect width="50" height="50" fill="white" transform="translate(26 26)"/>
</clipPath>
</defs>
</svg>
