<svg width="320" height="324" viewBox="0 0 320 324" fill="none" xmlns="http://www.w3.org/2000/svg">
<g filter="url(#filter0_d_1_72)">
<path d="M33 55C33 35.67 48.67 20 68 20H263C265.209 20 267 21.7909 267 24V223C267 242.33 251.33 258 232 258H37C34.7909 258 33 256.209 33 254V55Z" fill="white"/>
</g>
<path d="M48 55C48 43.9543 56.9543 35 68 35H248C250.209 35 252 36.7909 252 39V224C252 235.046 243.046 244 232 244H52C49.7909 244 48 242.209 48 240V55Z" fill="#EAFFFF"/>
<path d="M138.261 152.173L136.239 151.689L136.969 145.203H144.158V147.251H139.052L138.735 150.09C138.905 149.99 139.163 149.885 139.509 149.773C139.854 149.656 140.241 149.598 140.669 149.598C141.29 149.598 141.841 149.694 142.321 149.888C142.802 150.081 143.209 150.362 143.543 150.731C143.883 151.101 144.141 151.552 144.316 152.085C144.492 152.618 144.58 153.222 144.58 153.896C144.58 154.464 144.492 155.006 144.316 155.521C144.141 156.031 143.874 156.488 143.517 156.893C143.159 157.291 142.711 157.604 142.172 157.833C141.633 158.062 140.994 158.176 140.256 158.176C139.705 158.176 139.172 158.094 138.656 157.93C138.146 157.766 137.687 157.522 137.276 157.2C136.872 156.878 136.547 156.488 136.301 156.031C136.061 155.568 135.935 155.041 135.923 154.449H138.437C138.472 154.812 138.565 155.126 138.718 155.39C138.876 155.647 139.084 155.847 139.342 155.987C139.6 156.128 139.901 156.198 140.247 156.198C140.569 156.198 140.845 156.137 141.073 156.014C141.302 155.891 141.486 155.721 141.627 155.504C141.768 155.281 141.87 155.023 141.935 154.73C142.005 154.432 142.04 154.109 142.04 153.764C142.04 153.418 141.999 153.104 141.917 152.823C141.835 152.542 141.709 152.299 141.539 152.094C141.369 151.889 141.152 151.73 140.889 151.619C140.631 151.508 140.329 151.452 139.983 151.452C139.515 151.452 139.151 151.525 138.894 151.672C138.642 151.818 138.431 151.985 138.261 152.173ZM154.837 154.493C154.837 155.296 154.649 155.973 154.274 156.523C153.899 157.068 153.384 157.481 152.728 157.763C152.077 158.038 151.339 158.176 150.513 158.176C149.687 158.176 148.945 158.038 148.289 157.763C147.633 157.481 147.114 157.068 146.733 156.523C146.353 155.973 146.162 155.296 146.162 154.493C146.162 153.954 146.271 153.468 146.487 153.034C146.704 152.595 147.006 152.22 147.393 151.909C147.785 151.593 148.245 151.353 148.772 151.188C149.3 151.019 149.874 150.934 150.495 150.934C151.327 150.934 152.071 151.08 152.728 151.373C153.384 151.666 153.899 152.079 154.274 152.612C154.649 153.146 154.837 153.772 154.837 154.493ZM152.288 154.326C152.288 153.934 152.212 153.597 152.06 153.315C151.913 153.028 151.705 152.809 151.436 152.656C151.166 152.504 150.853 152.428 150.495 152.428C150.138 152.428 149.824 152.504 149.555 152.656C149.285 152.809 149.074 153.028 148.922 153.315C148.775 153.597 148.702 153.934 148.702 154.326C148.702 154.713 148.775 155.047 148.922 155.328C149.074 155.609 149.285 155.826 149.555 155.979C149.83 156.125 150.149 156.198 150.513 156.198C150.876 156.198 151.189 156.125 151.453 155.979C151.723 155.826 151.928 155.609 152.068 155.328C152.215 155.047 152.288 154.713 152.288 154.326ZM154.564 148.596C154.564 149.246 154.392 149.823 154.046 150.327C153.7 150.825 153.22 151.215 152.604 151.496C151.995 151.777 151.298 151.918 150.513 151.918C149.722 151.918 149.019 151.777 148.403 151.496C147.788 151.215 147.308 150.825 146.962 150.327C146.616 149.823 146.443 149.246 146.443 148.596C146.443 147.822 146.616 147.172 146.962 146.645C147.313 146.111 147.794 145.707 148.403 145.432C149.019 145.156 149.716 145.019 150.495 145.019C151.286 145.019 151.986 145.156 152.596 145.432C153.211 145.707 153.691 146.111 154.037 146.645C154.389 147.172 154.564 147.822 154.564 148.596ZM152.033 148.71C152.033 148.364 151.972 148.065 151.849 147.813C151.726 147.556 151.55 147.356 151.321 147.216C151.099 147.075 150.823 147.005 150.495 147.005C150.179 147.005 149.906 147.072 149.678 147.207C149.455 147.342 149.282 147.538 149.159 147.796C149.042 148.048 148.983 148.353 148.983 148.71C148.983 149.056 149.042 149.36 149.159 149.624C149.282 149.882 149.458 150.084 149.687 150.23C149.915 150.377 150.19 150.45 150.513 150.45C150.835 150.45 151.107 150.377 151.33 150.23C151.559 150.084 151.731 149.882 151.849 149.624C151.972 149.36 152.033 149.056 152.033 148.71ZM156.516 148.341V147.664C156.516 147.178 156.621 146.735 156.832 146.337C157.043 145.938 157.354 145.619 157.764 145.379C158.174 145.139 158.678 145.019 159.275 145.019C159.891 145.019 160.403 145.139 160.813 145.379C161.229 145.619 161.54 145.938 161.745 146.337C161.956 146.735 162.062 147.178 162.062 147.664V148.341C162.062 148.815 161.956 149.252 161.745 149.65C161.54 150.049 161.232 150.368 160.822 150.608C160.412 150.849 159.905 150.969 159.302 150.969C158.692 150.969 158.18 150.849 157.764 150.608C157.354 150.368 157.043 150.049 156.832 149.65C156.621 149.252 156.516 148.815 156.516 148.341ZM158.194 147.664V148.341C158.194 148.546 158.232 148.742 158.309 148.93C158.391 149.111 158.514 149.261 158.678 149.378C158.848 149.489 159.053 149.545 159.293 149.545C159.545 149.545 159.75 149.489 159.908 149.378C160.066 149.261 160.184 149.111 160.26 148.93C160.336 148.742 160.374 148.546 160.374 148.341V147.664C160.374 147.447 160.333 147.248 160.251 147.066C160.175 146.879 160.055 146.729 159.891 146.618C159.732 146.501 159.527 146.442 159.275 146.442C159.041 146.442 158.842 146.501 158.678 146.618C158.514 146.729 158.391 146.879 158.309 147.066C158.232 147.248 158.194 147.447 158.194 147.664ZM162.633 155.539V154.862C162.633 154.382 162.738 153.942 162.949 153.544C163.166 153.146 163.479 152.826 163.89 152.586C164.306 152.346 164.815 152.226 165.419 152.226C166.028 152.226 166.538 152.346 166.948 152.586C167.358 152.826 167.669 153.146 167.88 153.544C168.091 153.942 168.196 154.382 168.196 154.862V155.539C168.196 156.02 168.091 156.459 167.88 156.857C167.675 157.256 167.367 157.575 166.957 157.815C166.547 158.056 166.04 158.176 165.437 158.176C164.827 158.176 164.314 158.056 163.898 157.815C163.482 157.575 163.166 157.256 162.949 156.857C162.738 156.459 162.633 156.02 162.633 155.539ZM164.32 154.862V155.539C164.32 155.75 164.367 155.949 164.461 156.137C164.555 156.324 164.684 156.474 164.848 156.585C165.018 156.696 165.214 156.752 165.437 156.752C165.718 156.752 165.938 156.696 166.096 156.585C166.254 156.474 166.362 156.324 166.421 156.137C166.485 155.949 166.518 155.75 166.518 155.539V154.862C166.518 154.651 166.477 154.455 166.395 154.273C166.312 154.086 166.189 153.937 166.025 153.825C165.867 153.708 165.665 153.649 165.419 153.649C165.173 153.649 164.968 153.708 164.804 153.825C164.646 153.937 164.525 154.086 164.443 154.273C164.361 154.455 164.32 154.651 164.32 154.862ZM166.043 147.031L159.794 157.033L158.563 156.383L164.812 146.381L166.043 147.031Z" fill="#484848"/>
<path d="M137.711 130.711C137.711 130.523 137.664 130.354 137.57 130.203C137.477 130.047 137.297 129.906 137.031 129.781C136.771 129.656 136.385 129.542 135.875 129.438C135.427 129.339 135.016 129.221 134.641 129.086C134.271 128.945 133.953 128.776 133.688 128.578C133.422 128.38 133.216 128.146 133.07 127.875C132.924 127.604 132.852 127.292 132.852 126.938C132.852 126.594 132.927 126.268 133.078 125.961C133.229 125.654 133.445 125.383 133.727 125.148C134.008 124.914 134.349 124.729 134.75 124.594C135.156 124.458 135.609 124.391 136.109 124.391C136.818 124.391 137.424 124.51 137.93 124.75C138.44 124.984 138.831 125.305 139.102 125.711C139.372 126.112 139.508 126.565 139.508 127.07H137.625C137.625 126.846 137.568 126.638 137.453 126.445C137.344 126.247 137.177 126.089 136.953 125.969C136.729 125.844 136.448 125.781 136.109 125.781C135.786 125.781 135.518 125.833 135.305 125.938C135.096 126.036 134.94 126.167 134.836 126.328C134.737 126.49 134.688 126.667 134.688 126.859C134.688 127 134.714 127.128 134.766 127.242C134.823 127.352 134.917 127.453 135.047 127.547C135.177 127.635 135.354 127.719 135.578 127.797C135.807 127.875 136.094 127.951 136.438 128.023C137.083 128.159 137.638 128.333 138.102 128.547C138.57 128.755 138.93 129.026 139.18 129.359C139.43 129.688 139.555 130.104 139.555 130.609C139.555 130.984 139.474 131.328 139.312 131.641C139.156 131.948 138.927 132.216 138.625 132.445C138.323 132.669 137.961 132.844 137.539 132.969C137.122 133.094 136.654 133.156 136.133 133.156C135.367 133.156 134.719 133.021 134.188 132.75C133.656 132.474 133.253 132.122 132.977 131.695C132.706 131.263 132.57 130.815 132.57 130.352H134.391C134.411 130.701 134.508 130.979 134.68 131.188C134.857 131.391 135.076 131.539 135.336 131.633C135.602 131.721 135.875 131.766 136.156 131.766C136.495 131.766 136.779 131.721 137.008 131.633C137.237 131.539 137.411 131.414 137.531 131.258C137.651 131.096 137.711 130.914 137.711 130.711ZM144.656 131.656C144.964 131.656 145.24 131.596 145.484 131.477C145.734 131.352 145.935 131.18 146.086 130.961C146.242 130.742 146.328 130.49 146.344 130.203H148.117C148.107 130.75 147.945 131.247 147.633 131.695C147.32 132.143 146.906 132.5 146.391 132.766C145.875 133.026 145.305 133.156 144.68 133.156C144.034 133.156 143.471 133.047 142.992 132.828C142.513 132.604 142.115 132.297 141.797 131.906C141.479 131.516 141.24 131.065 141.078 130.555C140.922 130.044 140.844 129.497 140.844 128.914V128.641C140.844 128.057 140.922 127.51 141.078 127C141.24 126.484 141.479 126.031 141.797 125.641C142.115 125.25 142.513 124.945 142.992 124.727C143.471 124.503 144.031 124.391 144.672 124.391C145.349 124.391 145.943 124.526 146.453 124.797C146.964 125.062 147.365 125.435 147.656 125.914C147.953 126.388 148.107 126.94 148.117 127.57H146.344C146.328 127.258 146.25 126.977 146.109 126.727C145.974 126.471 145.781 126.268 145.531 126.117C145.286 125.966 144.992 125.891 144.648 125.891C144.268 125.891 143.953 125.969 143.703 126.125C143.453 126.276 143.258 126.484 143.117 126.75C142.977 127.01 142.875 127.305 142.812 127.633C142.755 127.956 142.727 128.292 142.727 128.641V128.914C142.727 129.263 142.755 129.602 142.812 129.93C142.87 130.258 142.969 130.552 143.109 130.812C143.255 131.068 143.453 131.273 143.703 131.43C143.953 131.581 144.271 131.656 144.656 131.656ZM149.203 128.867V128.688C149.203 128.078 149.292 127.513 149.469 126.992C149.646 126.466 149.901 126.01 150.234 125.625C150.573 125.234 150.984 124.932 151.469 124.719C151.958 124.5 152.51 124.391 153.125 124.391C153.745 124.391 154.297 124.5 154.781 124.719C155.271 124.932 155.685 125.234 156.023 125.625C156.362 126.01 156.62 126.466 156.797 126.992C156.974 127.513 157.062 128.078 157.062 128.688V128.867C157.062 129.477 156.974 130.042 156.797 130.562C156.62 131.083 156.362 131.539 156.023 131.93C155.685 132.315 155.273 132.617 154.789 132.836C154.305 133.049 153.755 133.156 153.141 133.156C152.521 133.156 151.966 133.049 151.477 132.836C150.992 132.617 150.581 132.315 150.242 131.93C149.904 131.539 149.646 131.083 149.469 130.562C149.292 130.042 149.203 129.477 149.203 128.867ZM151.086 128.688V128.867C151.086 129.247 151.125 129.607 151.203 129.945C151.281 130.284 151.404 130.581 151.57 130.836C151.737 131.091 151.951 131.292 152.211 131.438C152.471 131.583 152.781 131.656 153.141 131.656C153.49 131.656 153.792 131.583 154.047 131.438C154.307 131.292 154.521 131.091 154.688 130.836C154.854 130.581 154.977 130.284 155.055 129.945C155.138 129.607 155.18 129.247 155.18 128.867V128.688C155.18 128.312 155.138 127.958 155.055 127.625C154.977 127.286 154.852 126.987 154.68 126.727C154.513 126.466 154.299 126.263 154.039 126.117C153.784 125.966 153.479 125.891 153.125 125.891C152.771 125.891 152.464 125.966 152.203 126.117C151.948 126.263 151.737 126.466 151.57 126.727C151.404 126.987 151.281 127.286 151.203 127.625C151.125 127.958 151.086 128.312 151.086 128.688ZM160.531 126.156V133H158.648V124.547H160.445L160.531 126.156ZM163.117 124.492L163.102 126.242C162.987 126.221 162.862 126.206 162.727 126.195C162.596 126.185 162.466 126.18 162.336 126.18C162.013 126.18 161.729 126.227 161.484 126.32C161.24 126.409 161.034 126.539 160.867 126.711C160.706 126.878 160.581 127.081 160.492 127.32C160.404 127.56 160.352 127.828 160.336 128.125L159.906 128.156C159.906 127.625 159.958 127.133 160.062 126.68C160.167 126.227 160.323 125.828 160.531 125.484C160.745 125.141 161.01 124.872 161.328 124.68C161.651 124.487 162.023 124.391 162.445 124.391C162.56 124.391 162.682 124.401 162.812 124.422C162.948 124.443 163.049 124.466 163.117 124.492ZM167.867 133.156C167.242 133.156 166.677 133.055 166.172 132.852C165.672 132.643 165.245 132.354 164.891 131.984C164.542 131.615 164.273 131.18 164.086 130.68C163.898 130.18 163.805 129.641 163.805 129.062V128.75C163.805 128.089 163.901 127.49 164.094 126.953C164.286 126.417 164.555 125.958 164.898 125.578C165.242 125.193 165.648 124.898 166.117 124.695C166.586 124.492 167.094 124.391 167.641 124.391C168.245 124.391 168.773 124.492 169.227 124.695C169.68 124.898 170.055 125.185 170.352 125.555C170.654 125.919 170.878 126.354 171.023 126.859C171.174 127.365 171.25 127.922 171.25 128.531V129.336H164.719V127.984H169.391V127.836C169.38 127.497 169.312 127.18 169.188 126.883C169.068 126.586 168.883 126.346 168.633 126.164C168.383 125.982 168.049 125.891 167.633 125.891C167.32 125.891 167.042 125.958 166.797 126.094C166.557 126.224 166.357 126.414 166.195 126.664C166.034 126.914 165.909 127.216 165.82 127.57C165.737 127.919 165.695 128.312 165.695 128.75V129.062C165.695 129.432 165.745 129.776 165.844 130.094C165.948 130.406 166.099 130.68 166.297 130.914C166.495 131.148 166.734 131.333 167.016 131.469C167.297 131.599 167.617 131.664 167.977 131.664C168.43 131.664 168.833 131.573 169.188 131.391C169.542 131.208 169.849 130.951 170.109 130.617L171.102 131.578C170.919 131.844 170.682 132.099 170.391 132.344C170.099 132.583 169.742 132.779 169.32 132.93C168.904 133.081 168.419 133.156 167.867 133.156Z" fill="#6B6B6B"/>
<path d="M211.947 146.115C212.464 133.376 209.194 120.769 202.549 109.887C195.905 99.0057 186.184 90.3374 174.616 84.9774L168.5 100C174.5 103 183.38 110.518 188.306 118.584C193.231 126.651 195.655 135.995 195.272 145.438L211.947 146.115Z" fill="#FF6B6B"/>
<path d="M176.436 81.0157C167.726 77.3646 158.321 75.6707 148.884 76.0537C139.448 76.4367 130.211 78.8872 121.826 83.2322C113.44 87.5771 106.112 93.7105 100.357 101.199C94.6025 108.687 90.5626 117.348 88.5227 126.569C86.4829 135.79 86.4929 145.347 88.5521 154.564C90.6113 163.781 94.6694 172.433 100.44 179.91C106.21 187.386 113.552 193.504 121.946 197.831C130.34 202.159 139.583 204.59 149.02 204.953L149.813 184.328C143.396 184.081 137.111 182.428 131.403 179.485C125.695 176.543 120.703 172.383 116.779 167.299C112.855 162.215 110.096 156.331 108.696 150.064C107.295 143.796 107.288 137.298 108.676 131.027C110.063 124.757 112.81 118.868 116.723 113.775C120.636 108.683 125.62 104.513 131.322 101.558C137.024 98.6035 143.305 96.9371 149.722 96.6767C156.138 96.4163 162.577 97.5172 168.5 100L176.436 81.0157Z" fill="#4DECE3"/>
<path d="M177.57 78.2377C177.997 77.2188 177.517 76.0441 176.487 75.647C168.603 72.6096 160.226 71.0331 151.766 71.0007C142.64 70.9657 133.595 72.7288 125.15 76.1891C116.704 79.6495 109.023 84.7395 102.545 91.1684C96.5401 97.1274 91.6777 104.129 88.1919 111.824C87.7361 112.831 88.2189 114.004 89.2378 114.43L109.132 122.76C110.151 123.187 111.318 122.704 111.791 121.706C113.969 117.104 116.933 112.91 120.554 109.316C124.65 105.253 129.505 102.035 134.844 99.8477C140.182 97.6603 145.899 96.5459 151.669 96.568C156.77 96.5875 161.825 97.4955 166.606 99.2463C167.643 99.6261 168.814 99.1505 169.24 98.1317L177.57 78.2377Z" fill="#4DECE3"/>
<path d="M92.0994 115.365C88.4191 124.063 86.6936 133.462 87.0449 142.9C87.3962 152.337 89.8157 161.583 94.1324 169.982C98.4492 178.382 104.558 185.732 112.027 191.511C119.496 197.291 128.143 201.36 137.357 203.431C146.572 205.502 156.128 205.524 165.352 203.496C174.576 201.467 183.242 197.439 190.737 191.693C198.233 185.948 204.376 178.627 208.731 170.247C213.087 161.868 215.549 152.634 215.944 143.198L195.322 142.335C195.053 148.751 193.379 155.03 190.417 160.728C187.455 166.427 183.279 171.405 178.181 175.312C173.084 179.218 167.192 181.958 160.919 183.337C154.647 184.716 148.149 184.701 141.883 183.293C135.617 181.885 129.737 179.118 124.658 175.188C119.579 171.258 115.426 166.26 112.49 160.548C109.555 154.836 107.909 148.55 107.671 142.132C107.432 135.714 108.605 129.323 111.108 123.408L92.0994 115.365Z" fill="#20B2AA"/>
<path d="M86.2832 227.283C86.2832 227.143 86.248 227.016 86.1777 226.902C86.1074 226.785 85.9727 226.68 85.7734 226.586C85.5781 226.492 85.2891 226.406 84.9062 226.328C84.5703 226.254 84.2617 226.166 83.9805 226.064C83.7031 225.959 83.4648 225.832 83.2656 225.684C83.0664 225.535 82.9121 225.359 82.8027 225.156C82.6934 224.953 82.6387 224.719 82.6387 224.453C82.6387 224.195 82.6953 223.951 82.8086 223.721C82.9219 223.49 83.084 223.287 83.2949 223.111C83.5059 222.936 83.7617 222.797 84.0625 222.695C84.3672 222.594 84.707 222.543 85.082 222.543C85.6133 222.543 86.0684 222.633 86.4473 222.812C86.8301 222.988 87.123 223.229 87.3262 223.533C87.5293 223.834 87.6309 224.174 87.6309 224.553H86.2188C86.2188 224.385 86.1758 224.229 86.0898 224.084C86.0078 223.936 85.8828 223.816 85.7148 223.727C85.5469 223.633 85.3359 223.586 85.082 223.586C84.8398 223.586 84.6387 223.625 84.4785 223.703C84.3223 223.777 84.2051 223.875 84.127 223.996C84.0527 224.117 84.0156 224.25 84.0156 224.395C84.0156 224.5 84.0352 224.596 84.0742 224.682C84.1172 224.764 84.1875 224.84 84.2852 224.91C84.3828 224.977 84.5156 225.039 84.6836 225.098C84.8555 225.156 85.0703 225.213 85.3281 225.268C85.8125 225.369 86.2285 225.5 86.5762 225.66C86.9277 225.816 87.1973 226.02 87.3848 226.27C87.5723 226.516 87.666 226.828 87.666 227.207C87.666 227.488 87.6055 227.746 87.4844 227.98C87.3672 228.211 87.1953 228.412 86.9688 228.584C86.7422 228.752 86.4707 228.883 86.1543 228.977C85.8418 229.07 85.4902 229.117 85.0996 229.117C84.5254 229.117 84.0391 229.016 83.6406 228.812C83.2422 228.605 82.9395 228.342 82.7324 228.021C82.5293 227.697 82.4277 227.361 82.4277 227.014H83.793C83.8086 227.275 83.8809 227.484 84.0098 227.641C84.1426 227.793 84.3066 227.904 84.502 227.975C84.7012 228.041 84.9062 228.074 85.1172 228.074C85.3711 228.074 85.584 228.041 85.7559 227.975C85.9277 227.904 86.0586 227.811 86.1484 227.693C86.2383 227.572 86.2832 227.436 86.2832 227.283ZM91.4922 227.992C91.7227 227.992 91.9297 227.947 92.1133 227.857C92.3008 227.764 92.4512 227.635 92.5645 227.471C92.6816 227.307 92.7461 227.117 92.7578 226.902H94.0879C94.0801 227.312 93.959 227.686 93.7246 228.021C93.4902 228.357 93.1797 228.625 92.793 228.824C92.4062 229.02 91.9785 229.117 91.5098 229.117C91.0254 229.117 90.6035 229.035 90.2441 228.871C89.8848 228.703 89.5859 228.473 89.3477 228.18C89.1094 227.887 88.9297 227.549 88.8086 227.166C88.6914 226.783 88.6328 226.373 88.6328 225.936V225.73C88.6328 225.293 88.6914 224.883 88.8086 224.5C88.9297 224.113 89.1094 223.773 89.3477 223.48C89.5859 223.188 89.8848 222.959 90.2441 222.795C90.6035 222.627 91.0234 222.543 91.5039 222.543C92.0117 222.543 92.457 222.645 92.8398 222.848C93.2227 223.047 93.5234 223.326 93.7422 223.686C93.9648 224.041 94.0801 224.455 94.0879 224.928H92.7578C92.7461 224.693 92.6875 224.482 92.582 224.295C92.4805 224.104 92.3359 223.951 92.1484 223.838C91.9648 223.725 91.7441 223.668 91.4863 223.668C91.2012 223.668 90.9648 223.727 90.7773 223.844C90.5898 223.957 90.4434 224.113 90.3379 224.312C90.2324 224.508 90.1562 224.729 90.1094 224.975C90.0664 225.217 90.0449 225.469 90.0449 225.73V225.936C90.0449 226.197 90.0664 226.451 90.1094 226.697C90.1523 226.943 90.2266 227.164 90.332 227.359C90.4414 227.551 90.5898 227.705 90.7773 227.822C90.9648 227.936 91.2031 227.992 91.4922 227.992ZM94.9023 225.9V225.766C94.9023 225.309 94.9688 224.885 95.1016 224.494C95.2344 224.1 95.4258 223.758 95.6758 223.469C95.9297 223.176 96.2383 222.949 96.6016 222.789C96.9688 222.625 97.3828 222.543 97.8438 222.543C98.3086 222.543 98.7227 222.625 99.0859 222.789C99.4531 222.949 99.7637 223.176 100.018 223.469C100.271 223.758 100.465 224.1 100.598 224.494C100.73 224.885 100.797 225.309 100.797 225.766V225.9C100.797 226.357 100.73 226.781 100.598 227.172C100.465 227.562 100.271 227.904 100.018 228.197C99.7637 228.486 99.4551 228.713 99.0918 228.877C98.7285 229.037 98.3164 229.117 97.8555 229.117C97.3906 229.117 96.9746 229.037 96.6074 228.877C96.2441 228.713 95.9355 228.486 95.6816 228.197C95.4277 227.904 95.2344 227.562 95.1016 227.172C94.9688 226.781 94.9023 226.357 94.9023 225.9ZM96.3145 225.766V225.9C96.3145 226.186 96.3438 226.455 96.4023 226.709C96.4609 226.963 96.5527 227.186 96.6777 227.377C96.8027 227.568 96.9629 227.719 97.1582 227.828C97.3535 227.938 97.5859 227.992 97.8555 227.992C98.1172 227.992 98.3438 227.938 98.5352 227.828C98.7305 227.719 98.8906 227.568 99.0156 227.377C99.1406 227.186 99.2324 226.963 99.291 226.709C99.3535 226.455 99.3848 226.186 99.3848 225.9V225.766C99.3848 225.484 99.3535 225.219 99.291 224.969C99.2324 224.715 99.1387 224.49 99.0098 224.295C98.8848 224.1 98.7246 223.947 98.5293 223.838C98.3379 223.725 98.1094 223.668 97.8438 223.668C97.5781 223.668 97.3477 223.725 97.1523 223.838C96.9609 223.947 96.8027 224.1 96.6777 224.295C96.5527 224.49 96.4609 224.715 96.4023 224.969C96.3438 225.219 96.3145 225.484 96.3145 225.766ZM103.398 223.867V229H101.986V222.66H103.334L103.398 223.867ZM105.338 222.619L105.326 223.932C105.24 223.916 105.146 223.904 105.045 223.896C104.947 223.889 104.85 223.885 104.752 223.885C104.51 223.885 104.297 223.92 104.113 223.99C103.93 224.057 103.775 224.154 103.65 224.283C103.529 224.408 103.436 224.561 103.369 224.74C103.303 224.92 103.264 225.121 103.252 225.344L102.93 225.367C102.93 224.969 102.969 224.6 103.047 224.26C103.125 223.92 103.242 223.621 103.398 223.363C103.559 223.105 103.758 222.904 103.996 222.76C104.238 222.615 104.518 222.543 104.834 222.543C104.92 222.543 105.012 222.551 105.109 222.566C105.211 222.582 105.287 222.6 105.338 222.619ZM108.9 229.117C108.432 229.117 108.008 229.041 107.629 228.889C107.254 228.732 106.934 228.516 106.668 228.238C106.406 227.961 106.205 227.635 106.064 227.26C105.924 226.885 105.854 226.48 105.854 226.047V225.812C105.854 225.316 105.926 224.867 106.07 224.465C106.215 224.062 106.416 223.719 106.674 223.434C106.932 223.145 107.236 222.924 107.588 222.771C107.939 222.619 108.32 222.543 108.73 222.543C109.184 222.543 109.58 222.619 109.92 222.771C110.26 222.924 110.541 223.139 110.764 223.416C110.99 223.689 111.158 224.016 111.268 224.395C111.381 224.773 111.438 225.191 111.438 225.648V226.252H106.539V225.238H110.043V225.127C110.035 224.873 109.984 224.635 109.891 224.412C109.801 224.189 109.662 224.01 109.475 223.873C109.287 223.736 109.037 223.668 108.725 223.668C108.49 223.668 108.281 223.719 108.098 223.82C107.918 223.918 107.768 224.061 107.646 224.248C107.525 224.436 107.432 224.662 107.365 224.928C107.303 225.189 107.271 225.484 107.271 225.812V226.047C107.271 226.324 107.309 226.582 107.383 226.82C107.461 227.055 107.574 227.26 107.723 227.436C107.871 227.611 108.051 227.75 108.262 227.852C108.473 227.949 108.713 227.998 108.982 227.998C109.322 227.998 109.625 227.93 109.891 227.793C110.156 227.656 110.387 227.463 110.582 227.213L111.326 227.934C111.189 228.133 111.012 228.324 110.793 228.508C110.574 228.688 110.307 228.834 109.99 228.947C109.678 229.061 109.314 229.117 108.9 229.117Z" fill="#6B6B6B"/>
<rect x="69" y="221" width="10" height="10" rx="2" fill="#FF6B6B"/>
<path d="M149.283 227.283C149.283 227.143 149.248 227.016 149.178 226.902C149.107 226.785 148.973 226.68 148.773 226.586C148.578 226.492 148.289 226.406 147.906 226.328C147.57 226.254 147.262 226.166 146.98 226.064C146.703 225.959 146.465 225.832 146.266 225.684C146.066 225.535 145.912 225.359 145.803 225.156C145.693 224.953 145.639 224.719 145.639 224.453C145.639 224.195 145.695 223.951 145.809 223.721C145.922 223.49 146.084 223.287 146.295 223.111C146.506 222.936 146.762 222.797 147.062 222.695C147.367 222.594 147.707 222.543 148.082 222.543C148.613 222.543 149.068 222.633 149.447 222.812C149.83 222.988 150.123 223.229 150.326 223.533C150.529 223.834 150.631 224.174 150.631 224.553H149.219C149.219 224.385 149.176 224.229 149.09 224.084C149.008 223.936 148.883 223.816 148.715 223.727C148.547 223.633 148.336 223.586 148.082 223.586C147.84 223.586 147.639 223.625 147.479 223.703C147.322 223.777 147.205 223.875 147.127 223.996C147.053 224.117 147.016 224.25 147.016 224.395C147.016 224.5 147.035 224.596 147.074 224.682C147.117 224.764 147.188 224.84 147.285 224.91C147.383 224.977 147.516 225.039 147.684 225.098C147.855 225.156 148.07 225.213 148.328 225.268C148.812 225.369 149.229 225.5 149.576 225.66C149.928 225.816 150.197 226.02 150.385 226.27C150.572 226.516 150.666 226.828 150.666 227.207C150.666 227.488 150.605 227.746 150.484 227.98C150.367 228.211 150.195 228.412 149.969 228.584C149.742 228.752 149.471 228.883 149.154 228.977C148.842 229.07 148.49 229.117 148.1 229.117C147.525 229.117 147.039 229.016 146.641 228.812C146.242 228.605 145.939 228.342 145.732 228.021C145.529 227.697 145.428 227.361 145.428 227.014H146.793C146.809 227.275 146.881 227.484 147.01 227.641C147.143 227.793 147.307 227.904 147.502 227.975C147.701 228.041 147.906 228.074 148.117 228.074C148.371 228.074 148.584 228.041 148.756 227.975C148.928 227.904 149.059 227.811 149.148 227.693C149.238 227.572 149.283 227.436 149.283 227.283ZM154.492 227.992C154.723 227.992 154.93 227.947 155.113 227.857C155.301 227.764 155.451 227.635 155.564 227.471C155.682 227.307 155.746 227.117 155.758 226.902H157.088C157.08 227.312 156.959 227.686 156.725 228.021C156.49 228.357 156.18 228.625 155.793 228.824C155.406 229.02 154.979 229.117 154.51 229.117C154.025 229.117 153.604 229.035 153.244 228.871C152.885 228.703 152.586 228.473 152.348 228.18C152.109 227.887 151.93 227.549 151.809 227.166C151.691 226.783 151.633 226.373 151.633 225.936V225.73C151.633 225.293 151.691 224.883 151.809 224.5C151.93 224.113 152.109 223.773 152.348 223.48C152.586 223.188 152.885 222.959 153.244 222.795C153.604 222.627 154.023 222.543 154.504 222.543C155.012 222.543 155.457 222.645 155.84 222.848C156.223 223.047 156.523 223.326 156.742 223.686C156.965 224.041 157.08 224.455 157.088 224.928H155.758C155.746 224.693 155.688 224.482 155.582 224.295C155.48 224.104 155.336 223.951 155.148 223.838C154.965 223.725 154.744 223.668 154.486 223.668C154.201 223.668 153.965 223.727 153.777 223.844C153.59 223.957 153.443 224.113 153.338 224.312C153.232 224.508 153.156 224.729 153.109 224.975C153.066 225.217 153.045 225.469 153.045 225.73V225.936C153.045 226.197 153.066 226.451 153.109 226.697C153.152 226.943 153.227 227.164 153.332 227.359C153.441 227.551 153.59 227.705 153.777 227.822C153.965 227.936 154.203 227.992 154.492 227.992ZM157.902 225.9V225.766C157.902 225.309 157.969 224.885 158.102 224.494C158.234 224.1 158.426 223.758 158.676 223.469C158.93 223.176 159.238 222.949 159.602 222.789C159.969 222.625 160.383 222.543 160.844 222.543C161.309 222.543 161.723 222.625 162.086 222.789C162.453 222.949 162.764 223.176 163.018 223.469C163.271 223.758 163.465 224.1 163.598 224.494C163.73 224.885 163.797 225.309 163.797 225.766V225.9C163.797 226.357 163.73 226.781 163.598 227.172C163.465 227.562 163.271 227.904 163.018 228.197C162.764 228.486 162.455 228.713 162.092 228.877C161.729 229.037 161.316 229.117 160.855 229.117C160.391 229.117 159.975 229.037 159.607 228.877C159.244 228.713 158.936 228.486 158.682 228.197C158.428 227.904 158.234 227.562 158.102 227.172C157.969 226.781 157.902 226.357 157.902 225.9ZM159.314 225.766V225.9C159.314 226.186 159.344 226.455 159.402 226.709C159.461 226.963 159.553 227.186 159.678 227.377C159.803 227.568 159.963 227.719 160.158 227.828C160.354 227.938 160.586 227.992 160.855 227.992C161.117 227.992 161.344 227.938 161.535 227.828C161.73 227.719 161.891 227.568 162.016 227.377C162.141 227.186 162.232 226.963 162.291 226.709C162.354 226.455 162.385 226.186 162.385 225.9V225.766C162.385 225.484 162.354 225.219 162.291 224.969C162.232 224.715 162.139 224.49 162.01 224.295C161.885 224.1 161.725 223.947 161.529 223.838C161.338 223.725 161.109 223.668 160.844 223.668C160.578 223.668 160.348 223.725 160.152 223.838C159.961 223.947 159.803 224.1 159.678 224.295C159.553 224.49 159.461 224.715 159.402 224.969C159.344 225.219 159.314 225.484 159.314 225.766ZM166.398 223.867V229H164.986V222.66H166.334L166.398 223.867ZM168.338 222.619L168.326 223.932C168.24 223.916 168.146 223.904 168.045 223.896C167.947 223.889 167.85 223.885 167.752 223.885C167.51 223.885 167.297 223.92 167.113 223.99C166.93 224.057 166.775 224.154 166.65 224.283C166.529 224.408 166.436 224.561 166.369 224.74C166.303 224.92 166.264 225.121 166.252 225.344L165.93 225.367C165.93 224.969 165.969 224.6 166.047 224.26C166.125 223.92 166.242 223.621 166.398 223.363C166.559 223.105 166.758 222.904 166.996 222.76C167.238 222.615 167.518 222.543 167.834 222.543C167.92 222.543 168.012 222.551 168.109 222.566C168.211 222.582 168.287 222.6 168.338 222.619ZM171.9 229.117C171.432 229.117 171.008 229.041 170.629 228.889C170.254 228.732 169.934 228.516 169.668 228.238C169.406 227.961 169.205 227.635 169.064 227.26C168.924 226.885 168.854 226.48 168.854 226.047V225.812C168.854 225.316 168.926 224.867 169.07 224.465C169.215 224.062 169.416 223.719 169.674 223.434C169.932 223.145 170.236 222.924 170.588 222.771C170.939 222.619 171.32 222.543 171.73 222.543C172.184 222.543 172.58 222.619 172.92 222.771C173.26 222.924 173.541 223.139 173.764 223.416C173.99 223.689 174.158 224.016 174.268 224.395C174.381 224.773 174.438 225.191 174.438 225.648V226.252H169.539V225.238H173.043V225.127C173.035 224.873 172.984 224.635 172.891 224.412C172.801 224.189 172.662 224.01 172.475 223.873C172.287 223.736 172.037 223.668 171.725 223.668C171.49 223.668 171.281 223.719 171.098 223.82C170.918 223.918 170.768 224.061 170.646 224.248C170.525 224.436 170.432 224.662 170.365 224.928C170.303 225.189 170.271 225.484 170.271 225.812V226.047C170.271 226.324 170.309 226.582 170.383 226.82C170.461 227.055 170.574 227.26 170.723 227.436C170.871 227.611 171.051 227.75 171.262 227.852C171.473 227.949 171.713 227.998 171.982 227.998C172.322 227.998 172.625 227.93 172.891 227.793C173.156 227.656 173.387 227.463 173.582 227.213L174.326 227.934C174.189 228.133 174.012 228.324 173.793 228.508C173.574 228.688 173.307 228.834 172.99 228.947C172.678 229.061 172.314 229.117 171.9 229.117Z" fill="#6B6B6B"/>
<rect x="132" y="221" width="10" height="10" rx="2" fill="#20B2AA"/>
<path d="M211.283 227.283C211.283 227.143 211.248 227.016 211.178 226.902C211.107 226.785 210.973 226.68 210.773 226.586C210.578 226.492 210.289 226.406 209.906 226.328C209.57 226.254 209.262 226.166 208.98 226.064C208.703 225.959 208.465 225.832 208.266 225.684C208.066 225.535 207.912 225.359 207.803 225.156C207.693 224.953 207.639 224.719 207.639 224.453C207.639 224.195 207.695 223.951 207.809 223.721C207.922 223.49 208.084 223.287 208.295 223.111C208.506 222.936 208.762 222.797 209.062 222.695C209.367 222.594 209.707 222.543 210.082 222.543C210.613 222.543 211.068 222.633 211.447 222.812C211.83 222.988 212.123 223.229 212.326 223.533C212.529 223.834 212.631 224.174 212.631 224.553H211.219C211.219 224.385 211.176 224.229 211.09 224.084C211.008 223.936 210.883 223.816 210.715 223.727C210.547 223.633 210.336 223.586 210.082 223.586C209.84 223.586 209.639 223.625 209.479 223.703C209.322 223.777 209.205 223.875 209.127 223.996C209.053 224.117 209.016 224.25 209.016 224.395C209.016 224.5 209.035 224.596 209.074 224.682C209.117 224.764 209.188 224.84 209.285 224.91C209.383 224.977 209.516 225.039 209.684 225.098C209.855 225.156 210.07 225.213 210.328 225.268C210.812 225.369 211.229 225.5 211.576 225.66C211.928 225.816 212.197 226.02 212.385 226.27C212.572 226.516 212.666 226.828 212.666 227.207C212.666 227.488 212.605 227.746 212.484 227.98C212.367 228.211 212.195 228.412 211.969 228.584C211.742 228.752 211.471 228.883 211.154 228.977C210.842 229.07 210.49 229.117 210.1 229.117C209.525 229.117 209.039 229.016 208.641 228.812C208.242 228.605 207.939 228.342 207.732 228.021C207.529 227.697 207.428 227.361 207.428 227.014H208.793C208.809 227.275 208.881 227.484 209.01 227.641C209.143 227.793 209.307 227.904 209.502 227.975C209.701 228.041 209.906 228.074 210.117 228.074C210.371 228.074 210.584 228.041 210.756 227.975C210.928 227.904 211.059 227.811 211.148 227.693C211.238 227.572 211.283 227.436 211.283 227.283ZM216.492 227.992C216.723 227.992 216.93 227.947 217.113 227.857C217.301 227.764 217.451 227.635 217.564 227.471C217.682 227.307 217.746 227.117 217.758 226.902H219.088C219.08 227.312 218.959 227.686 218.725 228.021C218.49 228.357 218.18 228.625 217.793 228.824C217.406 229.02 216.979 229.117 216.51 229.117C216.025 229.117 215.604 229.035 215.244 228.871C214.885 228.703 214.586 228.473 214.348 228.18C214.109 227.887 213.93 227.549 213.809 227.166C213.691 226.783 213.633 226.373 213.633 225.936V225.73C213.633 225.293 213.691 224.883 213.809 224.5C213.93 224.113 214.109 223.773 214.348 223.48C214.586 223.188 214.885 222.959 215.244 222.795C215.604 222.627 216.023 222.543 216.504 222.543C217.012 222.543 217.457 222.645 217.84 222.848C218.223 223.047 218.523 223.326 218.742 223.686C218.965 224.041 219.08 224.455 219.088 224.928H217.758C217.746 224.693 217.688 224.482 217.582 224.295C217.48 224.104 217.336 223.951 217.148 223.838C216.965 223.725 216.744 223.668 216.486 223.668C216.201 223.668 215.965 223.727 215.777 223.844C215.59 223.957 215.443 224.113 215.338 224.312C215.232 224.508 215.156 224.729 215.109 224.975C215.066 225.217 215.045 225.469 215.045 225.73V225.936C215.045 226.197 215.066 226.451 215.109 226.697C215.152 226.943 215.227 227.164 215.332 227.359C215.441 227.551 215.59 227.705 215.777 227.822C215.965 227.936 216.203 227.992 216.492 227.992ZM219.902 225.9V225.766C219.902 225.309 219.969 224.885 220.102 224.494C220.234 224.1 220.426 223.758 220.676 223.469C220.93 223.176 221.238 222.949 221.602 222.789C221.969 222.625 222.383 222.543 222.844 222.543C223.309 222.543 223.723 222.625 224.086 222.789C224.453 222.949 224.764 223.176 225.018 223.469C225.271 223.758 225.465 224.1 225.598 224.494C225.73 224.885 225.797 225.309 225.797 225.766V225.9C225.797 226.357 225.73 226.781 225.598 227.172C225.465 227.562 225.271 227.904 225.018 228.197C224.764 228.486 224.455 228.713 224.092 228.877C223.729 229.037 223.316 229.117 222.855 229.117C222.391 229.117 221.975 229.037 221.607 228.877C221.244 228.713 220.936 228.486 220.682 228.197C220.428 227.904 220.234 227.562 220.102 227.172C219.969 226.781 219.902 226.357 219.902 225.9ZM221.314 225.766V225.9C221.314 226.186 221.344 226.455 221.402 226.709C221.461 226.963 221.553 227.186 221.678 227.377C221.803 227.568 221.963 227.719 222.158 227.828C222.354 227.938 222.586 227.992 222.855 227.992C223.117 227.992 223.344 227.938 223.535 227.828C223.73 227.719 223.891 227.568 224.016 227.377C224.141 227.186 224.232 226.963 224.291 226.709C224.354 226.455 224.385 226.186 224.385 225.9V225.766C224.385 225.484 224.354 225.219 224.291 224.969C224.232 224.715 224.139 224.49 224.01 224.295C223.885 224.1 223.725 223.947 223.529 223.838C223.338 223.725 223.109 223.668 222.844 223.668C222.578 223.668 222.348 223.725 222.152 223.838C221.961 223.947 221.803 224.1 221.678 224.295C221.553 224.49 221.461 224.715 221.402 224.969C221.344 225.219 221.314 225.484 221.314 225.766ZM228.398 223.867V229H226.986V222.66H228.334L228.398 223.867ZM230.338 222.619L230.326 223.932C230.24 223.916 230.146 223.904 230.045 223.896C229.947 223.889 229.85 223.885 229.752 223.885C229.51 223.885 229.297 223.92 229.113 223.99C228.93 224.057 228.775 224.154 228.65 224.283C228.529 224.408 228.436 224.561 228.369 224.74C228.303 224.92 228.264 225.121 228.252 225.344L227.93 225.367C227.93 224.969 227.969 224.6 228.047 224.26C228.125 223.92 228.242 223.621 228.398 223.363C228.559 223.105 228.758 222.904 228.996 222.76C229.238 222.615 229.518 222.543 229.834 222.543C229.92 222.543 230.012 222.551 230.109 222.566C230.211 222.582 230.287 222.6 230.338 222.619ZM233.9 229.117C233.432 229.117 233.008 229.041 232.629 228.889C232.254 228.732 231.934 228.516 231.668 228.238C231.406 227.961 231.205 227.635 231.064 227.26C230.924 226.885 230.854 226.48 230.854 226.047V225.812C230.854 225.316 230.926 224.867 231.07 224.465C231.215 224.062 231.416 223.719 231.674 223.434C231.932 223.145 232.236 222.924 232.588 222.771C232.939 222.619 233.32 222.543 233.73 222.543C234.184 222.543 234.58 222.619 234.92 222.771C235.26 222.924 235.541 223.139 235.764 223.416C235.99 223.689 236.158 224.016 236.268 224.395C236.381 224.773 236.438 225.191 236.438 225.648V226.252H231.539V225.238H235.043V225.127C235.035 224.873 234.984 224.635 234.891 224.412C234.801 224.189 234.662 224.01 234.475 223.873C234.287 223.736 234.037 223.668 233.725 223.668C233.49 223.668 233.281 223.719 233.098 223.82C232.918 223.918 232.768 224.061 232.646 224.248C232.525 224.436 232.432 224.662 232.365 224.928C232.303 225.189 232.271 225.484 232.271 225.812V226.047C232.271 226.324 232.309 226.582 232.383 226.82C232.461 227.055 232.574 227.26 232.723 227.436C232.871 227.611 233.051 227.75 233.262 227.852C233.473 227.949 233.713 227.998 233.982 227.998C234.322 227.998 234.625 227.93 234.891 227.793C235.156 227.656 235.387 227.463 235.582 227.213L236.326 227.934C236.189 228.133 236.012 228.324 235.793 228.508C235.574 228.688 235.307 228.834 234.99 228.947C234.678 229.061 234.314 229.117 233.9 229.117Z" fill="#6B6B6B"/>
<rect x="194" y="221" width="10" height="10" rx="2" fill="#4DECE3"/>
<path d="M66.7266 53.9766C66.7266 53.7995 66.7005 53.6406 66.6484 53.5C66.5964 53.3542 66.5 53.2188 66.3594 53.0938C66.2188 52.9688 66.0156 52.8438 65.75 52.7188C65.4896 52.5885 65.1458 52.4531 64.7188 52.3125C64.2188 52.1458 63.737 51.9583 63.2734 51.75C62.8099 51.5365 62.3958 51.2891 62.0312 51.0078C61.6667 50.7214 61.3776 50.388 61.1641 50.0078C60.9505 49.6224 60.8438 49.1745 60.8438 48.6641C60.8438 48.1745 60.9531 47.7344 61.1719 47.3438C61.3906 46.9479 61.6953 46.612 62.0859 46.3359C62.4818 46.0547 62.9453 45.8411 63.4766 45.6953C64.0078 45.5443 64.5885 45.4688 65.2188 45.4688C66.0521 45.4688 66.7865 45.6146 67.4219 45.9062C68.0625 46.1927 68.5625 46.6016 68.9219 47.1328C69.2865 47.6589 69.4688 48.2812 69.4688 49H66.7422C66.7422 48.7135 66.6823 48.4609 66.5625 48.2422C66.4479 48.0234 66.2734 47.8516 66.0391 47.7266C65.8047 47.6016 65.5104 47.5391 65.1562 47.5391C64.8125 47.5391 64.5234 47.5911 64.2891 47.6953C64.0547 47.7995 63.8776 47.9401 63.7578 48.1172C63.638 48.2891 63.5781 48.4792 63.5781 48.6875C63.5781 48.8594 63.625 49.0156 63.7188 49.1562C63.8177 49.2917 63.9557 49.4193 64.1328 49.5391C64.3151 49.6589 64.5339 49.7734 64.7891 49.8828C65.0495 49.9922 65.3411 50.099 65.6641 50.2031C66.2682 50.3958 66.8047 50.612 67.2734 50.8516C67.7474 51.0859 68.1458 51.3542 68.4688 51.6562C68.7969 51.9531 69.0443 52.2917 69.2109 52.6719C69.3828 53.0521 69.4688 53.4818 69.4688 53.9609C69.4688 54.4714 69.3698 54.9245 69.1719 55.3203C68.974 55.7161 68.6901 56.0521 68.3203 56.3281C67.9505 56.599 67.5078 56.8047 66.9922 56.9453C66.4766 57.0859 65.901 57.1562 65.2656 57.1562C64.6823 57.1562 64.1068 57.0833 63.5391 56.9375C62.9766 56.7865 62.4661 56.5573 62.0078 56.25C61.5495 55.9375 61.1823 55.5391 60.9062 55.0547C60.6354 54.5651 60.5 53.9844 60.5 53.3125H63.25C63.25 53.6458 63.2943 53.9271 63.3828 54.1562C63.4714 54.3854 63.6016 54.5703 63.7734 54.7109C63.9453 54.8464 64.1562 54.9453 64.4062 55.0078C64.6562 55.0651 64.9427 55.0938 65.2656 55.0938C65.6146 55.0938 65.8958 55.0443 66.1094 54.9453C66.3229 54.8411 66.4792 54.7057 66.5781 54.5391C66.6771 54.3672 66.7266 54.1797 66.7266 53.9766ZM74.8516 57.1562C74.1641 57.1562 73.5495 57.0495 73.0078 56.8359C72.4661 56.6172 72.0078 56.3177 71.6328 55.9375C71.263 55.5573 70.9792 55.1198 70.7812 54.625C70.5885 54.1302 70.4922 53.6068 70.4922 53.0547V52.7578C70.4922 52.138 70.5781 51.5651 70.75 51.0391C70.9219 50.5078 71.1771 50.0443 71.5156 49.6484C71.8542 49.2526 72.2786 48.9453 72.7891 48.7266C73.2995 48.5026 73.8932 48.3906 74.5703 48.3906C75.1693 48.3906 75.7057 48.487 76.1797 48.6797C76.6536 48.8724 77.0547 49.1484 77.3828 49.5078C77.7161 49.8672 77.9688 50.3021 78.1406 50.8125C78.3177 51.3229 78.4062 51.8958 78.4062 52.5312V53.6016H71.5V51.9531H75.8359V51.75C75.8411 51.4688 75.7917 51.2292 75.6875 51.0312C75.5885 50.8333 75.4427 50.6823 75.25 50.5781C75.0573 50.474 74.8229 50.4219 74.5469 50.4219C74.2604 50.4219 74.0234 50.4844 73.8359 50.6094C73.6536 50.7344 73.5104 50.9062 73.4062 51.125C73.3073 51.3385 73.237 51.5859 73.1953 51.8672C73.1536 52.1484 73.1328 52.4453 73.1328 52.7578V53.0547C73.1328 53.3672 73.1745 53.651 73.2578 53.9062C73.3464 54.1615 73.4714 54.3802 73.6328 54.5625C73.7995 54.7396 73.9974 54.8776 74.2266 54.9766C74.4609 55.0755 74.7266 55.125 75.0234 55.125C75.3828 55.125 75.737 55.0573 76.0859 54.9219C76.4349 54.7865 76.7344 54.5625 76.9844 54.25L78.1797 55.6719C78.0078 55.9167 77.763 56.1536 77.4453 56.3828C77.1328 56.612 76.7578 56.7995 76.3203 56.9453C75.8828 57.0859 75.3932 57.1562 74.8516 57.1562ZM82.1328 50.6406V57H79.5V48.5469H81.9609L82.1328 50.6406ZM84.6328 48.4844L84.5859 50.9297C84.4818 50.9193 84.3411 50.9062 84.1641 50.8906C83.987 50.875 83.8385 50.8672 83.7188 50.8672C83.4115 50.8672 83.1458 50.9036 82.9219 50.9766C82.7031 51.0443 82.5208 51.1484 82.375 51.2891C82.2344 51.4245 82.1302 51.5964 82.0625 51.8047C82 52.013 81.9714 52.2552 81.9766 52.5312L81.5 52.2188C81.5 51.651 81.5547 51.1354 81.6641 50.6719C81.7786 50.2031 81.9401 49.7995 82.1484 49.4609C82.3568 49.1172 82.6094 48.8542 82.9062 48.6719C83.2031 48.4844 83.5365 48.3906 83.9062 48.3906C84.0365 48.3906 84.1641 48.3984 84.2891 48.4141C84.4193 48.4297 84.5339 48.4531 84.6328 48.4844ZM88.7266 55.1953L90.3906 48.5469H93.1641L90.3984 57H88.7578L88.7266 55.1953ZM87.7422 48.5469L89.3828 55.1953L89.3672 57H87.7188L84.9609 48.5469H87.7422ZM96.7266 48.5469V57H94.0859V48.5469H96.7266ZM93.9297 46.3672C93.9297 45.9922 94.0651 45.6849 94.3359 45.4453C94.6068 45.2057 94.9583 45.0859 95.3906 45.0859C95.8229 45.0859 96.1745 45.2057 96.4453 45.4453C96.7161 45.6849 96.8516 45.9922 96.8516 46.3672C96.8516 46.7422 96.7161 47.0495 96.4453 47.2891C96.1745 47.5286 95.8229 47.6484 95.3906 47.6484C94.9583 47.6484 94.6068 47.5286 94.3359 47.2891C94.0651 47.0495 93.9297 46.7422 93.9297 46.3672ZM101.922 55.125C102.167 55.125 102.375 55.0807 102.547 54.9922C102.724 54.8984 102.857 54.7682 102.945 54.6016C103.039 54.4297 103.083 54.224 103.078 53.9844H105.555C105.56 54.6198 105.404 55.1771 105.086 55.6562C104.773 56.1302 104.346 56.5 103.805 56.7656C103.268 57.026 102.661 57.1562 101.984 57.1562C101.323 57.1562 100.745 57.0495 100.25 56.8359C99.7552 56.6172 99.3411 56.3151 99.0078 55.9297C98.6797 55.5391 98.4323 55.0833 98.2656 54.5625C98.1042 54.0417 98.0234 53.4766 98.0234 52.8672V52.6875C98.0234 52.0781 98.1042 51.513 98.2656 50.9922C98.4323 50.4661 98.6797 50.0104 99.0078 49.625C99.3411 49.2344 99.7526 48.9323 100.242 48.7188C100.737 48.5 101.312 48.3906 101.969 48.3906C102.672 48.3906 103.292 48.5234 103.828 48.7891C104.37 49.0547 104.794 49.4401 105.102 49.9453C105.409 50.4505 105.56 51.0625 105.555 51.7812H103.078C103.083 51.526 103.044 51.2969 102.961 51.0938C102.878 50.8906 102.747 50.7292 102.57 50.6094C102.398 50.4844 102.177 50.4219 101.906 50.4219C101.635 50.4219 101.417 50.4818 101.25 50.6016C101.083 50.7214 100.956 50.888 100.867 51.1016C100.784 51.3099 100.727 51.5495 100.695 51.8203C100.669 52.0911 100.656 52.3802 100.656 52.6875V52.8672C100.656 53.1797 100.669 53.474 100.695 53.75C100.727 54.0208 100.786 54.2604 100.875 54.4688C100.964 54.6719 101.091 54.8333 101.258 54.9531C101.424 55.0677 101.646 55.125 101.922 55.125ZM110.773 57.1562C110.086 57.1562 109.471 57.0495 108.93 56.8359C108.388 56.6172 107.93 56.3177 107.555 55.9375C107.185 55.5573 106.901 55.1198 106.703 54.625C106.51 54.1302 106.414 53.6068 106.414 53.0547V52.7578C106.414 52.138 106.5 51.5651 106.672 51.0391C106.844 50.5078 107.099 50.0443 107.438 49.6484C107.776 49.2526 108.201 48.9453 108.711 48.7266C109.221 48.5026 109.815 48.3906 110.492 48.3906C111.091 48.3906 111.628 48.487 112.102 48.6797C112.576 48.8724 112.977 49.1484 113.305 49.5078C113.638 49.8672 113.891 50.3021 114.062 50.8125C114.24 51.3229 114.328 51.8958 114.328 52.5312V53.6016H107.422V51.9531H111.758V51.75C111.763 51.4688 111.714 51.2292 111.609 51.0312C111.51 50.8333 111.365 50.6823 111.172 50.5781C110.979 50.474 110.745 50.4219 110.469 50.4219C110.182 50.4219 109.945 50.4844 109.758 50.6094C109.576 50.7344 109.432 50.9062 109.328 51.125C109.229 51.3385 109.159 51.5859 109.117 51.8672C109.076 52.1484 109.055 52.4453 109.055 52.7578V53.0547C109.055 53.3672 109.096 53.651 109.18 53.9062C109.268 54.1615 109.393 54.3802 109.555 54.5625C109.721 54.7396 109.919 54.8776 110.148 54.9766C110.383 55.0755 110.648 55.125 110.945 55.125C111.305 55.125 111.659 55.0573 112.008 54.9219C112.357 54.7865 112.656 54.5625 112.906 54.25L114.102 55.6719C113.93 55.9167 113.685 56.1536 113.367 56.3828C113.055 56.612 112.68 56.7995 112.242 56.9453C111.805 57.0859 111.315 57.1562 110.773 57.1562ZM119.828 54.625C119.828 54.4792 119.779 54.3542 119.68 54.25C119.586 54.1406 119.419 54.0417 119.18 53.9531C118.94 53.8594 118.604 53.7656 118.172 53.6719C117.76 53.5833 117.372 53.4661 117.008 53.3203C116.648 53.1745 116.333 52.9974 116.062 52.7891C115.792 52.5807 115.578 52.3333 115.422 52.0469C115.271 51.7604 115.195 51.4323 115.195 51.0625C115.195 50.7031 115.271 50.3646 115.422 50.0469C115.578 49.724 115.805 49.4401 116.102 49.1953C116.404 48.9453 116.771 48.75 117.203 48.6094C117.635 48.4635 118.128 48.3906 118.68 48.3906C119.44 48.3906 120.096 48.5078 120.648 48.7422C121.201 48.9714 121.625 49.2943 121.922 49.7109C122.224 50.1224 122.375 50.599 122.375 51.1406H119.742C119.742 50.9271 119.706 50.7448 119.633 50.5938C119.565 50.4427 119.453 50.3281 119.297 50.25C119.141 50.1667 118.932 50.125 118.672 50.125C118.49 50.125 118.323 50.1589 118.172 50.2266C118.026 50.2943 117.909 50.388 117.82 50.5078C117.732 50.6276 117.688 50.7682 117.688 50.9297C117.688 51.0443 117.714 51.1484 117.766 51.2422C117.823 51.3307 117.909 51.4141 118.023 51.4922C118.138 51.5651 118.284 51.6328 118.461 51.6953C118.638 51.7526 118.852 51.8047 119.102 51.8516C119.669 51.9557 120.201 52.1042 120.695 52.2969C121.19 52.4896 121.591 52.763 121.898 53.1172C122.211 53.4714 122.367 53.9479 122.367 54.5469C122.367 54.9219 122.281 55.2682 122.109 55.5859C121.938 55.8984 121.69 56.1745 121.367 56.4141C121.044 56.6484 120.656 56.8307 120.203 56.9609C119.75 57.0911 119.24 57.1562 118.672 57.1562C117.865 57.1562 117.182 57.013 116.625 56.7266C116.068 56.4349 115.646 56.0703 115.359 55.6328C115.078 55.1901 114.938 54.7422 114.938 54.2891H117.391C117.401 54.5495 117.464 54.763 117.578 54.9297C117.698 55.0964 117.857 55.2188 118.055 55.2969C118.253 55.375 118.482 55.4141 118.742 55.4141C118.982 55.4141 119.18 55.3802 119.336 55.3125C119.497 55.2448 119.62 55.1536 119.703 55.0391C119.786 54.9193 119.828 54.7812 119.828 54.625Z" fill="#1E1E1E"/>
<defs>
<filter id="filter0_d_1_72" x="0" y="0" width="320" height="324" filterUnits="userSpaceOnUse" color-interpolation-filters="sRGB">
<feFlood flood-opacity="0" result="BackgroundImageFix"/>
<feColorMatrix in="SourceAlpha" type="matrix" values="0 0 0 0 0 0 0 0 0 0 0 0 0 0 0 0 0 0 127 0" result="hardAlpha"/>
<feOffset dx="10" dy="23"/>
<feGaussianBlur stdDeviation="21.5"/>
<feComposite in2="hardAlpha" operator="out"/>
<feColorMatrix type="matrix" values="0 0 0 0 0 0 0 0 0 0 0 0 0 0 0 0 0 0 0.18 0"/>
<feBlend mode="normal" in2="BackgroundImageFix" result="effect1_dropShadow_1_72"/>
<feBlend mode="normal" in="SourceGraphic" in2="effect1_dropShadow_1_72" result="shape"/>
</filter>
</defs>
</svg>
